<svg xmlns="http://www.w3.org/2000/svg" xmlns:xlink="http://www.w3.org/1999/xlink" width="180" zoomAndPan="magnify" viewBox="0 0 135 30.000001" height="40" preserveAspectRatio="xMidYMid meet" version="1.0"><defs><g/><clipPath id="fb8443e75a"><path d="M 51 2.902344 L 53 2.902344 L 53 5 L 51 5 Z M 51 2.902344 " clip-rule="nonzero"/></clipPath><clipPath id="5a19cc7b9d"><path d="M 47.757812 3 L 54.878906 3 L 54.878906 13.789062 L 47.757812 13.789062 Z M 47.757812 3 " clip-rule="nonzero"/></clipPath><clipPath id="c8d65d732d"><path d="M 43 10 L 73 10 L 73 18 L 43 18 Z M 43 10 " clip-rule="nonzero"/></clipPath><clipPath id="b6969ceb34"><path d="M 43.960938 10.390625 L 72.96875 11.519531 L 72.714844 18.046875 L 43.707031 16.917969 Z M 43.960938 10.390625 " clip-rule="nonzero"/></clipPath><clipPath id="a1a34c001f"><path d="M 43.960938 10.390625 L 72.96875 11.519531 L 72.714844 18.046875 L 43.707031 16.917969 Z M 43.960938 10.390625 " clip-rule="nonzero"/></clipPath><clipPath id="021948cda0"><path d="M 73.089844 5.015625 L 93.414062 5.015625 L 93.414062 18.078125 L 73.089844 18.078125 Z M 73.089844 5.015625 " clip-rule="nonzero"/></clipPath></defs><g clip-path="url(#fb8443e75a)"><path fill="#000000" d="M 51.3125 3.734375 C 51.3125 3.953125 51.394531 4.136719 51.554688 4.292969 C 51.71875 4.445312 51.917969 4.523438 52.148438 4.523438 C 52.378906 4.523438 52.578125 4.445312 52.742188 4.292969 C 52.90625 4.136719 52.988281 3.953125 52.988281 3.734375 C 52.988281 3.515625 52.90625 3.328125 52.742188 3.171875 C 52.578125 3.019531 52.378906 2.941406 52.148438 2.941406 C 51.917969 2.941406 51.71875 3.019531 51.554688 3.171875 C 51.394531 3.328125 51.3125 3.515625 51.3125 3.734375 Z M 51.3125 3.734375 " fill-opacity="1" fill-rule="nonzero"/></g><g clip-path="url(#5a19cc7b9d)"><path fill="#000000" d="M 49.535156 3.929688 L 50.566406 4.226562 L 50.039062 5.972656 L 50.613281 5.007812 L 51.285156 4.570312 L 52.511719 5.355469 L 53.109375 7.007812 L 54.863281 8.042969 L 54.457031 8.6875 L 54.191406 8.523438 L 52.726562 11.332031 L 53.183594 13.558594 L 52.222656 13.695312 L 52.007812 12.914062 L 51.453125 13.789062 L 51.140625 13.789062 L 51.046875 13.535156 L 51.789062 12.042969 L 51.625 11.214844 L 50.375 9.996094 L 50.015625 10.960938 L 48.453125 13.742188 L 47.636719 13.398438 L 49.195312 9.351562 L 49.222656 8.203125 L 49.414062 7.078125 L 48.597656 6.847656 Z M 52.054688 7.007812 L 51.308594 8.113281 L 51.285156 8.410156 L 52.292969 10.089844 L 52.558594 10.59375 L 53.757812 8.292969 L 52.558594 7.882812 Z M 52.054688 7.007812 " fill-opacity="1" fill-rule="evenodd"/></g><g clip-path="url(#c8d65d732d)"><g clip-path="url(#b6969ceb34)"><g clip-path="url(#a1a34c001f)"><path fill="#000000" d="M 50.871094 16.433594 L 50.972656 16.328125 C 50.863281 16.453125 50.746094 16.582031 50.628906 16.707031 L 50.539062 16.808594 C 50.519531 16.828125 50.507812 16.847656 50.484375 16.863281 L 50.445312 16.894531 L 50.40625 16.933594 C 50.296875 17.027344 50.167969 17.09375 50.03125 17.109375 C 49.898438 17.125 49.773438 17.097656 49.65625 17.050781 C 49.523438 16.992188 49.457031 16.9375 49.390625 16.886719 C 49.457031 16.941406 49.515625 16.996094 49.648438 17.0625 C 49.769531 17.117188 49.90625 17.148438 50.042969 17.140625 C 50.140625 17.132812 50.246094 17.097656 50.335938 17.042969 C 50.378906 17.019531 50.421875 16.988281 50.46875 16.949219 C 50.488281 16.929688 50.511719 16.910156 50.523438 16.898438 L 50.570312 16.863281 L 50.84375 16.589844 C 51.019531 16.414062 51.191406 16.238281 51.347656 16.054688 C 51.5 15.875 51.648438 15.691406 51.773438 15.511719 C 51.898438 15.339844 51.996094 15.179688 52.089844 15.027344 C 52.160156 15.050781 52.386719 14.921875 52.574219 14.871094 C 52.667969 14.839844 52.75 14.835938 52.804688 14.832031 C 52.859375 14.828125 52.894531 14.835938 52.902344 14.824219 C 53.027344 14.808594 53.167969 14.839844 53.328125 14.929688 C 53.222656 14.867188 53.117188 14.824219 53.027344 14.816406 C 53.117188 14.824219 53.222656 14.867188 53.328125 14.929688 C 53.457031 15.003906 53.589844 15.105469 53.730469 15.214844 C 53.875 15.328125 54.023438 15.449219 54.203125 15.570312 C 54.246094 15.597656 54.292969 15.625 54.34375 15.652344 C 54.390625 15.679688 54.441406 15.703125 54.492188 15.730469 C 54.597656 15.773438 54.707031 15.8125 54.816406 15.835938 C 55.035156 15.882812 55.269531 15.886719 55.488281 15.847656 C 55.925781 15.773438 56.328125 15.566406 56.671875 15.285156 C 56.757812 15.214844 56.84375 15.132812 56.921875 15.050781 C 56.960938 15.015625 57 14.96875 57.03125 14.929688 C 57.070312 14.886719 57.101562 14.847656 57.140625 14.804688 C 57.277344 14.632812 57.402344 14.449219 57.519531 14.261719 C 57.644531 14.058594 57.804688 13.757812 57.972656 13.414062 C 58.140625 13.074219 58.3125 12.707031 58.523438 12.382812 C 58.628906 12.214844 58.738281 12.0625 58.847656 11.929688 C 58.875 11.898438 58.90625 11.867188 58.933594 11.835938 L 58.976562 11.789062 C 58.984375 11.777344 58.988281 11.785156 58.988281 11.777344 C 58.996094 11.769531 59.007812 11.773438 59.015625 11.773438 C 59.027344 11.773438 59.035156 11.78125 59.046875 11.785156 C 59.050781 11.785156 59.050781 11.792969 59.058594 11.792969 L 59.0625 11.800781 L 59.070312 11.8125 C 59.164062 11.933594 59.246094 12.050781 59.316406 12.136719 C 59.398438 12.246094 59.480469 12.347656 59.554688 12.453125 C 59.421875 12.273438 59.421875 12.273438 59.292969 12.089844 C 59.671875 12.5 60.019531 12.867188 60.34375 13.234375 C 60.304688 13.152344 60.304688 13.125 60.195312 12.953125 L 60.339844 13.152344 C 60.527344 13.292969 60.855469 13.699219 61.035156 13.875 C 60.980469 13.851562 61.097656 14.007812 61.207031 14.152344 L 61.171875 14.082031 C 61.386719 14.339844 61.644531 14.621094 61.96875 14.828125 C 62.132812 14.933594 62.308594 15.011719 62.484375 15.066406 C 62.660156 15.117188 62.832031 15.136719 62.984375 15.144531 C 63.070312 15.148438 63.140625 15.15625 63.175781 15.171875 C 63.375 15.160156 63.566406 15.125 63.746094 15.089844 C 63.726562 15.113281 63.84375 15.097656 63.929688 15.089844 C 64.015625 15.078125 64.078125 15.066406 63.949219 15.109375 C 64.355469 14.980469 64.746094 14.898438 65.097656 14.804688 C 65.421875 14.761719 65.734375 14.765625 66.015625 14.867188 C 66.15625 14.917969 66.28125 15.003906 66.410156 15.105469 C 66.539062 15.210938 66.660156 15.339844 66.785156 15.46875 C 66.910156 15.597656 67.035156 15.738281 67.171875 15.875 C 67.308594 16.011719 67.460938 16.144531 67.648438 16.25 C 67.738281 16.296875 67.84375 16.339844 67.945312 16.367188 C 68.050781 16.390625 68.160156 16.394531 68.265625 16.382812 C 68.480469 16.367188 68.675781 16.269531 68.835938 16.164062 C 68.824219 16.164062 68.808594 16.167969 68.796875 16.167969 C 69.023438 16.019531 69.191406 15.835938 69.390625 15.6875 C 69.585938 15.539062 69.820312 15.402344 70.105469 15.328125 C 70.304688 15.246094 70.554688 15.175781 70.785156 15.140625 C 70.839844 15.128906 70.894531 15.125 70.953125 15.113281 C 71.007812 15.109375 71.050781 15.105469 71.101562 15.097656 C 71.191406 15.082031 71.261719 15.078125 71.3125 15.0625 C 71.371094 15.0625 71.433594 15.074219 71.488281 15.082031 C 71.542969 15.089844 71.597656 15.097656 71.648438 15.101562 C 71.695312 15.109375 71.746094 15.117188 71.789062 15.125 C 71.832031 15.132812 71.878906 15.144531 71.921875 15.15625 C 72.007812 15.179688 72.101562 15.195312 72.195312 15.234375 C 72.246094 15.25 72.292969 15.261719 72.347656 15.292969 C 72.402344 15.3125 72.457031 15.34375 72.511719 15.371094 C 72.488281 15.34375 72.5 15.34375 72.539062 15.359375 C 72.574219 15.371094 72.628906 15.402344 72.675781 15.421875 C 72.699219 15.4375 72.722656 15.449219 72.75 15.457031 C 72.765625 15.464844 72.785156 15.472656 72.796875 15.480469 C 72.816406 15.488281 72.816406 15.472656 72.769531 15.433594 C 72.703125 15.371094 72.644531 15.328125 72.601562 15.296875 C 72.554688 15.261719 72.511719 15.238281 72.476562 15.21875 C 72.4375 15.195312 72.394531 15.175781 72.355469 15.15625 C 72.3125 15.132812 72.257812 15.105469 72.191406 15.0625 L 72.195312 15.082031 C 71.550781 14.78125 70.8125 14.722656 70.109375 14.882812 C 69.761719 14.96875 69.417969 15.113281 69.101562 15.316406 C 68.949219 15.414062 68.816406 15.519531 68.691406 15.601562 C 68.570312 15.683594 68.457031 15.742188 68.355469 15.773438 C 68.324219 15.785156 68.296875 15.789062 68.265625 15.792969 C 68.246094 15.792969 68.234375 15.800781 68.214844 15.800781 L 68.164062 15.796875 C 68.105469 15.792969 68.035156 15.777344 67.96875 15.742188 C 67.835938 15.679688 67.6875 15.550781 67.539062 15.386719 C 67.394531 15.222656 67.238281 15.039062 67.0625 14.855469 C 66.886719 14.671875 66.683594 14.480469 66.421875 14.347656 C 66.152344 14.199219 65.839844 14.140625 65.550781 14.136719 C 65.261719 14.132812 64.988281 14.171875 64.738281 14.230469 C 64.238281 14.339844 63.792969 14.488281 63.410156 14.542969 C 63.230469 14.578125 63.09375 14.546875 62.957031 14.511719 C 62.789062 14.507812 62.628906 14.46875 62.472656 14.402344 C 62.316406 14.332031 62.160156 14.226562 62.003906 14.082031 C 61.851562 13.945312 61.707031 13.785156 61.5625 13.609375 C 61.414062 13.429688 61.261719 13.253906 61.121094 13.085938 C 61.132812 13.097656 61.136719 13.113281 61.148438 13.121094 C 60.84375 12.753906 60.644531 12.453125 60.351562 12.09375 C 60.34375 12.105469 60.296875 12.042969 60.273438 12.023438 C 60.269531 11.996094 60.15625 11.863281 59.988281 11.660156 C 59.898438 11.558594 59.796875 11.449219 59.691406 11.328125 C 59.679688 11.3125 59.660156 11.300781 59.648438 11.277344 L 59.621094 11.25 L 59.585938 11.21875 C 59.5625 11.195312 59.539062 11.175781 59.507812 11.148438 C 59.476562 11.128906 59.453125 11.109375 59.421875 11.09375 C 59.308594 11.03125 59.175781 10.992188 59.039062 10.992188 C 58.902344 10.996094 58.773438 11.027344 58.660156 11.097656 C 58.601562 11.132812 58.546875 11.171875 58.5 11.222656 L 58.46875 11.253906 L 58.449219 11.277344 C 58.4375 11.296875 58.417969 11.316406 58.402344 11.328125 C 58.289062 11.46875 58.191406 11.609375 58.109375 11.730469 C 57.953125 11.980469 57.859375 12.167969 57.835938 12.199219 C 57.8125 12.242188 57.789062 12.289062 57.765625 12.339844 C 57.515625 12.789062 57.289062 13.25 57.050781 13.65625 C 56.933594 13.851562 56.808594 14.042969 56.679688 14.210938 C 56.554688 14.375 56.417969 14.527344 56.292969 14.652344 C 56.195312 14.78125 56.066406 14.90625 55.964844 14.996094 C 55.84375 15.035156 55.84375 15.089844 55.691406 15.140625 C 55.496094 15.160156 55.359375 15.160156 55.285156 15.171875 C 55.210938 15.175781 55.203125 15.199219 55.300781 15.210938 C 55.152344 15.230469 55.007812 15.226562 54.871094 15.179688 C 54.738281 15.144531 54.617188 15.074219 54.496094 14.988281 C 54.382812 14.921875 54.269531 14.832031 54.152344 14.742188 C 54.046875 14.664062 54.003906 14.597656 53.960938 14.535156 C 53.824219 14.425781 53.769531 14.390625 53.714844 14.34375 C 53.691406 14.324219 53.664062 14.296875 53.621094 14.269531 C 53.578125 14.234375 53.519531 14.199219 53.429688 14.148438 C 53.417969 14.140625 53.390625 14.128906 53.363281 14.113281 C 53.34375 14.105469 53.324219 14.097656 53.300781 14.089844 L 53.226562 14.070312 C 53.125 14.039062 52.976562 14.027344 52.839844 14.035156 C 52.699219 14.046875 52.566406 14.089844 52.46875 14.125 C 52.417969 14.148438 52.375 14.167969 52.34375 14.179688 C 52.3125 14.199219 52.285156 14.210938 52.273438 14.214844 L 52.332031 14.179688 C 52.113281 14.273438 51.949219 14.375 51.789062 14.472656 C 51.632812 14.578125 51.492188 14.691406 51.34375 14.847656 C 51.203125 14.992188 51.082031 15.132812 50.945312 15.277344 C 50.816406 15.421875 50.6875 15.570312 50.550781 15.714844 L 50.164062 16.152344 C 50.101562 16.222656 50.03125 16.308594 50.003906 16.335938 C 49.984375 16.355469 49.964844 16.367188 49.941406 16.371094 C 49.917969 16.378906 49.898438 16.371094 49.875 16.355469 C 49.867188 16.355469 49.839844 16.335938 49.808594 16.320312 C 49.777344 16.300781 49.742188 16.277344 49.710938 16.257812 C 49.585938 16.167969 49.464844 16.070312 49.347656 15.96875 C 49.316406 15.992188 49.515625 16.101562 49.488281 16.144531 C 49.273438 15.964844 49.074219 15.75 48.867188 15.523438 C 48.660156 15.300781 48.445312 15.070312 48.191406 14.847656 C 48.148438 14.808594 48.101562 14.761719 48.058594 14.71875 C 48.019531 14.679688 47.984375 14.644531 47.957031 14.617188 C 47.785156 14.488281 47.84375 14.5625 47.710938 14.476562 L 47.707031 14.429688 C 47.597656 14.386719 47.527344 14.339844 47.453125 14.289062 C 47.382812 14.242188 47.304688 14.199219 47.195312 14.167969 C 47.175781 14.179688 47.097656 14.152344 47.015625 14.128906 C 47.019531 14.109375 46.957031 14.09375 46.894531 14.085938 C 46.835938 14.074219 46.773438 14.066406 46.78125 14.046875 C 46.726562 14.039062 46.6875 14.039062 46.625 14.027344 C 46.613281 14.027344 46.589844 14.035156 46.550781 14.03125 C 46.515625 14.039062 46.472656 14.042969 46.421875 14.046875 C 46.398438 14.050781 46.367188 14.058594 46.34375 14.0625 C 46.3125 14.070312 46.285156 14.082031 46.253906 14.085938 C 46.199219 14.105469 46.128906 14.113281 46.074219 14.136719 C 46.019531 14.160156 45.957031 14.179688 45.90625 14.210938 C 45.855469 14.234375 45.804688 14.257812 45.761719 14.28125 C 45.679688 14.332031 45.617188 14.371094 45.597656 14.382812 C 45.585938 14.386719 45.570312 14.386719 45.558594 14.394531 C 45.453125 14.449219 45.414062 14.5 45.480469 14.476562 C 45.4375 14.5 45.394531 14.519531 45.351562 14.542969 L 45.363281 14.53125 C 45.320312 14.554688 45.273438 14.578125 45.238281 14.601562 C 45.210938 14.617188 45.179688 14.613281 45.207031 14.574219 C 45.144531 14.632812 45.066406 14.683594 45 14.726562 C 45.191406 14.628906 45.457031 14.507812 45.699219 14.445312 C 45.679688 14.457031 45.648438 14.46875 45.617188 14.488281 C 45.585938 14.5 45.554688 14.515625 45.523438 14.53125 C 45.460938 14.558594 45.398438 14.589844 45.347656 14.621094 C 45.222656 14.660156 44.996094 14.777344 44.832031 14.871094 C 44.800781 14.894531 44.796875 14.945312 44.703125 14.980469 C 44.648438 14.980469 44.617188 15.039062 44.542969 15.0625 C 44.574219 15.03125 44.613281 15.003906 44.648438 14.988281 C 44.6875 14.960938 44.726562 14.9375 44.761719 14.917969 C 44.746094 14.90625 44.699219 14.9375 44.644531 14.96875 C 44.59375 14.996094 44.535156 15.035156 44.503906 15.046875 C 44.484375 15.070312 44.335938 15.144531 44.253906 15.199219 C 44.265625 15.175781 44.246094 15.179688 44.214844 15.191406 C 44.183594 15.203125 44.148438 15.222656 44.117188 15.222656 C 44.054688 15.246094 44.023438 15.269531 44.054688 15.273438 C 44.027344 15.308594 44.277344 15.175781 44.207031 15.25 C 44.175781 15.242188 44.0625 15.304688 44 15.328125 C 44.007812 15.347656 44.050781 15.324219 44.011719 15.363281 C 43.9375 15.386719 43.867188 15.429688 43.824219 15.417969 C 43.839844 15.414062 43.867188 15.410156 43.886719 15.402344 C 43.863281 15.410156 43.882812 15.394531 43.917969 15.371094 C 43.957031 15.347656 44.015625 15.308594 44.066406 15.273438 C 44.121094 15.222656 44.179688 15.183594 44.210938 15.160156 C 44.242188 15.128906 44.257812 15.117188 44.222656 15.132812 C 44.242188 15.136719 44.128906 15.230469 44.007812 15.300781 C 43.976562 15.320312 43.953125 15.339844 43.921875 15.351562 L 43.84375 15.386719 C 43.808594 15.414062 43.78125 15.425781 43.792969 15.417969 C 43.855469 15.414062 43.761719 15.464844 43.824219 15.460938 L 43.886719 15.414062 C 43.96875 15.40625 44.015625 15.414062 43.992188 15.445312 C 43.921875 15.46875 44.011719 15.402344 44.101562 15.332031 C 44.144531 15.292969 44.1875 15.257812 44.214844 15.238281 C 44.238281 15.214844 44.246094 15.207031 44.222656 15.226562 L 44.269531 15.207031 C 44.25 15.226562 44.207031 15.257812 44.164062 15.277344 C 44.121094 15.300781 44.074219 15.316406 44.046875 15.316406 C 44.050781 15.335938 43.988281 15.367188 43.9375 15.390625 L 43.917969 15.390625 C 43.863281 15.414062 43.78125 15.429688 43.824219 15.445312 C 43.992188 15.398438 43.953125 15.464844 43.90625 15.527344 C 43.863281 15.597656 43.804688 15.667969 43.988281 15.621094 C 43.910156 15.621094 43.917969 15.605469 43.964844 15.589844 C 43.992188 15.578125 44.023438 15.566406 44.0625 15.546875 C 44.097656 15.527344 44.140625 15.515625 44.171875 15.5 C 44.1875 15.5 44.203125 15.5 44.242188 15.496094 C 44.277344 15.488281 44.328125 15.480469 44.378906 15.453125 C 44.472656 15.398438 44.429688 15.410156 44.441406 15.390625 C 44.5 15.375 44.597656 15.320312 44.597656 15.351562 C 44.65625 15.28125 44.722656 15.296875 44.800781 15.234375 C 44.871094 15.179688 44.789062 15.226562 44.832031 15.183594 C 44.945312 15.117188 45.105469 15.011719 45.199219 14.960938 C 45.242188 14.957031 45.371094 14.921875 45.308594 15.003906 C 45.132812 15.109375 45.347656 14.914062 45.171875 15.039062 C 45.269531 15.03125 45.019531 15.152344 45.003906 15.203125 C 45.074219 15.1875 45.1875 15.113281 45.28125 15.042969 L 45.257812 15.050781 C 45.339844 14.988281 45.503906 14.875 45.609375 14.855469 C 45.597656 14.878906 45.640625 14.875 45.578125 14.90625 L 45.695312 14.84375 C 45.707031 14.832031 45.722656 14.820312 45.683594 14.832031 C 45.734375 14.785156 45.796875 14.777344 45.847656 14.765625 C 45.851562 14.765625 45.890625 14.746094 45.953125 14.722656 C 46.015625 14.691406 46.097656 14.664062 46.179688 14.632812 C 46.339844 14.582031 46.511719 14.5625 46.5 14.566406 C 46.597656 14.570312 46.617188 14.597656 46.714844 14.59375 C 46.714844 14.589844 46.660156 14.585938 46.582031 14.582031 C 46.492188 14.585938 46.382812 14.589844 46.285156 14.617188 C 46.179688 14.640625 46.085938 14.675781 46.015625 14.699219 C 45.953125 14.730469 45.921875 14.742188 45.953125 14.730469 C 45.988281 14.722656 46.242188 14.617188 46.511719 14.601562 C 46.785156 14.578125 47.046875 14.660156 47.070312 14.6875 C 47.136719 14.710938 47.222656 14.746094 47.210938 14.71875 C 47.316406 14.777344 47.164062 14.738281 47.238281 14.785156 C 47.238281 14.785156 47.230469 14.773438 47.261719 14.789062 L 47.328125 14.847656 C 47.511719 14.90625 47.722656 15.101562 47.898438 15.191406 C 47.84375 15.171875 47.769531 15.160156 47.65625 15.097656 L 47.644531 15.078125 C 47.628906 15.070312 47.535156 15.019531 47.53125 15.039062 C 47.625 15.117188 47.710938 15.171875 47.816406 15.234375 L 47.863281 15.289062 L 47.867188 15.28125 C 47.886719 15.316406 47.886719 15.316406 47.871094 15.316406 L 47.859375 15.316406 C 47.875 15.359375 47.964844 15.429688 48.078125 15.511719 C 48.1875 15.597656 48.3125 15.699219 48.382812 15.789062 C 48.433594 15.828125 48.394531 15.789062 48.460938 15.835938 C 48.613281 16.019531 48.71875 16.148438 48.890625 16.324219 C 48.960938 16.359375 48.976562 16.355469 48.917969 16.273438 C 48.964844 16.3125 49.003906 16.363281 49.054688 16.402344 C 48.96875 16.375 49.027344 16.441406 49.085938 16.507812 C 49.144531 16.578125 49.203125 16.644531 49.105469 16.609375 C 49.140625 16.65625 49.230469 16.730469 49.328125 16.789062 C 49.347656 16.78125 49.371094 16.769531 49.484375 16.847656 C 49.527344 16.878906 49.550781 16.894531 49.582031 16.914062 C 49.613281 16.9375 49.628906 16.941406 49.652344 16.957031 C 49.695312 16.976562 49.726562 17 49.835938 17.03125 C 49.882812 17.058594 49.804688 17.054688 49.808594 17.074219 C 49.894531 17.085938 49.957031 17.082031 50.007812 17.074219 C 50.082031 17.066406 50.128906 17.0625 50.191406 17.042969 C 50.25 17.027344 50.324219 16.996094 50.425781 16.902344 C 50.503906 16.828125 50.566406 16.742188 50.621094 16.679688 C 50.671875 16.609375 50.710938 16.554688 50.707031 16.539062 C 50.839844 16.382812 50.859375 16.402344 50.871094 16.433594 Z M 50.871094 16.433594 " fill-opacity="1" fill-rule="nonzero"/></g></g></g><g fill="#000000" fill-opacity="1"><g transform="translate(45.723917, 23.197344)"><g><path d="M 1.207031 -3.394531 L 1.207031 0 C 1.578125 0 1.949219 0 2.320312 0 L 2.320312 -3.394531 L 3.394531 -3.394531 C 3.394531 -3.734375 3.394531 -4.066406 3.394531 -4.402344 L 0.125 -4.402344 C 0.125 -4.066406 0.125 -3.734375 0.125 -3.394531 Z M 1.207031 -3.394531 "/></g></g></g><g fill="#000000" fill-opacity="1"><g transform="translate(50.419329, 23.197344)"><g><path d="M 3.414062 -1.558594 C 4.527344 -2.3125 4.210938 -4.394531 2.484375 -4.402344 C 1.84375 -4.402344 1.1875 -4.402344 0.554688 -4.402344 C 0.554688 -2.929688 0.554688 -1.464844 0.554688 0 C 0.917969 0 1.300781 0 1.679688 0 L 1.679688 -1.296875 L 2.261719 -1.296875 L 3.015625 0 L 4.273438 0 L 4.273438 -0.164062 Z M 2.484375 -2.292969 L 1.679688 -2.292969 C 1.679688 -2.648438 1.679688 -3.035156 1.679688 -3.394531 C 1.941406 -3.394531 2.21875 -3.402344 2.484375 -3.394531 C 3.125 -3.386719 3.09375 -2.292969 2.484375 -2.292969 Z M 2.484375 -2.292969 "/></g></g></g><g fill="#000000" fill-opacity="1"><g transform="translate(55.975844, 23.197344)"><g><path d="M 1.867188 -0.988281 L 1.867188 -3.417969 L 2.382812 -3.417969 L 2.382812 -4.402344 L 0.238281 -4.402344 L 0.238281 -3.417969 L 0.753906 -3.417969 L 0.753906 -0.988281 L 0.195312 -0.988281 L 0.195312 0 L 2.425781 0 L 2.425781 -0.988281 Z M 1.867188 -0.988281 "/></g></g></g><g fill="#000000" fill-opacity="1"><g transform="translate(59.741014, 23.197344)"><g><path d="M 1.683594 -4.402344 C 1.300781 -4.402344 0.929688 -4.402344 0.554688 -4.402344 L 0.554688 0 C 1.445312 0 2.375 0 3.28125 0 C 3.28125 -0.378906 3.28125 -0.636719 3.28125 -1.011719 L 1.683594 -1.011719 C 1.683594 -2.886719 1.683594 -2.125 1.683594 -4.402344 Z M 1.683594 -4.402344 "/></g></g></g><g fill="#000000" fill-opacity="1"><g transform="translate(64.398713, 23.197344)"><g><path d="M 4.222656 -4.402344 C 3.839844 -4.402344 3.457031 -4.402344 3.074219 -4.402344 L 3.074219 -2.804688 L 1.714844 -2.804688 L 1.714844 -4.402344 C 1.332031 -4.402344 0.941406 -4.402344 0.566406 -4.402344 L 0.566406 0 C 0.941406 0 1.332031 0 1.714844 0 L 1.714844 -1.765625 L 3.074219 -1.765625 L 3.074219 0 C 3.457031 0 3.839844 0 4.222656 0 Z M 4.222656 -4.402344 "/></g></g></g><g fill="#000000" fill-opacity="1"><g transform="translate(70.351209, 23.197344)"><g><path d="M 3.355469 0 L 4.457031 0 L 4.457031 -0.164062 L 2.46875 -4.457031 L 1.988281 -4.457031 L 0.0078125 -0.164062 L 0.0078125 0 L 1.105469 0 L 1.363281 -0.554688 L 3.097656 -0.554688 Z M 2.734375 -1.515625 L 1.730469 -1.515625 L 2.226562 -2.671875 Z M 2.734375 -1.515625 "/></g></g></g><g fill="#000000" fill-opacity="1"><g transform="translate(75.989433, 23.197344)"><g><path d="M 3.941406 0.0078125 L 4.34375 0.0078125 L 4.34375 -4.402344 C 3.960938 -4.402344 3.578125 -4.402344 3.195312 -4.402344 L 3.195312 -2.246094 L 0.96875 -4.417969 L 0.558594 -4.417969 L 0.558594 0 C 0.941406 0 1.332031 0 1.722656 0 L 1.722656 -2.164062 Z M 3.941406 0.0078125 "/></g></g></g><g fill="#000000" fill-opacity="1"><g transform="translate(82.055067, 23.197344)"><g><path d="M 2.21875 -4.402344 L 0.558594 -4.402344 L 0.558594 0 L 2.21875 0 C 5.085938 -0.0117188 5.085938 -4.386719 2.21875 -4.402344 Z M 1.683594 -3.375 L 2.21875 -3.375 C 3.621094 -3.375 3.621094 -1.023438 2.21875 -1.023438 L 1.683594 -1.023438 Z M 1.683594 -3.375 "/></g></g></g><g fill="#000000" fill-opacity="1"><g transform="translate(87.881856, 23.197344)"><g><path d="M 4.804688 -2.195312 C 4.804688 -5.238281 0.289062 -5.238281 0.289062 -2.195312 C 0.289062 0.855469 4.804688 0.855469 4.804688 -2.195312 Z M 1.445312 -2.195312 C 1.445312 -3.777344 3.652344 -3.777344 3.652344 -2.195312 C 3.652344 -0.597656 1.445312 -0.597656 1.445312 -2.195312 Z M 1.445312 -2.195312 "/></g></g></g><path fill="#000000" d="M 49.792969 23.945312 C 49.992188 23.945312 50.164062 24.019531 50.304688 24.160156 C 50.445312 24.300781 50.519531 24.472656 50.519531 24.671875 C 50.519531 24.875 50.445312 25.042969 50.304688 25.1875 C 50.164062 25.328125 49.992188 25.398438 49.792969 25.398438 C 49.589844 25.398438 49.417969 25.328125 49.277344 25.1875 C 49.136719 25.042969 49.0625 24.875 49.0625 24.671875 C 49.0625 24.472656 49.136719 24.300781 49.277344 24.160156 C 49.417969 24.019531 49.589844 23.945312 49.792969 23.945312 Z M 52.699219 23.945312 C 52.898438 23.945312 53.070312 24.019531 53.210938 24.160156 C 53.355469 24.300781 53.425781 24.472656 53.425781 24.671875 C 53.425781 24.875 53.355469 25.042969 53.210938 25.1875 C 53.070312 25.328125 52.898438 25.398438 52.699219 25.398438 C 52.496094 25.398438 52.324219 25.328125 52.183594 25.1875 C 52.042969 25.042969 51.972656 24.875 51.972656 24.671875 C 51.972656 24.472656 52.042969 24.300781 52.183594 24.160156 C 52.324219 24.019531 52.496094 23.945312 52.699219 23.945312 Z M 55.605469 23.945312 C 55.804688 23.945312 55.976562 24.019531 56.117188 24.160156 C 56.261719 24.300781 56.332031 24.472656 56.332031 24.671875 C 56.332031 24.875 56.261719 25.042969 56.117188 25.1875 C 55.976562 25.328125 55.804688 25.398438 55.605469 25.398438 C 55.402344 25.398438 55.234375 25.328125 55.089844 25.1875 C 54.949219 25.042969 54.878906 24.875 54.878906 24.671875 C 54.878906 24.472656 54.949219 24.300781 55.089844 24.160156 C 55.234375 24.019531 55.402344 23.945312 55.605469 23.945312 Z M 58.511719 23.945312 C 58.710938 23.945312 58.882812 24.019531 59.027344 24.160156 C 59.167969 24.300781 59.238281 24.472656 59.238281 24.671875 C 59.238281 24.875 59.167969 25.042969 59.027344 25.1875 C 58.882812 25.328125 58.710938 25.398438 58.511719 25.398438 C 58.3125 25.398438 58.140625 25.328125 57.996094 25.1875 C 57.855469 25.042969 57.785156 24.875 57.785156 24.671875 C 57.785156 24.472656 57.855469 24.300781 57.996094 24.160156 C 58.140625 24.019531 58.3125 23.945312 58.511719 23.945312 Z M 61.417969 23.945312 C 61.621094 23.945312 61.789062 24.019531 61.933594 24.160156 C 62.074219 24.300781 62.144531 24.472656 62.144531 24.671875 C 62.144531 24.875 62.074219 25.042969 61.933594 25.1875 C 61.789062 25.328125 61.621094 25.398438 61.417969 25.398438 C 61.21875 25.398438 61.046875 25.328125 60.90625 25.1875 C 60.761719 25.042969 60.691406 24.875 60.691406 24.671875 C 60.691406 24.472656 60.761719 24.300781 60.90625 24.160156 C 61.046875 24.019531 61.21875 23.945312 61.417969 23.945312 Z M 64.324219 23.945312 C 64.527344 23.945312 64.699219 24.019531 64.839844 24.160156 C 64.980469 24.300781 65.050781 24.472656 65.050781 24.671875 C 65.050781 24.875 64.980469 25.042969 64.839844 25.1875 C 64.699219 25.328125 64.527344 25.398438 64.324219 25.398438 C 64.125 25.398438 63.953125 25.328125 63.8125 25.1875 C 63.667969 25.042969 63.597656 24.875 63.597656 24.671875 C 63.597656 24.472656 63.667969 24.300781 63.8125 24.160156 C 63.953125 24.019531 64.125 23.945312 64.324219 23.945312 Z M 64.324219 23.945312 " fill-opacity="1" fill-rule="nonzero"/><path fill="#000000" d="M 68.648438 23.945312 C 68.847656 23.945312 69.019531 24.019531 69.160156 24.160156 C 69.304688 24.300781 69.375 24.472656 69.375 24.671875 C 69.375 24.875 69.304688 25.042969 69.160156 25.1875 C 69.019531 25.328125 68.847656 25.398438 68.648438 25.398438 C 68.445312 25.398438 68.273438 25.328125 68.132812 25.1875 C 67.992188 25.042969 67.921875 24.875 67.921875 24.671875 C 67.921875 24.472656 67.992188 24.300781 68.132812 24.160156 C 68.273438 24.019531 68.445312 23.945312 68.648438 23.945312 Z M 71.554688 23.945312 C 71.753906 23.945312 71.925781 24.019531 72.066406 24.160156 C 72.210938 24.300781 72.28125 24.472656 72.28125 24.671875 C 72.28125 24.875 72.210938 25.042969 72.066406 25.1875 C 71.925781 25.328125 71.753906 25.398438 71.554688 25.398438 C 71.351562 25.398438 71.183594 25.328125 71.039062 25.1875 C 70.898438 25.042969 70.828125 24.875 70.828125 24.671875 C 70.828125 24.472656 70.898438 24.300781 71.039062 24.160156 C 71.183594 24.019531 71.351562 23.945312 71.554688 23.945312 Z M 74.460938 23.945312 C 74.660156 23.945312 74.832031 24.019531 74.976562 24.160156 C 75.117188 24.300781 75.1875 24.472656 75.1875 24.671875 C 75.1875 24.875 75.117188 25.042969 74.976562 25.1875 C 74.832031 25.328125 74.660156 25.398438 74.460938 25.398438 C 74.261719 25.398438 74.089844 25.328125 73.945312 25.1875 C 73.804688 25.042969 73.734375 24.875 73.734375 24.671875 C 73.734375 24.472656 73.804688 24.300781 73.945312 24.160156 C 74.089844 24.019531 74.261719 23.945312 74.460938 23.945312 Z M 77.367188 23.945312 C 77.570312 23.945312 77.738281 24.019531 77.882812 24.160156 C 78.023438 24.300781 78.09375 24.472656 78.09375 24.671875 C 78.09375 24.875 78.023438 25.042969 77.882812 25.1875 C 77.738281 25.328125 77.570312 25.398438 77.367188 25.398438 C 77.167969 25.398438 76.996094 25.328125 76.855469 25.1875 C 76.710938 25.042969 76.640625 24.875 76.640625 24.671875 C 76.640625 24.472656 76.710938 24.300781 76.855469 24.160156 C 76.996094 24.019531 77.167969 23.945312 77.367188 23.945312 Z M 80.273438 23.945312 C 80.476562 23.945312 80.648438 24.019531 80.789062 24.160156 C 80.929688 24.300781 81 24.472656 81 24.671875 C 81 24.875 80.929688 25.042969 80.789062 25.1875 C 80.648438 25.328125 80.476562 25.398438 80.273438 25.398438 C 80.074219 25.398438 79.902344 25.328125 79.761719 25.1875 C 79.617188 25.042969 79.546875 24.875 79.546875 24.671875 C 79.546875 24.472656 79.617188 24.300781 79.761719 24.160156 C 79.902344 24.019531 80.074219 23.945312 80.273438 23.945312 Z M 83.179688 23.945312 C 83.382812 23.945312 83.554688 24.019531 83.695312 24.160156 C 83.835938 24.300781 83.910156 24.472656 83.910156 24.671875 C 83.910156 24.875 83.835938 25.042969 83.695312 25.1875 C 83.554688 25.328125 83.382812 25.398438 83.179688 25.398438 C 82.980469 25.398438 82.808594 25.328125 82.667969 25.1875 C 82.527344 25.042969 82.453125 24.875 82.453125 24.671875 C 82.453125 24.472656 82.527344 24.300781 82.667969 24.160156 C 82.808594 24.019531 82.980469 23.945312 83.179688 23.945312 Z M 83.179688 23.945312 " fill-opacity="1" fill-rule="nonzero"/><g clip-path="url(#021948cda0)"><path fill="#000000" d="M 88.484375 18.042969 C 88.433594 18.03125 88.359375 17.996094 88.320312 17.972656 C 88.277344 17.945312 88.1875 17.914062 88.117188 17.902344 C 88.046875 17.894531 87.890625 17.84375 87.765625 17.792969 C 87.640625 17.742188 87.363281 17.65625 87.152344 17.605469 C 86.941406 17.554688 86.75 17.5 86.730469 17.488281 C 86.710938 17.476562 86.671875 17.460938 86.636719 17.457031 C 86.5 17.4375 85.875 17.21875 85.847656 17.179688 C 85.832031 17.15625 85.742188 17.132812 85.652344 17.125 C 85.558594 17.117188 85.429688 17.097656 85.363281 17.078125 C 85.296875 17.0625 85.132812 17.019531 85 16.984375 C 84.867188 16.949219 84.648438 16.886719 84.515625 16.84375 C 84.378906 16.804688 84.230469 16.761719 84.179688 16.75 C 84.054688 16.726562 83.796875 16.59375 83.820312 16.570312 C 83.832031 16.558594 83.796875 16.546875 83.742188 16.546875 C 83.640625 16.546875 83.386719 16.472656 83.089844 16.359375 C 82.90625 16.285156 82.347656 16.175781 82.171875 16.175781 C 81.980469 16.175781 81.746094 16.234375 81.527344 16.335938 C 81.347656 16.421875 81.3125 16.429688 81.058594 16.417969 C 80.886719 16.410156 80.746094 16.386719 80.683594 16.355469 C 80.628906 16.324219 80.519531 16.292969 80.441406 16.28125 C 80.363281 16.269531 80.230469 16.230469 80.144531 16.191406 C 80.0625 16.152344 79.933594 16.097656 79.859375 16.070312 C 79.703125 16.015625 79.515625 15.921875 79.445312 15.859375 C 79.417969 15.835938 79.316406 15.820312 79.195312 15.820312 C 78.875 15.816406 77.824219 15.867188 77.691406 15.890625 C 77.625 15.902344 77.304688 15.90625 76.976562 15.902344 C 75.8125 15.878906 75.652344 15.878906 75.21875 15.90625 C 74.976562 15.917969 74.691406 15.925781 74.582031 15.925781 C 74.351562 15.917969 74.390625 15.914062 74.066406 15.957031 C 73.738281 15.996094 73.359375 16 73.289062 15.960938 C 73.257812 15.945312 73.207031 15.921875 73.179688 15.914062 C 73.140625 15.902344 73.128906 15.878906 73.140625 15.835938 C 73.152344 15.800781 73.144531 15.746094 73.121094 15.710938 C 73.089844 15.660156 73.09375 15.640625 73.160156 15.585938 C 73.199219 15.550781 73.285156 15.515625 73.347656 15.503906 C 73.5 15.476562 73.539062 15.441406 73.605469 15.257812 C 73.644531 15.15625 73.699219 15.078125 73.769531 15.03125 C 73.824219 14.992188 73.886719 14.914062 73.910156 14.859375 C 73.953125 14.757812 74.078125 14.621094 74.128906 14.621094 C 74.144531 14.621094 74.160156 14.578125 74.160156 14.527344 C 74.160156 14.480469 74.207031 14.355469 74.265625 14.257812 C 74.386719 14.050781 74.394531 13.992188 74.308594 13.90625 C 74.238281 13.832031 74.234375 13.789062 74.296875 13.703125 C 74.34375 13.640625 74.34375 13.640625 74.390625 13.703125 C 74.414062 13.738281 74.445312 13.78125 74.457031 13.800781 C 74.492188 13.855469 74.742188 13.957031 74.992188 14.015625 C 75.203125 14.066406 75.40625 14.074219 76.492188 14.082031 C 77.183594 14.085938 77.773438 14.09375 77.796875 14.09375 C 77.820312 14.097656 78.269531 14.085938 78.789062 14.074219 L 79.730469 14.050781 L 79.867188 14.132812 C 79.941406 14.175781 80.105469 14.3125 80.234375 14.429688 C 80.367188 14.554688 80.507812 14.65625 80.558594 14.667969 C 80.667969 14.691406 80.828125 14.824219 80.828125 14.890625 C 80.828125 14.976562 80.902344 14.914062 80.988281 14.742188 C 81.039062 14.648438 81.097656 14.550781 81.121094 14.523438 C 81.144531 14.5 81.164062 14.46875 81.164062 14.460938 C 81.164062 14.449219 81.230469 14.324219 81.308594 14.179688 C 81.390625 14.039062 81.480469 13.847656 81.507812 13.757812 C 81.539062 13.671875 81.589844 13.554688 81.628906 13.503906 C 81.824219 13.230469 81.875 13.15625 82.027344 12.925781 C 82.121094 12.789062 82.21875 12.621094 82.253906 12.550781 C 82.285156 12.480469 82.433594 12.234375 82.582031 12.007812 C 82.96875 11.414062 83.027344 11.3125 83.332031 10.714844 C 83.367188 10.644531 83.453125 10.507812 83.519531 10.417969 C 83.585938 10.324219 83.679688 10.175781 83.726562 10.082031 C 83.769531 9.988281 83.839844 9.871094 83.875 9.820312 C 83.914062 9.769531 83.976562 9.664062 84.011719 9.585938 C 84.050781 9.507812 84.15625 9.328125 84.25 9.1875 C 84.339844 9.042969 84.441406 8.855469 84.472656 8.769531 C 84.507812 8.683594 84.601562 8.5 84.683594 8.359375 C 84.769531 8.222656 84.851562 8.082031 84.871094 8.046875 C 84.890625 8.015625 84.949219 7.914062 85 7.832031 C 85.050781 7.746094 85.109375 7.640625 85.132812 7.597656 C 85.15625 7.554688 85.21875 7.441406 85.269531 7.347656 C 85.324219 7.253906 85.382812 7.128906 85.40625 7.070312 C 85.429688 7.007812 85.507812 6.863281 85.582031 6.75 C 85.652344 6.632812 85.710938 6.503906 85.710938 6.464844 C 85.710938 6.417969 85.746094 6.359375 85.808594 6.3125 L 85.902344 6.234375 L 85.753906 5.917969 C 85.597656 5.578125 85.5 5.46875 85.226562 5.316406 C 84.988281 5.183594 84.6875 5.160156 84.347656 5.25 C 84.238281 5.28125 84.066406 5.316406 83.96875 5.332031 C 83.867188 5.34375 83.71875 5.375 83.632812 5.394531 C 83.425781 5.445312 81.808594 5.441406 81.464844 5.390625 C 81.324219 5.371094 81.0625 5.34375 80.878906 5.328125 C 80.609375 5.308594 80.539062 5.292969 80.484375 5.238281 L 80.417969 5.171875 L 80.304688 5.371094 C 80.242188 5.484375 80.179688 5.578125 80.167969 5.582031 C 80.128906 5.597656 79.960938 5.925781 79.9375 6.019531 C 79.925781 6.066406 79.90625 6.105469 79.890625 6.105469 C 79.859375 6.105469 79.675781 6.4375 79.675781 6.492188 C 79.675781 6.511719 79.632812 6.582031 79.578125 6.652344 C 79.519531 6.71875 79.445312 6.835938 79.410156 6.914062 C 79.375 6.992188 79.28125 7.128906 79.207031 7.222656 C 79.128906 7.3125 79.042969 7.441406 79.011719 7.503906 C 78.980469 7.566406 78.929688 7.636719 78.902344 7.660156 C 78.875 7.683594 78.832031 7.742188 78.808594 7.796875 C 78.78125 7.847656 78.695312 7.976562 78.613281 8.082031 C 78.535156 8.1875 78.441406 8.332031 78.40625 8.402344 C 78.371094 8.472656 78.296875 8.582031 78.242188 8.648438 C 78.1875 8.710938 78.089844 8.847656 78.027344 8.949219 C 77.960938 9.050781 77.847656 9.21875 77.773438 9.316406 C 77.699219 9.417969 77.609375 9.550781 77.574219 9.617188 C 77.480469 9.789062 77.144531 10.304688 77.082031 10.378906 C 77.050781 10.410156 77.023438 10.453125 77.023438 10.472656 C 77.019531 10.488281 77.015625 10.519531 77.011719 10.542969 C 77.011719 10.5625 76.988281 10.582031 76.964844 10.582031 C 76.941406 10.582031 76.890625 10.625 76.855469 10.679688 C 76.816406 10.738281 76.746094 10.828125 76.699219 10.882812 C 76.652344 10.941406 76.613281 11.007812 76.613281 11.035156 C 76.613281 11.0625 76.582031 11.113281 76.539062 11.144531 C 76.496094 11.179688 76.417969 11.273438 76.367188 11.351562 C 76.3125 11.433594 76.21875 11.550781 76.15625 11.613281 C 76.09375 11.675781 76.011719 11.789062 75.976562 11.859375 C 75.898438 12.015625 75.769531 12.183594 75.597656 12.363281 C 75.53125 12.433594 75.441406 12.550781 75.402344 12.617188 C 75.359375 12.6875 75.226562 12.835938 75.105469 12.949219 C 74.980469 13.0625 74.851562 13.191406 74.816406 13.242188 C 74.691406 13.410156 74.460938 13.628906 74.429688 13.609375 C 74.382812 13.578125 74.398438 13.507812 74.460938 13.46875 C 74.496094 13.453125 74.515625 13.425781 74.507812 13.410156 C 74.5 13.398438 74.550781 13.339844 74.621094 13.28125 C 74.691406 13.226562 74.761719 13.160156 74.773438 13.140625 C 74.785156 13.117188 74.859375 13.054688 74.933594 13.003906 C 75.011719 12.949219 75.128906 12.816406 75.207031 12.699219 C 75.394531 12.40625 75.5 12.269531 75.703125 12.054688 C 75.800781 11.949219 75.902344 11.816406 75.933594 11.757812 C 75.984375 11.660156 76.074219 11.535156 76.230469 11.363281 C 76.265625 11.320312 76.308594 11.265625 76.324219 11.234375 C 76.488281 10.957031 76.804688 10.511719 76.898438 10.429688 C 76.929688 10.402344 77.089844 10.167969 77.253906 9.914062 C 77.417969 9.65625 77.589844 9.390625 77.636719 9.324219 C 77.683594 9.261719 77.78125 9.113281 77.851562 9 C 77.921875 8.886719 78.046875 8.722656 78.128906 8.632812 C 78.210938 8.546875 78.304688 8.417969 78.339844 8.351562 C 78.390625 8.246094 78.734375 7.703125 78.804688 7.613281 C 78.890625 7.5 79.285156 6.910156 79.359375 6.777344 C 79.410156 6.6875 79.480469 6.574219 79.515625 6.523438 C 79.550781 6.472656 79.589844 6.394531 79.601562 6.355469 C 79.613281 6.3125 79.660156 6.222656 79.703125 6.15625 C 79.808594 5.992188 79.820312 5.972656 79.84375 5.917969 C 79.851562 5.894531 79.886719 5.828125 79.921875 5.777344 C 79.953125 5.726562 80.011719 5.621094 80.050781 5.546875 C 80.175781 5.292969 80.320312 5.082031 80.378906 5.0625 C 80.410156 5.050781 80.480469 5.070312 80.535156 5.105469 C 80.683594 5.199219 80.816406 5.226562 81.160156 5.25 C 81.332031 5.257812 81.488281 5.277344 81.503906 5.285156 C 81.558594 5.320312 82.964844 5.332031 83.296875 5.296875 C 83.484375 5.28125 83.871094 5.214844 84.160156 5.15625 C 84.84375 5.015625 85.042969 5.023438 85.328125 5.210938 C 85.683594 5.445312 85.738281 5.523438 85.957031 6.101562 C 85.984375 6.171875 85.988281 6.167969 86.175781 5.992188 C 86.394531 5.78125 86.675781 5.582031 86.847656 5.507812 C 87.328125 5.308594 87.285156 5.316406 87.605469 5.339844 C 88.035156 5.371094 88.074219 5.378906 88.257812 5.464844 C 88.507812 5.578125 88.890625 5.722656 89.0625 5.761719 C 89.144531 5.78125 89.265625 5.824219 89.332031 5.855469 C 89.402344 5.886719 89.519531 5.921875 89.59375 5.933594 C 89.902344 5.980469 90.390625 6.121094 90.738281 6.265625 C 90.945312 6.347656 91.195312 6.429688 91.300781 6.445312 C 91.402344 6.460938 91.5625 6.507812 91.65625 6.550781 C 91.753906 6.597656 91.953125 6.652344 92.140625 6.679688 C 92.582031 6.746094 92.589844 6.75 92.640625 6.832031 C 92.683594 6.898438 92.683594 6.925781 92.652344 7.042969 C 92.632812 7.117188 92.59375 7.207031 92.570312 7.246094 C 92.53125 7.3125 92.535156 7.320312 92.675781 7.410156 C 92.808594 7.496094 92.839844 7.503906 93.046875 7.496094 C 93.261719 7.488281 93.269531 7.492188 93.339844 7.582031 C 93.382812 7.632812 93.414062 7.707031 93.414062 7.742188 C 93.414062 7.84375 93.328125 8.058594 93.238281 8.183594 C 93.140625 8.320312 93.050781 8.566406 93.050781 8.703125 C 93.050781 8.820312 92.980469 9.015625 92.917969 9.070312 C 92.898438 9.089844 92.863281 9.160156 92.839844 9.226562 C 92.800781 9.355469 92.46875 10.050781 92.394531 10.160156 C 92.371094 10.195312 92.351562 10.253906 92.351562 10.292969 C 92.351562 10.332031 92.339844 10.363281 92.324219 10.363281 C 92.304688 10.363281 92.292969 10.390625 92.292969 10.421875 C 92.292969 10.457031 92.28125 10.492188 92.265625 10.5 C 92.253906 10.507812 92.203125 10.609375 92.15625 10.726562 C 92.074219 10.933594 91.644531 11.855469 91.589844 11.949219 C 91.542969 12.027344 91.332031 12.480469 91.25 12.683594 C 91.207031 12.785156 91.027344 13.171875 90.851562 13.535156 C 90.675781 13.902344 90.496094 14.277344 90.453125 14.371094 C 90.410156 14.464844 90.363281 14.566406 90.347656 14.597656 C 90.332031 14.625 90.320312 14.671875 90.320312 14.695312 C 90.320312 14.75 90.207031 15.019531 89.988281 15.476562 C 89.890625 15.679688 89.785156 15.933594 89.757812 16.035156 C 89.726562 16.136719 89.671875 16.289062 89.632812 16.367188 C 89.59375 16.449219 89.535156 16.609375 89.496094 16.726562 C 89.460938 16.839844 89.390625 16.996094 89.34375 17.074219 C 89.300781 17.148438 89.253906 17.273438 89.242188 17.351562 C 89.230469 17.429688 89.207031 17.523438 89.1875 17.558594 C 89.171875 17.59375 89.15625 17.632812 89.152344 17.652344 C 89.144531 17.785156 88.960938 17.960938 88.746094 18.035156 C 88.632812 18.074219 88.621094 18.074219 88.484375 18.042969 Z M 88.910156 17.820312 C 88.957031 17.785156 88.972656 17.664062 88.9375 17.628906 C 88.929688 17.617188 88.886719 17.625 88.847656 17.644531 C 88.808594 17.660156 88.765625 17.667969 88.753906 17.65625 C 88.730469 17.632812 88.800781 17.453125 88.851562 17.425781 C 88.886719 17.402344 89 17.203125 89.25 16.703125 C 89.324219 16.558594 89.402344 16.429688 89.425781 16.414062 C 89.453125 16.402344 89.472656 16.363281 89.472656 16.332031 C 89.472656 16.300781 89.503906 16.234375 89.542969 16.183594 C 89.578125 16.136719 89.65625 15.992188 89.714844 15.863281 C 89.769531 15.734375 89.839844 15.59375 89.871094 15.546875 C 89.902344 15.503906 89.925781 15.441406 89.925781 15.40625 C 89.925781 15.375 89.949219 15.316406 89.980469 15.273438 C 90.007812 15.230469 90.03125 15.152344 90.035156 15.09375 C 90.035156 15.039062 90.058594 14.96875 90.085938 14.941406 C 90.113281 14.910156 90.183594 14.753906 90.246094 14.589844 C 90.304688 14.429688 90.382812 14.261719 90.414062 14.222656 C 90.445312 14.179688 90.472656 14.128906 90.472656 14.113281 C 90.472656 14.09375 90.53125 13.957031 90.601562 13.8125 C 90.675781 13.667969 90.769531 13.449219 90.820312 13.332031 C 90.867188 13.210938 90.957031 13 91.019531 12.863281 C 91.082031 12.726562 91.148438 12.566406 91.167969 12.507812 C 91.265625 12.230469 91.296875 12.15625 91.367188 12.046875 C 91.40625 11.984375 91.496094 11.804688 91.558594 11.652344 C 91.625 11.5 91.714844 11.308594 91.757812 11.234375 C 91.800781 11.15625 91.835938 11.054688 91.835938 11.007812 C 91.835938 10.960938 91.871094 10.867188 91.914062 10.796875 C 91.953125 10.730469 91.988281 10.652344 91.988281 10.628906 C 91.988281 10.601562 92.015625 10.566406 92.046875 10.550781 C 92.078125 10.53125 92.121094 10.464844 92.140625 10.402344 C 92.164062 10.335938 92.207031 10.246094 92.238281 10.199219 C 92.355469 10.027344 92.542969 9.570312 92.550781 9.4375 C 92.558594 9.355469 92.585938 9.273438 92.621094 9.234375 C 92.691406 9.148438 92.828125 8.785156 92.867188 8.558594 C 92.886719 8.464844 92.925781 8.355469 92.957031 8.308594 C 93.054688 8.171875 93.203125 7.851562 93.203125 7.773438 C 93.203125 7.664062 93.152344 7.636719 92.921875 7.621094 C 92.6875 7.601562 92.683594 7.625 92.882812 7.804688 C 92.980469 7.894531 92.992188 7.917969 92.972656 8.007812 C 92.960938 8.0625 92.914062 8.1875 92.863281 8.28125 C 92.710938 8.582031 92.441406 9.191406 92.429688 9.277344 C 92.410156 9.386719 92.34375 9.53125 92.199219 9.773438 C 92.132812 9.882812 92.082031 9.992188 92.082031 10.011719 C 92.078125 10.035156 92.050781 10.097656 92.019531 10.152344 C 91.984375 10.207031 91.957031 10.285156 91.957031 10.324219 C 91.957031 10.410156 91.90625 10.523438 91.847656 10.558594 C 91.824219 10.574219 91.808594 10.597656 91.808594 10.613281 C 91.808594 10.648438 91.433594 11.5625 91.351562 11.730469 C 91.285156 11.871094 91.21875 12.027344 91.167969 12.164062 C 91.148438 12.226562 91.078125 12.394531 91.011719 12.539062 C 90.945312 12.683594 90.871094 12.859375 90.84375 12.925781 C 90.816406 12.996094 90.765625 13.085938 90.734375 13.128906 C 90.664062 13.214844 90.597656 13.359375 90.421875 13.8125 C 90.359375 13.976562 90.21875 14.28125 90.117188 14.488281 C 90.011719 14.699219 89.925781 14.890625 89.925781 14.910156 C 89.925781 14.933594 89.894531 14.984375 89.851562 15.023438 C 89.8125 15.0625 89.742188 15.203125 89.695312 15.332031 C 89.652344 15.460938 89.605469 15.582031 89.589844 15.601562 C 89.578125 15.617188 89.558594 15.667969 89.546875 15.707031 C 89.535156 15.75 89.464844 15.917969 89.386719 16.082031 C 89.3125 16.242188 89.21875 16.449219 89.179688 16.539062 C 89.136719 16.628906 89.113281 16.714844 89.121094 16.730469 C 89.128906 16.746094 89.117188 16.773438 89.09375 16.796875 C 89.070312 16.816406 89.023438 16.890625 88.988281 16.960938 C 88.949219 17.027344 88.882812 17.125 88.835938 17.171875 C 88.785156 17.214844 88.722656 17.3125 88.695312 17.382812 C 88.652344 17.496094 88.636719 17.511719 88.546875 17.511719 C 88.488281 17.511719 88.433594 17.496094 88.425781 17.476562 C 88.410156 17.457031 88.386719 17.460938 88.351562 17.492188 C 88.304688 17.539062 88.28125 17.535156 88.105469 17.476562 C 87.996094 17.4375 87.84375 17.378906 87.765625 17.34375 C 87.683594 17.308594 87.582031 17.285156 87.535156 17.289062 C 87.484375 17.292969 87.375 17.246094 87.246094 17.164062 C 87.0625 17.050781 87.023438 17.039062 86.898438 17.054688 C 86.757812 17.070312 86.453125 17.011719 86.273438 16.933594 C 86.222656 16.914062 86.105469 16.871094 86.015625 16.84375 C 85.921875 16.816406 85.753906 16.765625 85.636719 16.730469 C 85.519531 16.695312 85.320312 16.625 85.195312 16.578125 C 85.070312 16.527344 84.871094 16.46875 84.753906 16.441406 C 84.636719 16.417969 84.492188 16.367188 84.4375 16.332031 C 84.371094 16.292969 84.28125 16.269531 84.1875 16.269531 C 84.109375 16.269531 83.976562 16.238281 83.890625 16.207031 C 83.808594 16.171875 83.710938 16.144531 83.675781 16.144531 C 83.621094 16.144531 83.257812 16 83.125 15.921875 C 83.09375 15.90625 83.042969 15.902344 83.011719 15.910156 C 82.980469 15.921875 82.878906 15.902344 82.78125 15.871094 C 82.683594 15.839844 82.542969 15.808594 82.46875 15.808594 C 82.394531 15.804688 82.304688 15.78125 82.269531 15.757812 C 82.234375 15.734375 82.097656 15.679688 81.964844 15.636719 C 81.734375 15.5625 81.710938 15.5625 81.542969 15.601562 C 81.445312 15.625 81.355469 15.636719 81.347656 15.628906 C 81.339844 15.621094 81.355469 15.613281 81.378906 15.613281 C 81.410156 15.613281 81.40625 15.605469 81.371094 15.582031 C 81.335938 15.5625 81.292969 15.5625 81.246094 15.585938 C 81.183594 15.617188 81.160156 15.609375 81.085938 15.539062 C 81.039062 15.496094 80.976562 15.460938 80.945312 15.460938 C 80.914062 15.460938 80.894531 15.449219 80.902344 15.433594 C 80.910156 15.417969 80.953125 15.414062 81 15.421875 C 81.070312 15.4375 81.078125 15.429688 81.054688 15.363281 C 81.042969 15.324219 81.015625 15.253906 80.996094 15.214844 C 80.957031 15.136719 80.957031 15.140625 80.894531 15.285156 C 80.859375 15.363281 80.820312 15.429688 80.804688 15.429688 C 80.789062 15.429688 80.6875 15.339844 80.582031 15.234375 C 80.476562 15.128906 80.304688 14.996094 80.207031 14.945312 C 80.105469 14.890625 79.960938 14.800781 79.886719 14.742188 C 79.714844 14.605469 79.332031 14.492188 79.039062 14.492188 C 78.8125 14.492188 78.292969 14.53125 78.175781 14.558594 C 78.109375 14.574219 77.9375 14.589844 77.796875 14.589844 C 77.65625 14.59375 77.492188 14.597656 77.433594 14.605469 C 77.375 14.609375 77.109375 14.621094 76.84375 14.632812 C 76.574219 14.644531 76.261719 14.664062 76.144531 14.679688 C 76.027344 14.699219 75.515625 14.71875 75.007812 14.730469 C 73.996094 14.75 74.007812 14.75 74.007812 14.933594 C 74.007812 15.039062 74.121094 15.101562 74.234375 15.054688 C 74.285156 15.035156 74.363281 15.035156 74.453125 15.054688 C 74.582031 15.082031 74.972656 15.125 75.054688 15.121094 C 75.1875 15.113281 76.722656 15.082031 76.835938 15.085938 C 76.914062 15.085938 77.007812 15.074219 77.042969 15.054688 C 77.074219 15.035156 77.316406 15.007812 77.578125 14.992188 C 77.839844 14.976562 78.164062 14.949219 78.296875 14.933594 C 78.621094 14.894531 79.085938 14.882812 79.238281 14.914062 C 79.382812 14.941406 79.675781 15.054688 79.738281 15.105469 C 79.820312 15.171875 80.046875 15.277344 80.0625 15.261719 C 80.101562 15.222656 80 15.089844 79.910156 15.054688 C 79.855469 15.035156 79.714844 14.972656 79.597656 14.914062 C 79.476562 14.855469 79.347656 14.808594 79.304688 14.808594 C 79.265625 14.808594 79.210938 14.785156 79.1875 14.757812 C 79.152344 14.710938 79.097656 14.707031 78.792969 14.722656 C 78.597656 14.734375 78.410156 14.757812 78.375 14.773438 C 78.34375 14.792969 78.226562 14.808594 78.117188 14.808594 C 78.003906 14.808594 77.859375 14.820312 77.789062 14.839844 C 77.511719 14.90625 75.191406 14.976562 74.628906 14.9375 C 74.40625 14.921875 74.257812 14.925781 74.246094 14.941406 C 74.21875 14.980469 74.152344 14.9375 74.175781 14.894531 C 74.191406 14.871094 74.316406 14.867188 74.5625 14.882812 C 74.898438 14.902344 75.21875 14.902344 75.933594 14.882812 C 76.28125 14.875 77.21875 14.8125 77.539062 14.777344 C 78.230469 14.703125 78.503906 14.679688 78.84375 14.664062 C 79.199219 14.644531 79.214844 14.648438 79.40625 14.738281 C 79.722656 14.886719 79.769531 14.902344 79.769531 14.867188 C 79.769531 14.789062 79.886719 14.859375 80.0625 15.046875 C 80.207031 15.203125 80.277344 15.253906 80.324219 15.25 C 80.417969 15.238281 80.558594 15.355469 80.558594 15.441406 C 80.558594 15.480469 80.582031 15.535156 80.609375 15.5625 C 80.667969 15.613281 81.085938 15.691406 81.136719 15.660156 C 81.152344 15.652344 81.179688 15.679688 81.199219 15.722656 C 81.238281 15.8125 81.300781 15.824219 81.375 15.753906 C 81.453125 15.683594 81.597656 15.679688 81.609375 15.746094 C 81.617188 15.785156 81.570312 15.824219 81.4375 15.894531 C 81.273438 15.980469 81.230469 15.988281 80.972656 15.988281 C 80.773438 15.988281 80.675781 15.972656 80.632812 15.941406 C 80.601562 15.914062 80.53125 15.894531 80.476562 15.894531 C 80.414062 15.894531 80.355469 15.871094 80.316406 15.832031 C 80.269531 15.777344 80.25 15.769531 80.191406 15.800781 C 80.109375 15.847656 80.085938 15.824219 80.132812 15.742188 C 80.160156 15.691406 80.15625 15.671875 80.117188 15.660156 C 80.09375 15.648438 80.070312 15.613281 80.070312 15.582031 C 80.070312 15.519531 80.117188 15.5 80.144531 15.550781 C 80.152344 15.5625 80.203125 15.585938 80.253906 15.59375 C 80.324219 15.609375 80.34375 15.628906 80.34375 15.6875 C 80.34375 15.773438 80.398438 15.832031 80.472656 15.832031 C 80.535156 15.832031 80.585938 15.734375 80.535156 15.71875 C 80.519531 15.710938 80.480469 15.6875 80.449219 15.660156 C 80.390625 15.617188 80.390625 15.613281 80.464844 15.554688 L 80.539062 15.496094 L 80.480469 15.421875 C 80.371094 15.292969 80.308594 15.265625 80.335938 15.367188 C 80.355469 15.4375 80.335938 15.441406 80.25 15.394531 C 80.207031 15.375 80.175781 15.371094 80.152344 15.394531 C 80.125 15.414062 80.050781 15.382812 79.894531 15.285156 C 79.769531 15.210938 79.660156 15.148438 79.652344 15.148438 C 79.640625 15.148438 79.578125 15.121094 79.515625 15.085938 C 79.453125 15.050781 79.308594 15.011719 79.199219 14.996094 C 78.921875 14.960938 78.1875 15.007812 77.78125 15.085938 C 77.597656 15.121094 77.203125 15.164062 76.902344 15.183594 C 76.316406 15.222656 76.3125 15.222656 75.902344 15.207031 C 75.75 15.203125 75.464844 15.210938 75.265625 15.222656 C 75.019531 15.238281 74.832031 15.234375 74.6875 15.207031 C 74.570312 15.1875 74.386719 15.167969 74.28125 15.164062 C 74.171875 15.164062 74.050781 15.152344 74.011719 15.136719 C 73.96875 15.121094 73.925781 15.128906 73.898438 15.148438 C 73.875 15.171875 73.835938 15.179688 73.8125 15.171875 C 73.753906 15.144531 73.683594 15.308594 73.699219 15.445312 C 73.703125 15.460938 73.792969 15.480469 73.902344 15.484375 C 74.117188 15.492188 74.148438 15.449219 73.957031 15.410156 C 73.882812 15.394531 73.859375 15.378906 73.882812 15.355469 C 73.90625 15.332031 73.945312 15.335938 74.023438 15.363281 C 74.082031 15.382812 74.167969 15.394531 74.214844 15.382812 C 74.261719 15.371094 74.851562 15.367188 75.523438 15.371094 C 77.257812 15.378906 77.359375 15.378906 77.457031 15.324219 C 77.683594 15.195312 77.757812 15.171875 77.945312 15.171875 C 78.050781 15.175781 78.191406 15.15625 78.261719 15.132812 C 78.339844 15.101562 78.394531 15.097656 78.414062 15.117188 C 78.449219 15.152344 78.449219 15.152344 78.183594 15.226562 C 78.0625 15.261719 77.992188 15.265625 77.953125 15.246094 C 77.914062 15.222656 77.855469 15.230469 77.765625 15.261719 C 77.632812 15.304688 77.632812 15.304688 77.917969 15.289062 C 78.078125 15.28125 78.253906 15.265625 78.3125 15.257812 C 78.371094 15.25 78.652344 15.226562 78.9375 15.207031 C 79.4375 15.179688 79.464844 15.179688 79.574219 15.242188 C 79.640625 15.277344 79.707031 15.304688 79.730469 15.304688 C 79.75 15.304688 79.769531 15.332031 79.769531 15.363281 C 79.769531 15.429688 79.710938 15.429688 79.328125 15.363281 C 79.027344 15.3125 78.78125 15.324219 78.023438 15.417969 C 77.851562 15.441406 77.621094 15.449219 76.433594 15.472656 C 75.957031 15.484375 75.488281 15.5 75.386719 15.507812 C 75.207031 15.523438 75.125 15.527344 74.035156 15.566406 C 73.523438 15.585938 73.269531 15.613281 73.226562 15.65625 C 73.183594 15.703125 73.25 15.773438 73.316406 15.753906 C 73.355469 15.746094 73.421875 15.753906 73.464844 15.777344 C 73.542969 15.820312 73.769531 15.808594 74.25 15.742188 C 74.492188 15.710938 75.945312 15.632812 76.144531 15.644531 C 76.898438 15.679688 78.652344 15.640625 79.101562 15.570312 C 79.242188 15.550781 79.433594 15.535156 79.527344 15.539062 C 79.964844 15.550781 79.945312 15.546875 79.996094 15.648438 C 80.023438 15.703125 80.039062 15.777344 80.027344 15.816406 C 80.007812 15.90625 80.15625 16.019531 80.324219 16.042969 C 80.394531 16.050781 80.527344 16.085938 80.625 16.117188 C 80.75 16.160156 80.886719 16.175781 81.125 16.175781 C 81.445312 16.175781 81.457031 16.171875 81.535156 16.085938 C 81.582031 16.039062 81.617188 15.984375 81.617188 15.964844 C 81.617188 15.910156 81.667969 15.890625 81.886719 15.863281 C 82.042969 15.84375 82.101562 15.847656 82.15625 15.882812 C 82.242188 15.941406 82.449219 16.007812 82.617188 16.035156 C 82.691406 16.046875 82.828125 16.097656 82.921875 16.148438 C 83.015625 16.195312 83.164062 16.25 83.253906 16.269531 C 83.34375 16.289062 83.472656 16.332031 83.539062 16.363281 C 83.609375 16.394531 83.707031 16.421875 83.753906 16.421875 C 83.804688 16.421875 83.914062 16.457031 84 16.496094 C 84.082031 16.535156 84.335938 16.613281 84.558594 16.667969 C 85.066406 16.792969 85.132812 16.808594 85.539062 16.921875 C 85.722656 16.972656 85.902344 17.015625 85.941406 17.015625 C 85.980469 17.015625 86.019531 17.027344 86.03125 17.046875 C 86.039062 17.0625 86.070312 17.078125 86.09375 17.078125 C 86.121094 17.078125 86.199219 17.105469 86.273438 17.136719 C 86.460938 17.226562 87.289062 17.4375 87.289062 17.398438 C 87.289062 17.390625 87.320312 17.402344 87.355469 17.421875 C 87.394531 17.445312 87.445312 17.464844 87.46875 17.46875 C 87.496094 17.472656 87.625 17.515625 87.757812 17.566406 C 87.890625 17.617188 88.085938 17.675781 88.191406 17.699219 C 88.316406 17.726562 88.40625 17.769531 88.449219 17.816406 C 88.507812 17.882812 88.535156 17.890625 88.691406 17.875 C 88.789062 17.867188 88.886719 17.84375 88.910156 17.820312 Z M 81.714844 15.6875 C 81.746094 15.679688 81.792969 15.679688 81.824219 15.6875 C 81.851562 15.695312 81.828125 15.703125 81.769531 15.703125 C 81.710938 15.703125 81.6875 15.695312 81.714844 15.6875 Z M 88.660156 17.253906 C 88.703125 17.164062 88.746094 17.046875 88.757812 16.992188 C 88.773438 16.921875 88.796875 16.890625 88.835938 16.890625 C 88.90625 16.890625 88.988281 16.769531 89.078125 16.53125 C 89.117188 16.429688 89.167969 16.316406 89.1875 16.285156 C 89.210938 16.25 89.230469 16.179688 89.230469 16.125 C 89.230469 16.0625 89.246094 16.019531 89.277344 16.007812 C 89.300781 15.996094 89.351562 15.921875 89.382812 15.839844 C 89.417969 15.761719 89.460938 15.652344 89.484375 15.601562 C 89.671875 15.1875 89.691406 15.121094 89.648438 15.066406 C 89.613281 15.023438 89.613281 15.011719 89.652344 15 C 89.78125 14.957031 90.070312 14.445312 90.308594 13.859375 C 90.488281 13.40625 90.65625 13.027344 90.699219 12.972656 C 90.746094 12.914062 90.910156 12.582031 90.941406 12.476562 C 90.957031 12.433594 91.003906 12.316406 91.050781 12.210938 C 91.09375 12.109375 91.144531 11.992188 91.15625 11.949219 C 91.167969 11.90625 91.238281 11.746094 91.3125 11.589844 C 91.386719 11.4375 91.496094 11.183594 91.550781 11.03125 C 91.605469 10.878906 91.6875 10.675781 91.730469 10.585938 C 91.773438 10.496094 91.832031 10.355469 91.855469 10.277344 C 91.882812 10.195312 91.976562 9.984375 92.0625 9.804688 C 92.265625 9.390625 92.398438 9.09375 92.429688 8.996094 C 92.441406 8.953125 92.542969 8.71875 92.660156 8.476562 C 92.867188 8.035156 92.90625 7.917969 92.824219 7.949219 C 92.800781 7.957031 92.773438 7.945312 92.765625 7.921875 C 92.734375 7.84375 92.691406 7.871094 92.652344 7.992188 C 92.632812 8.058594 92.605469 8.125 92.59375 8.140625 C 92.582031 8.15625 92.550781 8.242188 92.527344 8.328125 C 92.40625 8.730469 92.265625 9.074219 92.070312 9.445312 C 91.964844 9.648438 91.867188 9.867188 91.851562 9.945312 C 91.824219 10.054688 91.765625 10.195312 91.515625 10.71875 C 91.414062 10.941406 91.277344 11.265625 91.214844 11.433594 C 91.152344 11.605469 91.070312 11.78125 91.035156 11.824219 C 90.996094 11.867188 90.957031 11.925781 90.949219 11.953125 C 90.9375 11.984375 90.863281 12.101562 90.78125 12.21875 C 90.667969 12.378906 90.613281 12.5 90.550781 12.714844 C 90.488281 12.941406 90.429688 13.066406 90.265625 13.324219 C 90.148438 13.5 90.03125 13.671875 90 13.703125 C 89.929688 13.769531 89.835938 13.925781 89.730469 14.140625 C 89.652344 14.296875 89.578125 14.425781 89.453125 14.621094 C 89.417969 14.679688 89.347656 14.820312 89.304688 14.929688 C 89.257812 15.042969 89.199219 15.191406 89.167969 15.257812 C 89.140625 15.328125 89.070312 15.515625 89.015625 15.675781 C 88.964844 15.839844 88.902344 16.015625 88.882812 16.066406 C 88.820312 16.214844 88.707031 16.554688 88.691406 16.640625 C 88.679688 16.683594 88.628906 16.773438 88.574219 16.839844 C 88.519531 16.90625 88.46875 17.007812 88.457031 17.078125 C 88.421875 17.273438 88.367188 17.226562 88.390625 17.023438 C 88.40625 16.902344 88.449219 16.777344 88.539062 16.613281 C 88.609375 16.484375 88.671875 16.363281 88.679688 16.347656 C 88.683594 16.328125 88.722656 16.226562 88.765625 16.117188 C 88.804688 16.007812 88.832031 15.910156 88.820312 15.902344 C 88.808594 15.890625 88.746094 15.949219 88.679688 16.027344 C 88.613281 16.109375 88.539062 16.175781 88.515625 16.175781 C 88.457031 16.175781 88.460938 16.148438 88.535156 16.019531 C 88.570312 15.960938 88.648438 15.773438 88.703125 15.605469 C 88.761719 15.4375 88.839844 15.253906 88.878906 15.199219 C 88.917969 15.144531 88.996094 15.003906 89.046875 14.886719 C 89.097656 14.765625 89.160156 14.648438 89.183594 14.621094 C 89.207031 14.59375 89.269531 14.460938 89.328125 14.324219 C 89.382812 14.1875 89.472656 14.015625 89.527344 13.941406 C 89.578125 13.863281 89.625 13.785156 89.625 13.765625 C 89.625 13.746094 89.675781 13.652344 89.742188 13.554688 C 89.808594 13.460938 89.890625 13.316406 89.925781 13.234375 C 89.960938 13.15625 90.054688 12.988281 90.140625 12.859375 C 90.222656 12.734375 90.304688 12.597656 90.320312 12.554688 C 90.34375 12.488281 90.410156 12.441406 90.410156 12.492188 C 90.410156 12.535156 90.320312 12.707031 90.195312 12.902344 C 90.113281 13.023438 90.027344 13.183594 89.996094 13.257812 C 89.941406 13.40625 89.878906 13.519531 89.800781 13.605469 C 89.773438 13.636719 89.730469 13.707031 89.710938 13.761719 C 89.691406 13.816406 89.621094 13.9375 89.558594 14.035156 C 89.492188 14.132812 89.441406 14.226562 89.441406 14.242188 C 89.441406 14.289062 89.230469 14.742188 89.199219 14.761719 C 89.183594 14.769531 89.128906 14.863281 89.082031 14.960938 C 89.03125 15.0625 88.957031 15.203125 88.917969 15.277344 C 88.839844 15.410156 88.671875 15.894531 88.691406 15.914062 C 88.695312 15.917969 88.742188 15.894531 88.792969 15.859375 C 88.863281 15.804688 88.90625 15.722656 89 15.449219 C 89.0625 15.257812 89.15625 15.03125 89.203125 14.945312 C 89.25 14.855469 89.289062 14.769531 89.289062 14.746094 C 89.289062 14.726562 89.339844 14.632812 89.402344 14.535156 C 89.46875 14.4375 89.578125 14.238281 89.652344 14.09375 C 89.78125 13.835938 89.898438 13.65625 90.09375 13.414062 C 90.230469 13.25 90.363281 12.988281 90.441406 12.742188 C 90.523438 12.472656 90.597656 12.320312 90.75 12.113281 C 90.921875 11.875 91.058594 11.601562 91.203125 11.21875 C 91.273438 11.03125 91.359375 10.828125 91.394531 10.765625 C 91.570312 10.464844 91.8125 9.867188 91.757812 9.867188 C 91.738281 9.867188 91.351562 10.484375 91.351562 10.523438 C 91.351562 10.558594 91.121094 11.097656 91.011719 11.3125 C 90.921875 11.492188 90.628906 11.933594 90.5 12.085938 C 90.441406 12.15625 90.339844 12.296875 90.277344 12.398438 C 90.210938 12.5 90.132812 12.613281 90.105469 12.648438 C 90.019531 12.746094 89.832031 13.09375 89.546875 13.6875 C 89.40625 13.988281 89.269531 14.265625 89.246094 14.308594 C 89.21875 14.351562 89.132812 14.519531 89.046875 14.683594 C 88.960938 14.84375 88.855469 15.046875 88.8125 15.132812 C 88.726562 15.292969 88.671875 15.421875 88.566406 15.691406 C 88.535156 15.777344 88.480469 15.898438 88.445312 15.957031 C 88.414062 16.015625 88.375 16.101562 88.363281 16.144531 C 88.351562 16.1875 88.304688 16.273438 88.253906 16.335938 C 88.207031 16.398438 88.167969 16.46875 88.167969 16.492188 C 88.167969 16.515625 88.136719 16.566406 88.09375 16.601562 C 88.054688 16.636719 88.015625 16.683594 88.007812 16.707031 C 87.996094 16.738281 87.984375 16.742188 87.957031 16.714844 C 87.933594 16.691406 87.941406 16.648438 88 16.546875 C 88.042969 16.46875 88.078125 16.382812 88.078125 16.355469 C 88.078125 16.324219 88.09375 16.300781 88.117188 16.300781 C 88.171875 16.300781 88.265625 16.164062 88.359375 15.949219 C 88.40625 15.847656 88.441406 15.761719 88.441406 15.753906 C 88.441406 15.746094 88.511719 15.582031 88.59375 15.390625 C 88.679688 15.203125 88.742188 15.023438 88.734375 14.992188 C 88.726562 14.957031 88.746094 14.917969 88.785156 14.890625 C 88.820312 14.867188 88.910156 14.730469 88.984375 14.585938 C 89.054688 14.441406 89.132812 14.304688 89.152344 14.277344 C 89.175781 14.253906 89.242188 14.113281 89.304688 13.96875 C 89.535156 13.433594 89.96875 12.628906 90.125 12.445312 C 90.160156 12.402344 90.234375 12.296875 90.285156 12.207031 C 90.339844 12.117188 90.402344 12.03125 90.425781 12.007812 C 90.597656 11.867188 91.175781 10.816406 91.257812 10.507812 C 91.273438 10.441406 91.320312 10.34375 91.359375 10.289062 C 91.542969 10.039062 91.722656 9.683594 91.820312 9.382812 C 91.84375 9.3125 91.902344 9.171875 91.949219 9.070312 C 92 8.96875 92.058594 8.835938 92.078125 8.777344 C 92.101562 8.71875 92.183594 8.527344 92.265625 8.351562 C 92.347656 8.175781 92.414062 8.023438 92.414062 8.015625 C 92.414062 8.007812 92.453125 7.910156 92.503906 7.796875 C 92.609375 7.5625 92.609375 7.492188 92.511719 7.476562 C 92.425781 7.464844 92.386719 7.554688 92.457031 7.605469 C 92.5 7.640625 92.480469 7.691406 92.273438 8.125 C 92.148438 8.390625 92.011719 8.648438 91.976562 8.699219 C 91.898438 8.808594 91.765625 9.070312 91.730469 9.175781 C 91.71875 9.21875 91.667969 9.3125 91.621094 9.386719 C 91.570312 9.460938 91.507812 9.601562 91.472656 9.699219 C 91.441406 9.796875 91.394531 9.886719 91.371094 9.902344 C 91.328125 9.925781 91.246094 10.089844 91.074219 10.484375 C 91.035156 10.578125 90.957031 10.710938 90.90625 10.78125 C 90.851562 10.851562 90.804688 10.917969 90.804688 10.929688 C 90.804688 10.941406 90.765625 11.015625 90.714844 11.097656 C 90.664062 11.179688 90.625 11.261719 90.625 11.28125 C 90.625 11.371094 90.230469 11.976562 90.097656 12.09375 C 90.054688 12.132812 90.015625 12.183594 90.015625 12.207031 C 90.015625 12.230469 89.988281 12.277344 89.953125 12.308594 C 89.917969 12.339844 89.875 12.394531 89.863281 12.429688 C 89.847656 12.464844 89.796875 12.550781 89.75 12.625 C 89.605469 12.855469 89.410156 13.1875 89.410156 13.207031 C 89.410156 13.214844 89.429688 13.222656 89.457031 13.222656 C 89.492188 13.222656 89.488281 13.238281 89.445312 13.324219 C 89.414062 13.378906 89.378906 13.457031 89.367188 13.496094 C 89.355469 13.535156 89.296875 13.652344 89.238281 13.761719 C 89.175781 13.867188 89.101562 14.007812 89.070312 14.078125 C 89.035156 14.144531 88.96875 14.25 88.921875 14.308594 C 88.875 14.367188 88.835938 14.429688 88.835938 14.445312 C 88.835938 14.460938 88.789062 14.546875 88.730469 14.636719 C 88.671875 14.730469 88.621094 14.828125 88.621094 14.855469 C 88.621094 14.886719 88.589844 14.953125 88.550781 15.007812 C 88.472656 15.113281 88.351562 15.367188 88.351562 15.421875 C 88.351562 15.441406 88.316406 15.496094 88.277344 15.542969 C 88.203125 15.632812 87.984375 16.078125 87.984375 16.136719 C 87.984375 16.15625 88.007812 16.175781 88.035156 16.179688 C 88.074219 16.1875 88.058594 16.226562 87.960938 16.359375 C 87.882812 16.464844 87.835938 16.5625 87.835938 16.617188 C 87.835938 16.664062 87.832031 16.703125 87.828125 16.703125 C 87.824219 16.703125 87.683594 16.675781 87.515625 16.644531 C 87.066406 16.554688 86.789062 16.472656 86.6875 16.398438 C 86.636719 16.359375 86.550781 16.332031 86.496094 16.328125 C 86.125 16.328125 85.453125 16.191406 85.164062 16.058594 C 84.976562 15.972656 84.566406 15.839844 84.546875 15.855469 C 84.511719 15.890625 84.53125 15.921875 84.628906 15.980469 C 84.75 16.050781 84.859375 16.082031 85.046875 16.09375 C 85.128906 16.097656 85.222656 16.125 85.273438 16.164062 C 85.324219 16.199219 85.464844 16.261719 85.589844 16.296875 C 85.714844 16.335938 85.875 16.386719 85.941406 16.40625 C 86.007812 16.429688 86.191406 16.464844 86.34375 16.480469 C 86.5 16.5 86.644531 16.527344 86.664062 16.542969 C 86.679688 16.558594 86.773438 16.59375 86.863281 16.625 C 86.957031 16.65625 87.101562 16.710938 87.1875 16.75 C 87.324219 16.8125 87.621094 16.890625 87.734375 16.890625 C 87.753906 16.890625 87.773438 16.867188 87.773438 16.84375 C 87.773438 16.78125 87.9375 16.898438 88.089844 17.070312 C 88.152344 17.140625 88.222656 17.199219 88.242188 17.199219 C 88.261719 17.199219 88.332031 17.25 88.398438 17.308594 C 88.464844 17.367188 88.53125 17.414062 88.550781 17.417969 C 88.570312 17.417969 88.621094 17.34375 88.660156 17.253906 Z M 88.925781 16.246094 C 88.925781 16.230469 89.015625 16.027344 89.183594 15.660156 C 89.226562 15.578125 89.292969 15.410156 89.339844 15.289062 C 89.472656 14.929688 89.949219 13.914062 89.996094 13.882812 C 90.0625 13.84375 90.03125 13.933594 89.808594 14.390625 C 89.675781 14.664062 89.53125 14.984375 89.488281 15.101562 C 89.441406 15.222656 89.371094 15.410156 89.332031 15.523438 C 89.289062 15.632812 89.222656 15.78125 89.1875 15.847656 C 89.148438 15.917969 89.09375 16.039062 89.066406 16.121094 C 89.035156 16.203125 88.992188 16.269531 88.96875 16.269531 C 88.945312 16.269531 88.925781 16.257812 88.925781 16.246094 Z M 88.257812 17.332031 C 88.253906 17.320312 88.167969 17.242188 88.058594 17.164062 C 87.898438 17.042969 87.847656 17.019531 87.773438 17.035156 C 87.71875 17.046875 87.664062 17.035156 87.636719 17.015625 C 87.613281 16.992188 87.527344 16.964844 87.453125 16.949219 C 87.304688 16.921875 86.796875 16.734375 86.621094 16.640625 C 86.5625 16.613281 86.402344 16.578125 86.261719 16.566406 C 86.125 16.554688 85.964844 16.523438 85.90625 16.496094 C 85.84375 16.472656 85.71875 16.4375 85.625 16.417969 C 85.53125 16.402344 85.371094 16.34375 85.273438 16.292969 C 85.109375 16.207031 85.0625 16.199219 84.832031 16.203125 C 84.691406 16.207031 84.570312 16.214844 84.5625 16.222656 C 84.527344 16.257812 84.621094 16.304688 84.789062 16.332031 C 84.890625 16.347656 85.082031 16.410156 85.21875 16.46875 C 85.351562 16.53125 85.488281 16.578125 85.519531 16.578125 C 85.550781 16.578125 85.660156 16.609375 85.765625 16.640625 C 85.878906 16.675781 86.042969 16.703125 86.164062 16.703125 C 86.332031 16.703125 86.378906 16.714844 86.425781 16.765625 C 86.488281 16.839844 86.613281 16.875 86.933594 16.917969 C 87.121094 16.941406 87.183594 16.960938 87.246094 17.023438 C 87.285156 17.066406 87.382812 17.117188 87.464844 17.136719 C 87.78125 17.21875 87.976562 17.273438 88.09375 17.3125 C 88.238281 17.359375 88.257812 17.363281 88.257812 17.332031 Z M 86.347656 16.796875 C 86.347656 16.78125 86.324219 16.765625 86.296875 16.765625 C 86.25 16.765625 86.25 16.769531 86.289062 16.796875 C 86.34375 16.835938 86.347656 16.835938 86.347656 16.796875 Z M 87.664062 16.523438 C 87.695312 16.472656 87.5625 16.300781 87.496094 16.300781 C 87.445312 16.300781 87.4375 16.292969 87.46875 16.253906 C 87.488281 16.230469 87.542969 16.199219 87.59375 16.191406 C 87.644531 16.179688 87.6875 16.144531 87.699219 16.101562 C 87.710938 16.066406 87.785156 15.9375 87.863281 15.816406 C 87.941406 15.699219 88.035156 15.535156 88.070312 15.460938 C 88.371094 14.796875 88.449219 14.65625 88.578125 14.515625 C 88.808594 14.265625 88.894531 14.085938 88.988281 13.640625 C 89.019531 13.511719 89.058594 13.425781 89.125 13.355469 C 89.175781 13.300781 89.253906 13.179688 89.300781 13.085938 C 89.34375 12.992188 89.414062 12.875 89.457031 12.820312 C 89.5 12.769531 89.574219 12.644531 89.625 12.546875 C 89.671875 12.449219 89.796875 12.261719 89.902344 12.128906 C 90.203125 11.753906 90.359375 11.503906 90.558594 11.0625 C 90.613281 10.941406 90.6875 10.808594 90.726562 10.765625 C 90.808594 10.675781 90.941406 10.441406 90.972656 10.332031 C 90.984375 10.289062 91.050781 10.15625 91.121094 10.039062 C 91.1875 9.917969 91.296875 9.722656 91.355469 9.601562 C 91.621094 9.085938 91.683594 8.96875 91.804688 8.761719 C 91.878906 8.644531 91.953125 8.523438 91.972656 8.5 C 91.996094 8.472656 92.078125 8.328125 92.152344 8.175781 C 92.230469 8.027344 92.316406 7.871094 92.339844 7.828125 C 92.429688 7.6875 92.367188 7.667969 92.246094 7.800781 C 92.125 7.933594 91.835938 8.363281 91.835938 8.414062 C 91.835938 8.429688 91.785156 8.527344 91.722656 8.632812 C 91.660156 8.738281 91.589844 8.871094 91.5625 8.933594 C 91.539062 8.992188 91.453125 9.140625 91.378906 9.257812 C 91.300781 9.378906 91.210938 9.527344 91.179688 9.585938 C 91.128906 9.683594 90.792969 10.136719 90.738281 10.175781 C 90.726562 10.1875 90.695312 10.25 90.667969 10.316406 C 90.558594 10.589844 90.46875 10.761719 90.410156 10.8125 C 90.378906 10.84375 90.351562 10.890625 90.351562 10.910156 C 90.351562 10.933594 90.304688 11.023438 90.246094 11.109375 C 90.1875 11.195312 90.140625 11.269531 90.140625 11.277344 C 90.140625 11.3125 89.832031 11.824219 89.71875 11.980469 C 89.648438 12.070312 89.59375 12.171875 89.59375 12.199219 C 89.59375 12.226562 89.550781 12.304688 89.5 12.371094 C 89.445312 12.4375 89.359375 12.5625 89.304688 12.648438 C 89.246094 12.734375 89.160156 12.863281 89.109375 12.9375 C 89.058594 13.011719 88.992188 13.117188 88.960938 13.175781 C 88.933594 13.234375 88.824219 13.40625 88.722656 13.5625 C 88.617188 13.71875 88.53125 13.855469 88.53125 13.871094 C 88.53125 13.902344 88.128906 14.535156 87.917969 14.835938 C 87.832031 14.964844 87.726562 15.132812 87.691406 15.210938 C 87.574219 15.449219 87.390625 15.738281 87.332031 15.78125 C 87.300781 15.804688 87.191406 15.832031 87.089844 15.84375 C 86.992188 15.855469 86.875 15.890625 86.832031 15.921875 C 86.710938 16.011719 86.617188 16.023438 86.546875 15.957031 C 86.5 15.914062 86.421875 15.894531 86.242188 15.878906 L 86 15.863281 L 86.105469 15.921875 C 86.164062 15.953125 86.28125 15.992188 86.363281 16.003906 C 86.445312 16.015625 86.554688 16.042969 86.605469 16.066406 C 86.828125 16.164062 86.957031 16.203125 87.128906 16.222656 C 87.355469 16.25 87.40625 16.277344 87.351562 16.34375 C 87.324219 16.375 87.285156 16.386719 87.230469 16.371094 C 87.058594 16.332031 86.84375 16.261719 86.726562 16.207031 C 86.660156 16.175781 86.511719 16.132812 86.394531 16.109375 C 86.28125 16.089844 86.113281 16.039062 86.023438 16 C 85.933594 15.960938 85.828125 15.925781 85.792969 15.925781 C 85.753906 15.925781 85.589844 15.878906 85.425781 15.820312 C 85.210938 15.742188 85.039062 15.703125 84.796875 15.679688 C 84.617188 15.664062 84.429688 15.628906 84.378906 15.601562 C 84.328125 15.574219 84.253906 15.554688 84.210938 15.554688 C 84.167969 15.554688 84.101562 15.539062 84.066406 15.519531 C 84.03125 15.5 83.863281 15.445312 83.691406 15.398438 C 83.519531 15.351562 83.296875 15.269531 83.1875 15.214844 C 83.082031 15.164062 82.941406 15.105469 82.875 15.089844 C 82.554688 15.015625 82.382812 14.957031 82.300781 14.894531 C 82.222656 14.835938 82.175781 14.824219 81.996094 14.828125 C 81.789062 14.832031 81.496094 14.90625 81.410156 14.976562 C 81.363281 15.011719 81.222656 15.3125 81.222656 15.371094 C 81.222656 15.386719 81.300781 15.316406 81.398438 15.214844 C 81.511719 15.089844 81.597656 15.023438 81.640625 15.023438 C 81.679688 15.023438 81.746094 15.003906 81.785156 14.976562 C 81.855469 14.929688 81.867188 14.929688 81.964844 14.976562 C 82.019531 15.003906 82.089844 15.023438 82.121094 15.023438 C 82.152344 15.023438 82.246094 15.050781 82.328125 15.085938 C 82.414062 15.117188 82.597656 15.1875 82.738281 15.242188 C 82.882812 15.296875 83.039062 15.363281 83.089844 15.390625 C 83.136719 15.417969 83.21875 15.460938 83.269531 15.484375 C 83.320312 15.511719 83.457031 15.554688 83.574219 15.578125 C 83.691406 15.597656 83.847656 15.632812 83.921875 15.644531 C 83.996094 15.660156 84.117188 15.675781 84.1875 15.675781 C 84.257812 15.675781 84.359375 15.699219 84.414062 15.722656 C 84.46875 15.746094 84.601562 15.789062 84.710938 15.816406 C 84.921875 15.875 85.425781 16.039062 85.652344 16.128906 C 85.730469 16.160156 85.972656 16.199219 86.226562 16.21875 C 86.648438 16.253906 86.757812 16.285156 86.867188 16.382812 C 86.894531 16.40625 87.058594 16.453125 87.230469 16.484375 C 87.613281 16.550781 87.644531 16.554688 87.664062 16.523438 Z M 87.847656 16.28125 C 87.925781 16.117188 87.890625 16.09375 87.777344 16.238281 C 87.71875 16.3125 87.683594 16.382812 87.695312 16.414062 C 87.71875 16.480469 87.78125 16.425781 87.847656 16.28125 Z M 81.671875 16.09375 C 81.640625 16.066406 81.585938 16.113281 81.605469 16.148438 C 81.617188 16.171875 81.636719 16.167969 81.65625 16.148438 C 81.675781 16.128906 81.679688 16.105469 81.671875 16.09375 Z M 84.285156 16.144531 C 84.285156 16.113281 84.007812 16.019531 83.90625 16.019531 C 83.871094 16.019531 83.75 15.96875 83.640625 15.910156 C 83.441406 15.800781 83.367188 15.785156 83.269531 15.824219 C 83.199219 15.847656 83.519531 16.003906 83.710938 16.035156 C 83.785156 16.046875 83.859375 16.066406 83.878906 16.082031 C 83.976562 16.15625 84.285156 16.207031 84.285156 16.144531 Z M 84.710938 16.082031 C 84.710938 16.003906 84.316406 15.886719 84.273438 15.953125 C 84.265625 15.96875 84.308594 16.011719 84.371094 16.042969 C 84.492188 16.109375 84.710938 16.132812 84.710938 16.082031 Z M 84.089844 15.894531 C 84.027344 15.824219 84.0625 15.816406 84.175781 15.875 C 84.261719 15.921875 84.417969 15.90625 84.398438 15.855469 C 84.382812 15.800781 84.15625 15.734375 84.050781 15.753906 C 83.996094 15.765625 83.929688 15.757812 83.898438 15.742188 C 83.867188 15.726562 83.699219 15.683594 83.527344 15.644531 C 83.351562 15.609375 83.191406 15.5625 83.164062 15.539062 C 83.101562 15.480469 82.429688 15.226562 82.222656 15.179688 C 82.132812 15.160156 82.011719 15.121094 81.957031 15.09375 C 81.878906 15.050781 81.847656 15.046875 81.800781 15.078125 C 81.765625 15.101562 81.722656 15.117188 81.699219 15.117188 C 81.636719 15.117188 81.40625 15.285156 81.40625 15.328125 C 81.40625 15.375 81.457031 15.363281 81.644531 15.285156 C 81.777344 15.230469 81.855469 15.230469 81.992188 15.289062 C 82.050781 15.316406 82.152344 15.335938 82.21875 15.335938 C 82.292969 15.335938 82.367188 15.363281 82.4375 15.414062 C 82.492188 15.457031 82.566406 15.492188 82.59375 15.492188 C 82.625 15.492188 82.761719 15.535156 82.898438 15.589844 C 83.035156 15.644531 83.238281 15.695312 83.347656 15.707031 C 83.476562 15.71875 83.582031 15.75 83.660156 15.800781 C 83.804688 15.890625 83.972656 15.953125 84.070312 15.957031 C 84.140625 15.957031 84.144531 15.957031 84.089844 15.894531 Z M 79.917969 15.839844 C 79.917969 15.753906 79.859375 15.707031 79.746094 15.707031 C 79.617188 15.707031 79.617188 15.773438 79.746094 15.839844 C 79.875 15.90625 79.917969 15.90625 79.917969 15.839844 Z M 88.074219 15.757812 C 88.074219 15.738281 88.054688 15.75 88.03125 15.785156 C 88.007812 15.816406 87.984375 15.859375 87.988281 15.878906 C 87.988281 15.894531 88.007812 15.882812 88.03125 15.851562 C 88.058594 15.816406 88.078125 15.773438 88.074219 15.757812 Z M 86.777344 15.785156 C 86.851562 15.722656 86.902344 15.707031 87.035156 15.707031 C 87.179688 15.707031 87.210938 15.695312 87.292969 15.609375 C 87.34375 15.558594 87.4375 15.402344 87.503906 15.265625 C 87.566406 15.128906 87.65625 14.96875 87.703125 14.90625 C 87.859375 14.703125 88.632812 13.476562 88.75 13.253906 C 88.789062 13.175781 88.910156 12.984375 89.019531 12.828125 C 89.257812 12.476562 89.574219 11.976562 89.714844 11.714844 C 89.773438 11.609375 89.863281 11.457031 89.910156 11.375 C 90.175781 10.953125 90.253906 10.8125 90.417969 10.488281 C 90.515625 10.289062 90.648438 10.066406 90.710938 9.988281 C 90.871094 9.796875 91.257812 9.167969 91.457031 8.785156 C 91.6875 8.34375 91.898438 7.992188 92.050781 7.796875 C 92.308594 7.472656 92.4375 7.261719 92.488281 7.085938 C 92.546875 6.886719 92.519531 6.855469 92.277344 6.839844 C 91.972656 6.820312 91.796875 6.78125 91.625 6.703125 C 91.53125 6.660156 91.34375 6.605469 91.203125 6.582031 C 91.0625 6.558594 90.933594 6.527344 90.914062 6.511719 C 90.851562 6.457031 90.480469 6.328125 90.246094 6.277344 C 90.113281 6.246094 89.925781 6.195312 89.828125 6.164062 C 89.734375 6.132812 89.613281 6.105469 89.566406 6.105469 C 89.515625 6.105469 89.378906 6.070312 89.257812 6.023438 C 89.140625 5.980469 88.976562 5.925781 88.898438 5.902344 C 88.757812 5.863281 88.375 5.710938 88.144531 5.605469 C 88.074219 5.574219 87.953125 5.546875 87.878906 5.546875 C 87.808594 5.546875 87.710938 5.53125 87.667969 5.515625 C 87.527344 5.460938 87.273438 5.464844 87.15625 5.523438 C 87.097656 5.554688 86.996094 5.601562 86.933594 5.628906 C 86.75 5.707031 86.699219 5.738281 86.457031 5.914062 C 86.332031 6.003906 86.222656 6.101562 86.210938 6.132812 C 86.203125 6.160156 86.132812 6.230469 86.0625 6.292969 C 85.984375 6.355469 85.910156 6.453125 85.882812 6.527344 C 85.855469 6.597656 85.8125 6.679688 85.785156 6.710938 C 85.683594 6.847656 85.597656 7 85.582031 7.070312 C 85.570312 7.113281 85.511719 7.222656 85.453125 7.316406 C 85.394531 7.410156 85.304688 7.566406 85.253906 7.664062 C 85.207031 7.761719 85.152344 7.851562 85.136719 7.859375 C 85.121094 7.871094 85.058594 7.984375 84.996094 8.109375 C 84.9375 8.238281 84.878906 8.34375 84.867188 8.34375 C 84.824219 8.34375 84.65625 8.632812 84.636719 8.742188 C 84.609375 8.859375 84.472656 9.117188 84.359375 9.253906 C 84.320312 9.300781 84.285156 9.355469 84.285156 9.371094 C 84.285156 9.386719 84.21875 9.5 84.136719 9.625 C 84 9.835938 83.886719 10.03125 83.738281 10.316406 C 83.703125 10.382812 83.648438 10.464844 83.617188 10.496094 C 83.585938 10.527344 83.550781 10.585938 83.539062 10.628906 C 83.527344 10.675781 83.488281 10.742188 83.449219 10.78125 C 83.414062 10.820312 83.367188 10.910156 83.347656 10.980469 C 83.328125 11.050781 83.300781 11.109375 83.285156 11.109375 C 83.269531 11.109375 83.242188 11.144531 83.21875 11.1875 C 83.199219 11.226562 83.140625 11.34375 83.089844 11.441406 C 83.039062 11.539062 82.945312 11.6875 82.882812 11.773438 C 82.820312 11.855469 82.769531 11.9375 82.769531 11.957031 C 82.769531 11.976562 82.730469 12.042969 82.683594 12.101562 C 82.632812 12.160156 82.558594 12.28125 82.515625 12.371094 C 82.433594 12.542969 82.359375 12.660156 82.214844 12.851562 C 82.171875 12.914062 82.132812 12.976562 82.132812 12.992188 C 82.132812 13.03125 81.972656 13.261719 81.839844 13.414062 C 81.722656 13.554688 81.628906 13.738281 81.566406 13.949219 C 81.539062 14.035156 81.453125 14.210938 81.367188 14.339844 C 81.203125 14.59375 81.054688 14.894531 81.082031 14.921875 C 81.113281 14.953125 81.191406 14.867188 81.191406 14.804688 C 81.191406 14.746094 81.457031 14.492188 81.601562 14.410156 C 81.664062 14.378906 81.773438 14.359375 81.9375 14.359375 C 82.1875 14.359375 82.34375 14.402344 82.453125 14.5 C 82.484375 14.527344 82.566406 14.582031 82.632812 14.617188 C 82.996094 14.808594 83.136719 14.863281 83.375 14.898438 C 83.550781 14.925781 83.695312 14.96875 83.84375 15.046875 C 83.960938 15.109375 84.167969 15.191406 84.300781 15.230469 C 84.578125 15.308594 84.746094 15.367188 85.085938 15.496094 C 85.214844 15.542969 85.347656 15.585938 85.375 15.585938 C 85.40625 15.585938 85.492188 15.613281 85.5625 15.644531 C 85.644531 15.679688 85.777344 15.707031 85.902344 15.710938 C 86.019531 15.714844 86.183594 15.738281 86.269531 15.757812 C 86.355469 15.78125 86.480469 15.8125 86.546875 15.828125 C 86.613281 15.84375 86.671875 15.859375 86.675781 15.859375 C 86.683594 15.863281 86.730469 15.828125 86.777344 15.785156 Z M 83.105469 15.808594 C 83.105469 15.765625 82.832031 15.652344 82.628906 15.601562 C 82.523438 15.578125 82.398438 15.53125 82.351562 15.496094 C 82.296875 15.457031 82.214844 15.429688 82.148438 15.429688 C 82.089844 15.429688 81.984375 15.402344 81.917969 15.367188 C 81.804688 15.304688 81.792969 15.304688 81.648438 15.355469 C 81.535156 15.390625 81.496094 15.421875 81.503906 15.457031 C 81.511719 15.496094 81.554688 15.507812 81.710938 15.507812 C 81.816406 15.507812 81.953125 15.527344 82.011719 15.550781 C 82.253906 15.644531 82.339844 15.671875 82.574219 15.71875 C 82.707031 15.746094 82.863281 15.78125 82.921875 15.796875 C 83.0625 15.835938 83.105469 15.839844 83.105469 15.808594 Z M 88.105469 15.675781 C 88.105469 15.660156 88.101562 15.648438 88.09375 15.648438 C 88.085938 15.648438 88.070312 15.660156 88.0625 15.675781 C 88.050781 15.695312 88.058594 15.707031 88.074219 15.707031 C 88.09375 15.707031 88.105469 15.695312 88.105469 15.675781 Z M 84.976562 15.578125 C 84.96875 15.554688 84.90625 15.527344 84.832031 15.515625 C 84.761719 15.503906 84.617188 15.453125 84.515625 15.402344 C 84.414062 15.355469 84.261719 15.304688 84.183594 15.292969 C 84.023438 15.265625 83.78125 15.167969 83.707031 15.097656 C 83.679688 15.074219 83.507812 15.027344 83.324219 14.996094 C 82.992188 14.9375 82.796875 14.875 82.710938 14.792969 C 82.574219 14.671875 82.035156 14.433594 81.890625 14.433594 C 81.769531 14.433594 81.402344 14.664062 81.296875 14.804688 C 81.238281 14.878906 81.191406 14.949219 81.191406 14.964844 C 81.191406 14.976562 81.167969 14.992188 81.132812 15.003906 C 81.085938 15.015625 81.070312 15.046875 81.070312 15.128906 C 81.070312 15.347656 81.1875 15.300781 81.269531 15.054688 C 81.320312 14.894531 81.460938 14.777344 81.601562 14.777344 C 81.644531 14.777344 81.707031 14.765625 81.746094 14.75 C 81.785156 14.734375 81.886719 14.703125 81.972656 14.683594 L 82.132812 14.644531 L 82.289062 14.761719 C 82.457031 14.890625 82.722656 14.992188 82.878906 14.992188 C 82.984375 14.992188 83.136719 15.042969 83.164062 15.085938 C 83.207031 15.152344 83.71875 15.335938 83.871094 15.335938 C 83.910156 15.335938 83.988281 15.363281 84.050781 15.398438 C 84.113281 15.433594 84.183594 15.460938 84.207031 15.460938 C 84.230469 15.460938 84.347656 15.496094 84.472656 15.535156 C 84.714844 15.621094 84.996094 15.640625 84.976562 15.578125 Z M 88.285156 15.351562 C 88.273438 15.339844 88.257812 15.359375 88.246094 15.390625 C 88.230469 15.433594 88.234375 15.4375 88.261719 15.40625 C 88.285156 15.386719 88.292969 15.359375 88.285156 15.351562 Z M 79.382812 15.253906 C 79.363281 15.246094 79.320312 15.246094 79.292969 15.253906 C 79.261719 15.261719 79.277344 15.265625 79.328125 15.265625 C 79.378906 15.269531 79.402344 15.261719 79.382812 15.253906 Z M 80.804688 15.136719 C 80.792969 15.007812 80.65625 14.816406 80.546875 14.773438 C 80.375 14.703125 80.105469 14.519531 80.085938 14.460938 C 80.074219 14.429688 80.054688 14.402344 80.042969 14.402344 C 80.027344 14.402344 79.953125 14.347656 79.878906 14.28125 L 79.742188 14.160156 L 79.308594 14.171875 C 79.070312 14.175781 78.636719 14.191406 78.34375 14.203125 C 78.050781 14.21875 77.777344 14.226562 77.738281 14.226562 C 77.695312 14.222656 77.484375 14.222656 77.265625 14.222656 C 77.050781 14.222656 76.777344 14.222656 76.660156 14.21875 C 76.359375 14.207031 75.789062 14.207031 75.523438 14.21875 C 75.265625 14.230469 74.964844 14.175781 74.769531 14.082031 L 74.632812 14.019531 L 74.566406 14.097656 C 74.53125 14.144531 74.46875 14.195312 74.433594 14.214844 C 74.386719 14.242188 74.371094 14.273438 74.378906 14.3125 C 74.390625 14.347656 74.375 14.398438 74.34375 14.429688 C 74.28125 14.488281 74.246094 14.597656 74.277344 14.644531 C 74.300781 14.683594 75.898438 14.640625 76.175781 14.59375 C 76.273438 14.574219 76.609375 14.554688 76.914062 14.542969 C 77.222656 14.53125 77.496094 14.511719 77.523438 14.5 C 77.546875 14.484375 77.742188 14.464844 77.949219 14.457031 C 78.15625 14.445312 78.484375 14.421875 78.675781 14.402344 C 79.257812 14.347656 79.699219 14.453125 80.007812 14.714844 C 80.066406 14.765625 80.207031 14.851562 80.320312 14.910156 C 80.429688 14.96875 80.574219 15.070312 80.636719 15.132812 C 80.765625 15.257812 80.820312 15.261719 80.804688 15.136719 Z M 88.5 14.953125 C 88.574219 14.824219 88.589844 14.703125 88.519531 14.777344 C 88.457031 14.839844 88.371094 15.054688 88.40625 15.054688 C 88.421875 15.054688 88.464844 15.007812 88.5 14.953125 Z M 89.320312 13.480469 C 89.320312 13.457031 89.339844 13.394531 89.367188 13.34375 C 89.390625 13.292969 89.402344 13.253906 89.390625 13.253906 C 89.359375 13.253906 89.199219 13.460938 89.199219 13.5 C 89.199219 13.515625 89.171875 13.574219 89.140625 13.628906 C 89.109375 13.683594 89.089844 13.746094 89.097656 13.773438 C 89.117188 13.820312 89.320312 13.554688 89.320312 13.480469 Z M 92.109375 9.191406 C 92.160156 9.089844 92.199219 8.992188 92.199219 8.980469 C 92.199219 8.96875 92.21875 8.914062 92.246094 8.859375 C 92.269531 8.804688 92.324219 8.664062 92.367188 8.542969 C 92.414062 8.425781 92.480469 8.242188 92.519531 8.140625 C 92.558594 8.039062 92.582031 7.949219 92.578125 7.941406 C 92.542969 7.90625 92.476562 8.035156 92.402344 8.265625 C 92.355469 8.402344 92.292969 8.550781 92.261719 8.597656 C 92.230469 8.640625 92.195312 8.71875 92.183594 8.765625 C 92.160156 8.855469 92.066406 9.082031 91.957031 9.324219 C 91.925781 9.394531 91.898438 9.46875 91.898438 9.496094 C 91.898438 9.5625 92.007812 9.410156 92.109375 9.191406 Z M 80.761719 14.617188 C 80.699219 14.566406 80.648438 14.503906 80.648438 14.476562 C 80.648438 14.410156 80.691406 14.425781 80.769531 14.519531 C 80.804688 14.566406 80.859375 14.628906 80.882812 14.660156 C 80.957031 14.746094 80.886719 14.722656 80.761719 14.617188 Z M 80.890625 14.417969 C 80.808594 14.332031 80.832031 14.273438 80.914062 14.351562 C 80.945312 14.378906 80.988281 14.402344 81.007812 14.402344 C 81.027344 14.402344 81.042969 14.425781 81.042969 14.449219 C 81.042969 14.519531 80.96875 14.507812 80.890625 14.417969 Z M 81.03125 14.148438 C 80.976562 14.011719 81.023438 13.957031 81.101562 14.0625 C 81.136719 14.105469 81.160156 14.164062 81.164062 14.195312 C 81.164062 14.285156 81.074219 14.253906 81.03125 14.148438 Z M 81.183594 13.917969 C 81.175781 13.910156 81.175781 13.878906 81.183594 13.855469 C 81.195312 13.820312 81.210938 13.820312 81.242188 13.847656 C 81.265625 13.867188 81.285156 13.894531 81.285156 13.910156 C 81.285156 13.941406 81.214844 13.945312 81.183594 13.917969 Z M 81.316406 13.707031 C 81.316406 13.683594 81.304688 13.640625 81.296875 13.613281 C 81.285156 13.582031 81.292969 13.5625 81.324219 13.5625 C 81.371094 13.5625 81.40625 13.625 81.40625 13.707031 C 81.40625 13.730469 81.386719 13.75 81.359375 13.75 C 81.335938 13.75 81.316406 13.730469 81.316406 13.707031 Z M 81.496094 13.410156 C 81.457031 13.332031 81.457031 13.316406 81.507812 13.316406 C 81.546875 13.316406 81.585938 13.378906 81.585938 13.441406 C 81.585938 13.492188 81.53125 13.472656 81.496094 13.410156 Z M 81.628906 13.144531 C 81.621094 13.101562 81.621094 13.054688 81.632812 13.042969 C 81.65625 13.015625 81.742188 13.128906 81.730469 13.171875 C 81.707031 13.238281 81.648438 13.222656 81.628906 13.144531 Z M 81.789062 12.925781 C 81.761719 12.851562 81.765625 12.757812 81.796875 12.757812 C 81.820312 12.757812 81.890625 12.890625 81.890625 12.945312 C 81.890625 12.992188 81.808594 12.976562 81.789062 12.925781 Z M 81.921875 12.617188 C 81.921875 12.488281 81.957031 12.476562 82.007812 12.585938 C 82.054688 12.699219 82.050781 12.726562 81.980469 12.726562 C 81.933594 12.726562 81.921875 12.703125 81.921875 12.617188 Z M 82.105469 12.355469 C 82.0625 12.273438 82.066406 12.257812 82.113281 12.257812 C 82.15625 12.257812 82.195312 12.320312 82.195312 12.386719 C 82.195312 12.4375 82.136719 12.417969 82.105469 12.355469 Z M 82.386719 11.746094 C 82.375 11.71875 82.375 11.691406 82.382812 11.683594 C 82.410156 11.652344 82.496094 11.707031 82.496094 11.75 C 82.496094 11.808594 82.410156 11.804688 82.386719 11.746094 Z M 82.578125 11.523438 C 82.546875 11.492188 82.554688 11.359375 82.585938 11.359375 C 82.609375 11.359375 82.621094 11.382812 82.644531 11.496094 C 82.65625 11.535156 82.605469 11.554688 82.578125 11.523438 Z M 82.8125 11.238281 C 82.761719 11.207031 82.734375 11.085938 82.769531 11.0625 C 82.785156 11.050781 82.816406 11.082031 82.832031 11.128906 C 82.867188 11.226562 82.859375 11.273438 82.8125 11.238281 Z M 82.988281 10.921875 C 82.914062 10.859375 82.902344 10.796875 82.964844 10.796875 C 83.011719 10.796875 83.085938 10.90625 83.066406 10.953125 C 83.0625 10.96875 83.027344 10.953125 82.988281 10.921875 Z M 83.195312 10.535156 C 83.175781 10.507812 83.167969 10.464844 83.175781 10.4375 C 83.191406 10.398438 83.203125 10.394531 83.242188 10.425781 C 83.289062 10.46875 83.300781 10.535156 83.257812 10.5625 C 83.242188 10.570312 83.214844 10.558594 83.195312 10.535156 Z M 83.355469 10.191406 C 83.347656 10.164062 83.34375 10.136719 83.351562 10.128906 C 83.378906 10.101562 83.46875 10.152344 83.46875 10.195312 C 83.46875 10.253906 83.378906 10.25 83.355469 10.191406 Z M 83.539062 9.847656 C 83.527344 9.824219 83.527344 9.792969 83.539062 9.785156 C 83.5625 9.757812 83.683594 9.835938 83.664062 9.867188 C 83.636719 9.914062 83.558594 9.902344 83.539062 9.847656 Z M 83.710938 9.492188 C 83.710938 9.457031 83.730469 9.429688 83.753906 9.429688 C 83.78125 9.429688 83.800781 9.457031 83.800781 9.492188 C 83.800781 9.527344 83.78125 9.554688 83.753906 9.554688 C 83.730469 9.554688 83.710938 9.527344 83.710938 9.492188 Z M 83.902344 9.167969 C 83.894531 9.140625 83.894531 9.109375 83.90625 9.097656 C 83.929688 9.070312 84.03125 9.132812 84.023438 9.167969 C 84.011719 9.21875 83.921875 9.21875 83.902344 9.167969 Z M 84.203125 8.851562 C 84.144531 8.828125 84.152344 8.589844 84.210938 8.589844 C 84.246094 8.589844 84.257812 8.628906 84.257812 8.730469 C 84.257812 8.808594 84.253906 8.871094 84.25 8.867188 C 84.246094 8.867188 84.222656 8.859375 84.203125 8.851562 Z M 84.433594 8.4375 C 84.429688 8.367188 84.425781 8.296875 84.425781 8.28125 C 84.425781 8.261719 84.4375 8.246094 84.449219 8.242188 C 84.488281 8.230469 84.535156 8.40625 84.515625 8.492188 C 84.488281 8.605469 84.4375 8.570312 84.433594 8.4375 Z M 84.667969 8.089844 C 84.640625 7.941406 84.644531 7.871094 84.6875 7.882812 C 84.726562 7.898438 84.757812 8.1875 84.714844 8.1875 C 84.699219 8.1875 84.679688 8.144531 84.667969 8.089844 Z M 84.90625 7.652344 C 84.878906 7.582031 84.898438 7.496094 84.945312 7.480469 C 84.992188 7.464844 84.996094 7.589844 84.953125 7.65625 C 84.929688 7.699219 84.925781 7.695312 84.90625 7.652344 Z M 85.082031 7.21875 C 85.089844 7.109375 85.164062 7.054688 85.164062 7.15625 C 85.164062 7.242188 85.136719 7.316406 85.101562 7.316406 C 85.085938 7.316406 85.074219 7.273438 85.082031 7.21875 Z M 85.257812 6.789062 C 85.257812 6.773438 85.269531 6.757812 85.289062 6.757812 C 85.304688 6.757812 85.316406 6.773438 85.316406 6.789062 C 85.316406 6.804688 85.304688 6.820312 85.289062 6.820312 C 85.269531 6.820312 85.257812 6.804688 85.257812 6.789062 Z M 85.257812 6.789062 " fill-opacity="1" fill-rule="nonzero"/></g></svg>