<svg xmlns="http://www.w3.org/2000/svg" xmlns:xlink="http://www.w3.org/1999/xlink" width="40" zoomAndPan="magnify" viewBox="0 0 30 30.000001" height="40" preserveAspectRatio="xMidYMid meet" version="1.0"><defs><clipPath id="2371a48d73"><path d="M 7.664062 0 L 22.316406 0 L 22.316406 29 L 7.664062 29 Z M 7.664062 0 " clip-rule="nonzero"/></clipPath><clipPath id="a2ad34c637"><path d="M 8.660156 0.851562 L 21.320312 0.851562 L 21.320312 28.234375 L 8.660156 28.234375 Z M 8.660156 0.851562 " clip-rule="nonzero"/></clipPath><clipPath id="423b73e949"><path d="M 20.132812 0.875 L 18.609375 0.875 L 18.609375 1.195312 C 18.609375 1.558594 18.3125 1.855469 17.949219 1.855469 L 12.074219 1.855469 C 11.710938 1.855469 11.410156 1.558594 11.410156 1.195312 L 11.410156 0.875 L 9.875 0.875 C 9.226562 0.875 8.703125 1.402344 8.703125 2.046875 L 8.703125 27.011719 C 8.703125 27.660156 9.226562 28.1875 9.875 28.1875 L 20.132812 28.1875 C 20.777344 28.1875 21.304688 27.660156 21.304688 27.011719 L 21.304688 2.046875 C 21.3125 1.402344 20.785156 0.875 20.132812 0.875 Z M 20.132812 0.875 " clip-rule="nonzero"/></clipPath><clipPath id="3ec045b43a"><path d="M 7.664062 3 L 8 3 L 8 6 L 7.664062 6 Z M 7.664062 3 " clip-rule="nonzero"/></clipPath><clipPath id="e71cfc667b"><path d="M 7.664062 5 L 8 5 L 8 9 L 7.664062 9 Z M 7.664062 5 " clip-rule="nonzero"/></clipPath><clipPath id="66c45744d8"><path d="M 7.664062 8 L 8 8 L 8 11 L 7.664062 11 Z M 7.664062 8 " clip-rule="nonzero"/></clipPath><clipPath id="d434bcb456"><path d="M 22 6 L 22.316406 6 L 22.316406 11 L 22 11 Z M 22 6 " clip-rule="nonzero"/></clipPath><clipPath id="67e88cd7b2"><path d="M 7.664062 0 L 22.316406 0 L 22.316406 29.019531 L 7.664062 29.019531 Z M 7.664062 0 " clip-rule="nonzero"/></clipPath><clipPath id="c67a377b5e"><path d="M 8.757812 8.273438 L 21.097656 8.273438 L 21.097656 20.613281 L 8.757812 20.613281 Z M 8.757812 8.273438 " clip-rule="nonzero"/></clipPath></defs><g clip-path="url(#2371a48d73)"><path fill="#000000" d="M 20.035156 0.140625 L 9.945312 0.140625 C 8.851562 0.140625 7.960938 1.03125 7.960938 2.125 L 7.960938 26.886719 C 7.960938 27.980469 8.851562 28.867188 9.945312 28.867188 L 20.035156 28.867188 C 21.128906 28.867188 22.015625 27.980469 22.015625 26.886719 L 22.015625 2.125 C 22.015625 1.03125 21.128906 0.140625 20.035156 0.140625 Z M 16.675781 1.050781 C 16.777344 1.050781 16.855469 1.128906 16.855469 1.230469 C 16.855469 1.328125 16.777344 1.40625 16.675781 1.40625 C 16.578125 1.40625 16.5 1.328125 16.5 1.230469 C 16.5 1.128906 16.582031 1.050781 16.675781 1.050781 Z M 14.054688 1.109375 L 15.761719 1.109375 C 15.824219 1.109375 15.878906 1.160156 15.878906 1.230469 C 15.878906 1.300781 15.824219 1.351562 15.761719 1.351562 L 14.054688 1.351562 C 13.992188 1.351562 13.933594 1.300781 13.933594 1.230469 C 13.933594 1.160156 13.992188 1.109375 14.054688 1.109375 Z M 21.292969 27 C 21.292969 27.644531 20.765625 28.171875 20.121094 28.171875 L 9.871094 28.171875 C 9.226562 28.171875 8.699219 27.644531 8.699219 27 L 8.699219 2.046875 C 8.699219 1.402344 9.226562 0.875 9.871094 0.875 L 11.398438 0.875 L 11.398438 1.195312 C 11.398438 1.558594 11.699219 1.855469 12.058594 1.855469 L 17.933594 1.855469 C 18.296875 1.855469 18.59375 1.558594 18.59375 1.195312 L 18.59375 0.875 L 20.113281 0.875 C 20.757812 0.875 21.285156 1.402344 21.285156 2.046875 L 21.285156 27 Z M 21.292969 27 " fill-opacity="1" fill-rule="nonzero"/></g><g clip-path="url(#a2ad34c637)"><g clip-path="url(#423b73e949)"><path fill="#0e0e0e" d="M 7.664062 0 L 22.316406 0 L 22.316406 29.019531 L 7.664062 29.019531 Z M 7.664062 0 " fill-opacity="1" fill-rule="nonzero"/></g></g><path fill="#555555" d="M 15.761719 1.109375 L 14.054688 1.109375 C 13.992188 1.109375 13.933594 1.160156 13.933594 1.230469 C 13.933594 1.300781 13.992188 1.351562 14.054688 1.351562 L 15.761719 1.351562 C 15.824219 1.351562 15.878906 1.300781 15.878906 1.230469 C 15.878906 1.160156 15.824219 1.109375 15.761719 1.109375 Z M 15.761719 1.109375 " fill-opacity="1" fill-rule="nonzero"/><path fill="#555555" d="M 16.675781 1.050781 C 16.558594 1.050781 16.5 1.109375 16.5 1.230469 C 16.5 1.347656 16.558594 1.40625 16.675781 1.40625 C 16.792969 1.40625 16.855469 1.347656 16.855469 1.230469 C 16.855469 1.109375 16.792969 1.050781 16.675781 1.050781 Z M 16.675781 1.050781 " fill-opacity="1" fill-rule="nonzero"/><g clip-path="url(#3ec045b43a)"><path fill="#2e2e2e" d="M 7.664062 3.988281 L 7.664062 4.875 C 7.664062 4.960938 7.734375 5.03125 7.820312 5.03125 L 7.820312 3.839844 C 7.734375 3.839844 7.664062 3.902344 7.664062 3.988281 Z M 7.664062 3.988281 " fill-opacity="1" fill-rule="nonzero"/></g><g clip-path="url(#e71cfc667b)"><path fill="#2e2e2e" d="M 7.664062 6.070312 L 7.664062 7.917969 C 7.664062 8.003906 7.734375 8.074219 7.820312 8.074219 L 7.820312 5.921875 C 7.734375 5.921875 7.664062 5.984375 7.664062 6.070312 Z M 7.664062 6.070312 " fill-opacity="1" fill-rule="nonzero"/></g><g clip-path="url(#66c45744d8)"><path fill="#2e2e2e" d="M 7.664062 8.699219 L 7.664062 10.550781 C 7.664062 10.632812 7.734375 10.707031 7.820312 10.707031 L 7.820312 8.542969 C 7.734375 8.542969 7.664062 8.617188 7.664062 8.699219 Z M 7.664062 8.699219 " fill-opacity="1" fill-rule="nonzero"/></g><g clip-path="url(#d434bcb456)"><path fill="#2e2e2e" d="M 22.160156 6.632812 L 22.160156 10.09375 C 22.242188 10.09375 22.316406 10.023438 22.316406 9.9375 L 22.316406 6.789062 C 22.316406 6.703125 22.242188 6.632812 22.160156 6.632812 Z M 22.160156 6.632812 " fill-opacity="1" fill-rule="nonzero"/></g><g clip-path="url(#67e88cd7b2)"><path fill="#555555" d="M 22.160156 6.632812 L 22.160156 2.125 C 22.160156 1.976562 22.144531 1.835938 22.117188 1.699219 C 22.101562 1.628906 22.085938 1.5625 22.066406 1.492188 C 22.039062 1.394531 21.996094 1.292969 21.953125 1.203125 C 21.925781 1.136719 21.890625 1.082031 21.851562 1.023438 C 21.816406 0.964844 21.78125 0.910156 21.738281 0.851562 C 21.675781 0.769531 21.613281 0.695312 21.539062 0.617188 C 21.492188 0.570312 21.441406 0.527344 21.390625 0.484375 C 21.023438 0.175781 20.554688 0 20.042969 0 L 9.945312 0 C 9.433594 0 8.957031 0.183594 8.59375 0.484375 C 8.542969 0.527344 8.496094 0.574219 8.445312 0.617188 C 8.375 0.691406 8.304688 0.769531 8.246094 0.851562 C 8.203125 0.910156 8.167969 0.964844 8.132812 1.023438 C 8.097656 1.082031 8.0625 1.144531 8.03125 1.203125 C 7.984375 1.300781 7.949219 1.394531 7.914062 1.492188 C 7.890625 1.5625 7.875 1.628906 7.863281 1.699219 C 7.835938 1.835938 7.820312 1.984375 7.820312 2.125 L 7.820312 26.886719 C 7.820312 28.058594 8.773438 29.011719 9.945312 29.011719 L 20.035156 29.011719 C 21.207031 29.011719 22.160156 28.058594 22.160156 26.886719 Z M 22.015625 6.632812 L 22.015625 26.890625 C 22.015625 27.988281 21.128906 28.875 20.035156 28.875 L 9.945312 28.875 C 8.851562 28.875 7.960938 27.988281 7.960938 26.890625 L 7.960938 2.132812 C 7.960938 1.03125 8.851562 0.140625 9.945312 0.140625 L 20.035156 0.140625 C 21.128906 0.140625 22.015625 1.03125 22.015625 2.125 Z M 22.015625 6.632812 " fill-opacity="1" fill-rule="nonzero"/></g><path fill="#00ff57" d="M 11.171875 15.785156 C 11.023438 15.785156 10.902344 15.664062 10.902344 15.515625 L 10.902344 13.371094 C 10.902344 13.222656 11.023438 13.101562 11.171875 13.101562 L 12.246094 13.101562 C 12.394531 13.101562 12.511719 13.222656 12.511719 13.371094 C 12.511719 13.519531 12.394531 13.640625 12.246094 13.640625 L 11.441406 13.640625 L 11.441406 15.515625 C 11.441406 15.664062 11.320312 15.785156 11.171875 15.785156 Z M 11.171875 15.785156 " fill-opacity="1" fill-rule="nonzero"/><path fill="#00ff57" d="M 11.707031 14.710938 L 11.171875 14.710938 C 11.023438 14.710938 10.902344 14.589844 10.902344 14.445312 C 10.902344 14.296875 11.023438 14.175781 11.171875 14.175781 L 11.707031 14.175781 C 11.855469 14.175781 11.976562 14.296875 11.976562 14.445312 C 11.976562 14.589844 11.855469 14.710938 11.707031 14.710938 Z M 11.707031 14.710938 " fill-opacity="1" fill-rule="nonzero"/><g clip-path="url(#c67a377b5e)"><path fill="#00ff57" d="M 14.925781 20.613281 C 11.527344 20.613281 8.757812 17.84375 8.757812 14.445312 C 8.757812 11.042969 11.527344 8.273438 14.925781 8.273438 C 18.328125 8.273438 21.097656 11.042969 21.097656 14.445312 C 21.097656 17.84375 18.328125 20.613281 14.925781 20.613281 Z M 14.925781 8.8125 C 11.820312 8.8125 9.292969 11.335938 9.292969 14.445312 C 9.292969 17.550781 11.820312 20.078125 14.925781 20.078125 C 18.035156 20.078125 20.558594 17.550781 20.558594 14.445312 C 20.558594 11.335938 18.035156 8.8125 14.925781 8.8125 Z M 14.925781 8.8125 " fill-opacity="1" fill-rule="nonzero"/></g><path fill="#00ff57" d="M 18.273438 12.03125 C 18.195312 12.03125 18.117188 11.996094 18.066406 11.929688 C 17.296875 10.96875 16.152344 10.421875 14.925781 10.421875 C 13.703125 10.421875 12.558594 10.96875 11.789062 11.929688 C 11.695312 12.046875 11.527344 12.0625 11.414062 11.96875 C 11.296875 11.878906 11.277344 11.707031 11.371094 11.59375 C 12.242188 10.507812 13.539062 9.882812 14.925781 9.882812 C 16.316406 9.882812 17.613281 10.507812 18.484375 11.59375 C 18.578125 11.707031 18.558594 11.878906 18.441406 11.96875 C 18.394531 12.011719 18.332031 12.03125 18.273438 12.03125 Z M 18.273438 12.03125 " fill-opacity="1" fill-rule="nonzero"/><path fill="#00ff57" d="M 14.925781 19.003906 C 13.667969 19.003906 12.492188 18.496094 11.621094 17.578125 C 11.519531 17.472656 11.523438 17.300781 11.632812 17.199219 C 11.738281 17.097656 11.910156 17.101562 12.011719 17.210938 C 12.78125 18.019531 13.816406 18.46875 14.925781 18.46875 C 16.039062 18.46875 17.074219 18.019531 17.84375 17.210938 C 17.945312 17.101562 18.117188 17.097656 18.222656 17.199219 C 18.332031 17.300781 18.335938 17.472656 18.234375 17.578125 C 17.363281 18.496094 16.1875 19.003906 14.925781 19.003906 Z M 14.925781 19.003906 " fill-opacity="1" fill-rule="nonzero"/><path fill="#00ff57" d="M 14.390625 15.785156 C 14.324219 15.785156 14.253906 15.757812 14.199219 15.707031 L 13.585938 15.089844 L 13.585938 15.515625 C 13.585938 15.664062 13.464844 15.785156 13.316406 15.785156 C 13.171875 15.785156 13.050781 15.664062 13.050781 15.515625 L 13.050781 14.445312 C 13.050781 14.445312 13.050781 14.441406 13.050781 14.441406 L 13.050781 13.371094 C 13.050781 13.222656 13.171875 13.101562 13.316406 13.101562 L 13.855469 13.101562 C 14.296875 13.101562 14.660156 13.464844 14.660156 13.90625 C 14.660156 14.316406 14.351562 14.652344 13.957031 14.703125 L 14.582031 15.328125 C 14.683594 15.429688 14.683594 15.601562 14.582031 15.707031 C 14.527344 15.757812 14.460938 15.785156 14.390625 15.785156 Z M 13.585938 14.175781 L 13.855469 14.175781 C 14.003906 14.175781 14.121094 14.054688 14.121094 13.90625 C 14.121094 13.757812 14.003906 13.640625 13.855469 13.640625 L 13.585938 13.640625 Z M 13.585938 14.175781 " fill-opacity="1" fill-rule="nonzero"/><path fill="#00ff57" d="M 16.535156 15.785156 L 15.464844 15.785156 C 15.316406 15.785156 15.195312 15.664062 15.195312 15.515625 L 15.195312 13.371094 C 15.195312 13.222656 15.316406 13.101562 15.464844 13.101562 L 16.535156 13.101562 C 16.683594 13.101562 16.804688 13.222656 16.804688 13.371094 C 16.804688 13.519531 16.683594 13.640625 16.535156 13.640625 L 15.730469 13.640625 L 15.730469 15.25 L 16.535156 15.25 C 16.683594 15.25 16.804688 15.367188 16.804688 15.515625 C 16.804688 15.664062 16.683594 15.785156 16.535156 15.785156 Z M 16.535156 15.785156 " fill-opacity="1" fill-rule="nonzero"/><path fill="#00ff57" d="M 16 14.710938 L 15.464844 14.710938 C 15.316406 14.710938 15.195312 14.589844 15.195312 14.445312 C 15.195312 14.296875 15.316406 14.175781 15.464844 14.175781 L 16 14.175781 C 16.148438 14.175781 16.269531 14.296875 16.269531 14.445312 C 16.269531 14.589844 16.148438 14.710938 16 14.710938 Z M 16 14.710938 " fill-opacity="1" fill-rule="nonzero"/><path fill="#00ff57" d="M 18.683594 15.785156 L 17.609375 15.785156 C 17.460938 15.785156 17.339844 15.664062 17.339844 15.515625 L 17.339844 13.371094 C 17.339844 13.222656 17.460938 13.101562 17.609375 13.101562 L 18.683594 13.101562 C 18.832031 13.101562 18.949219 13.222656 18.949219 13.371094 C 18.949219 13.519531 18.832031 13.640625 18.683594 13.640625 L 17.878906 13.640625 L 17.878906 15.25 L 18.683594 15.25 C 18.832031 15.25 18.949219 15.367188 18.949219 15.515625 C 18.949219 15.664062 18.832031 15.785156 18.683594 15.785156 Z M 18.683594 15.785156 " fill-opacity="1" fill-rule="nonzero"/><path fill="#00ff57" d="M 18.144531 14.710938 L 17.609375 14.710938 C 17.460938 14.710938 17.339844 14.589844 17.339844 14.445312 C 17.339844 14.296875 17.460938 14.175781 17.609375 14.175781 L 18.144531 14.175781 C 18.292969 14.175781 18.414062 14.296875 18.414062 14.445312 C 18.414062 14.589844 18.292969 14.710938 18.144531 14.710938 Z M 18.144531 14.710938 " fill-opacity="1" fill-rule="nonzero"/></svg>