<svg xmlns="http://www.w3.org/2000/svg" xmlns:xlink="http://www.w3.org/1999/xlink" width="40" zoomAndPan="magnify" viewBox="0 0 30 30.000001" height="40" preserveAspectRatio="xMidYMid meet" version="1.0"><defs><clipPath id="f78bdaf317"><path d="M 7.664062 0 L 22.316406 0 L 22.316406 29 L 7.664062 29 Z M 7.664062 0 " clip-rule="nonzero"/></clipPath><clipPath id="c632280847"><path d="M 8.660156 0.851562 L 21.320312 0.851562 L 21.320312 28.234375 L 8.660156 28.234375 Z M 8.660156 0.851562 " clip-rule="nonzero"/></clipPath><clipPath id="6056bcfc36"><path d="M 20.132812 0.875 L 18.609375 0.875 L 18.609375 1.195312 C 18.609375 1.558594 18.3125 1.855469 17.949219 1.855469 L 12.074219 1.855469 C 11.710938 1.855469 11.410156 1.558594 11.410156 1.195312 L 11.410156 0.875 L 9.875 0.875 C 9.226562 0.875 8.703125 1.402344 8.703125 2.046875 L 8.703125 27.011719 C 8.703125 27.660156 9.226562 28.1875 9.875 28.1875 L 20.132812 28.1875 C 20.777344 28.1875 21.304688 27.660156 21.304688 27.011719 L 21.304688 2.046875 C 21.3125 1.402344 20.785156 0.875 20.132812 0.875 Z M 20.132812 0.875 " clip-rule="nonzero"/></clipPath><clipPath id="001d8aabe1"><path d="M 7.664062 3 L 8 3 L 8 6 L 7.664062 6 Z M 7.664062 3 " clip-rule="nonzero"/></clipPath><clipPath id="72fd232881"><path d="M 7.664062 5 L 8 5 L 8 9 L 7.664062 9 Z M 7.664062 5 " clip-rule="nonzero"/></clipPath><clipPath id="01b1cf3b32"><path d="M 7.664062 8 L 8 8 L 8 11 L 7.664062 11 Z M 7.664062 8 " clip-rule="nonzero"/></clipPath><clipPath id="d839aa226b"><path d="M 22 6 L 22.316406 6 L 22.316406 11 L 22 11 Z M 22 6 " clip-rule="nonzero"/></clipPath><clipPath id="d04be87318"><path d="M 7.664062 0 L 22.316406 0 L 22.316406 29.019531 L 7.664062 29.019531 Z M 7.664062 0 " clip-rule="nonzero"/></clipPath><clipPath id="1db3c4c7df"><path d="M 8.902344 5.289062 L 21.242188 5.289062 L 21.242188 23.433594 L 8.902344 23.433594 Z M 8.902344 5.289062 " clip-rule="nonzero"/></clipPath></defs><g clip-path="url(#f78bdaf317)"><path fill="#000000" d="M 20.035156 0.140625 L 9.945312 0.140625 C 8.851562 0.140625 7.960938 1.03125 7.960938 2.125 L 7.960938 26.886719 C 7.960938 27.980469 8.851562 28.867188 9.945312 28.867188 L 20.035156 28.867188 C 21.128906 28.867188 22.015625 27.980469 22.015625 26.886719 L 22.015625 2.125 C 22.015625 1.03125 21.128906 0.140625 20.035156 0.140625 Z M 16.675781 1.050781 C 16.777344 1.050781 16.855469 1.128906 16.855469 1.230469 C 16.855469 1.328125 16.777344 1.40625 16.675781 1.40625 C 16.578125 1.40625 16.5 1.328125 16.5 1.230469 C 16.5 1.128906 16.582031 1.050781 16.675781 1.050781 Z M 14.054688 1.109375 L 15.761719 1.109375 C 15.824219 1.109375 15.878906 1.160156 15.878906 1.230469 C 15.878906 1.300781 15.824219 1.351562 15.761719 1.351562 L 14.054688 1.351562 C 13.992188 1.351562 13.933594 1.300781 13.933594 1.230469 C 13.933594 1.160156 13.992188 1.109375 14.054688 1.109375 Z M 21.292969 27 C 21.292969 27.644531 20.765625 28.171875 20.121094 28.171875 L 9.871094 28.171875 C 9.226562 28.171875 8.699219 27.644531 8.699219 27 L 8.699219 2.046875 C 8.699219 1.402344 9.226562 0.875 9.871094 0.875 L 11.398438 0.875 L 11.398438 1.195312 C 11.398438 1.558594 11.699219 1.855469 12.058594 1.855469 L 17.933594 1.855469 C 18.296875 1.855469 18.59375 1.558594 18.59375 1.195312 L 18.59375 0.875 L 20.113281 0.875 C 20.757812 0.875 21.285156 1.402344 21.285156 2.046875 L 21.285156 27 Z M 21.292969 27 " fill-opacity="1" fill-rule="nonzero"/></g><g clip-path="url(#c632280847)"><g clip-path="url(#6056bcfc36)"><path fill="#0e0e0e" d="M 7.664062 0 L 22.316406 0 L 22.316406 29.019531 L 7.664062 29.019531 Z M 7.664062 0 " fill-opacity="1" fill-rule="nonzero"/></g></g><path fill="#555555" d="M 15.761719 1.109375 L 14.054688 1.109375 C 13.992188 1.109375 13.933594 1.160156 13.933594 1.230469 C 13.933594 1.300781 13.992188 1.351562 14.054688 1.351562 L 15.761719 1.351562 C 15.824219 1.351562 15.878906 1.300781 15.878906 1.230469 C 15.878906 1.160156 15.824219 1.109375 15.761719 1.109375 Z M 15.761719 1.109375 " fill-opacity="1" fill-rule="nonzero"/><path fill="#555555" d="M 16.675781 1.050781 C 16.558594 1.050781 16.5 1.109375 16.5 1.230469 C 16.5 1.347656 16.558594 1.40625 16.675781 1.40625 C 16.792969 1.40625 16.855469 1.347656 16.855469 1.230469 C 16.855469 1.109375 16.792969 1.050781 16.675781 1.050781 Z M 16.675781 1.050781 " fill-opacity="1" fill-rule="nonzero"/><g clip-path="url(#001d8aabe1)"><path fill="#2e2e2e" d="M 7.664062 3.988281 L 7.664062 4.875 C 7.664062 4.960938 7.734375 5.03125 7.820312 5.03125 L 7.820312 3.839844 C 7.734375 3.839844 7.664062 3.902344 7.664062 3.988281 Z M 7.664062 3.988281 " fill-opacity="1" fill-rule="nonzero"/></g><g clip-path="url(#72fd232881)"><path fill="#2e2e2e" d="M 7.664062 6.070312 L 7.664062 7.917969 C 7.664062 8.003906 7.734375 8.074219 7.820312 8.074219 L 7.820312 5.921875 C 7.734375 5.921875 7.664062 5.984375 7.664062 6.070312 Z M 7.664062 6.070312 " fill-opacity="1" fill-rule="nonzero"/></g><g clip-path="url(#01b1cf3b32)"><path fill="#2e2e2e" d="M 7.664062 8.699219 L 7.664062 10.550781 C 7.664062 10.632812 7.734375 10.707031 7.820312 10.707031 L 7.820312 8.542969 C 7.734375 8.542969 7.664062 8.617188 7.664062 8.699219 Z M 7.664062 8.699219 " fill-opacity="1" fill-rule="nonzero"/></g><g clip-path="url(#d839aa226b)"><path fill="#2e2e2e" d="M 22.160156 6.632812 L 22.160156 10.09375 C 22.242188 10.09375 22.316406 10.023438 22.316406 9.9375 L 22.316406 6.789062 C 22.316406 6.703125 22.242188 6.632812 22.160156 6.632812 Z M 22.160156 6.632812 " fill-opacity="1" fill-rule="nonzero"/></g><g clip-path="url(#d04be87318)"><path fill="#555555" d="M 22.160156 6.632812 L 22.160156 2.125 C 22.160156 1.976562 22.144531 1.835938 22.117188 1.699219 C 22.101562 1.628906 22.085938 1.5625 22.066406 1.492188 C 22.039062 1.394531 21.996094 1.292969 21.953125 1.203125 C 21.925781 1.136719 21.890625 1.082031 21.851562 1.023438 C 21.816406 0.964844 21.78125 0.910156 21.738281 0.851562 C 21.675781 0.769531 21.613281 0.695312 21.539062 0.617188 C 21.492188 0.570312 21.441406 0.527344 21.390625 0.484375 C 21.023438 0.175781 20.554688 0 20.042969 0 L 9.945312 0 C 9.433594 0 8.957031 0.183594 8.59375 0.484375 C 8.542969 0.527344 8.496094 0.574219 8.445312 0.617188 C 8.375 0.691406 8.304688 0.769531 8.246094 0.851562 C 8.203125 0.910156 8.167969 0.964844 8.132812 1.023438 C 8.097656 1.082031 8.0625 1.144531 8.03125 1.203125 C 7.984375 1.300781 7.949219 1.394531 7.914062 1.492188 C 7.890625 1.5625 7.875 1.628906 7.863281 1.699219 C 7.835938 1.835938 7.820312 1.984375 7.820312 2.125 L 7.820312 26.886719 C 7.820312 28.058594 8.773438 29.011719 9.945312 29.011719 L 20.035156 29.011719 C 21.207031 29.011719 22.160156 28.058594 22.160156 26.886719 Z M 22.015625 6.632812 L 22.015625 26.890625 C 22.015625 27.988281 21.128906 28.875 20.035156 28.875 L 9.945312 28.875 C 8.851562 28.875 7.960938 27.988281 7.960938 26.890625 L 7.960938 2.132812 C 7.960938 1.03125 8.851562 0.140625 9.945312 0.140625 L 20.035156 0.140625 C 21.128906 0.140625 22.015625 1.03125 22.015625 2.125 Z M 22.015625 6.632812 " fill-opacity="1" fill-rule="nonzero"/></g><g clip-path="url(#1db3c4c7df)"><path fill="#233dff" d="M 21.230469 18.03125 C 21.21875 18.261719 21.144531 18.46875 21.011719 18.65625 C 20.492188 19.371094 19.667969 20.164062 18.5625 21.015625 C 18.035156 21.425781 17.601562 21.699219 17.21875 21.941406 C 16.566406 22.359375 16.09375 22.65625 15.597656 23.339844 C 15.53125 23.429688 15.453125 23.445312 15.359375 23.378906 C 15.265625 23.316406 15.25 23.238281 15.316406 23.144531 C 15.851562 22.410156 16.371094 22.082031 17.03125 21.660156 C 17.40625 21.421875 17.832031 21.152344 18.347656 20.753906 C 19.429688 19.921875 20.230469 19.152344 20.730469 18.464844 C 20.890625 18.246094 20.988281 17.828125 20.707031 17.582031 C 20.480469 17.382812 20.195312 17.402344 19.828125 17.640625 C 19.839844 17.941406 19.691406 18.296875 19.394531 18.664062 C 18.878906 19.292969 18.289062 19.792969 17.222656 20.519531 C 17.128906 20.578125 17.050781 20.566406 16.984375 20.472656 C 16.921875 20.382812 16.933594 20.308594 17.027344 20.242188 C 18.0625 19.539062 18.632812 19.054688 19.121094 18.453125 C 19.246094 18.308594 19.34375 18.144531 19.417969 17.972656 C 19.480469 17.820312 19.5 17.695312 19.476562 17.582031 C 19.464844 17.511719 19.433594 17.445312 19.386719 17.390625 C 19.339844 17.328125 19.1875 17.152344 18.761719 17.285156 C 18.582031 17.34375 18.410156 17.472656 18.226562 17.609375 C 18.1875 17.636719 18.148438 17.667969 18.109375 17.699219 C 18.050781 17.871094 17.929688 18.066406 17.742188 18.292969 C 17.53125 18.539062 17.296875 18.765625 17.046875 18.976562 C 16.460938 19.457031 15.945312 19.785156 15.203125 20.148438 C 15.101562 20.195312 15.023438 20.171875 14.972656 20.070312 C 14.921875 19.972656 14.949219 19.898438 15.050781 19.847656 C 15.765625 19.5 16.261719 19.183594 16.824219 18.71875 C 17.269531 18.351562 17.71875 17.867188 17.789062 17.574219 C 17.796875 17.476562 17.808594 17.34375 17.617188 17.21875 C 17.46875 17.121094 17.238281 17.105469 17.054688 17.160156 C 16.84375 17.222656 16.363281 17.53125 15.976562 17.777344 C 15.707031 17.945312 15.480469 18.09375 15.335938 18.164062 C 13.386719 19.132812 12.714844 18.84375 11.976562 18.328125 C 11.816406 18.214844 11.613281 18.050781 11.398438 17.875 C 11 17.550781 10.542969 17.183594 10.273438 17.074219 C 10.003906 16.96875 9.652344 16.984375 9.488281 17.105469 C 9.402344 17.171875 9.367188 17.269531 9.382812 17.402344 C 9.414062 17.652344 9.789062 18.105469 10.089844 18.46875 C 10.328125 18.757812 10.53125 19.003906 10.613281 19.191406 C 11.175781 20.472656 9.84375 21.921875 9.277344 22.542969 C 9.253906 22.566406 9.234375 22.589844 9.214844 22.609375 C 9.140625 22.695312 9.058594 22.703125 8.96875 22.625 C 8.882812 22.550781 8.878906 22.472656 8.957031 22.386719 C 8.976562 22.367188 8.996094 22.34375 9.019531 22.320312 C 9.285156 22.03125 9.730469 21.546875 10.042969 20.988281 C 10.414062 20.339844 10.496094 19.777344 10.296875 19.320312 C 10.234375 19.179688 10.023438 18.925781 9.820312 18.679688 C 9.460938 18.242188 9.085938 17.789062 9.039062 17.445312 C 9.007812 17.195312 9.09375 16.980469 9.277344 16.839844 C 9.578125 16.617188 10.070312 16.632812 10.402344 16.765625 C 10.722656 16.890625 11.179688 17.261719 11.621094 17.617188 C 11.828125 17.789062 12.027344 17.949219 12.179688 18.054688 C 12.550781 18.3125 12.824219 18.457031 13.226562 18.46875 C 13.707031 18.480469 14.328125 18.289062 15.175781 17.863281 C 15.304688 17.800781 15.539062 17.652344 15.785156 17.496094 C 16.234375 17.210938 16.695312 16.917969 16.953125 16.839844 C 17.230469 16.753906 17.554688 16.789062 17.796875 16.929688 C 17.941406 17.011719 18.042969 17.125 18.105469 17.277344 C 18.277344 17.152344 18.453125 17.03125 18.65625 16.964844 C 19.195312 16.796875 19.496094 16.988281 19.65625 17.179688 C 19.6875 17.214844 19.714844 17.257812 19.738281 17.300781 C 20.3125 16.96875 20.703125 17.125 20.9375 17.332031 C 21.140625 17.507812 21.238281 17.75 21.230469 18.03125 Z M 20.40625 11.453125 C 20.4375 11.53125 20.417969 11.589844 20.367188 11.636719 C 19.507812 12.464844 18.609375 13.296875 17.738281 14.101562 C 16.871094 14.902344 15.972656 15.730469 15.117188 16.558594 C 15.023438 16.644531 14.941406 16.636719 14.867188 16.554688 C 14.09375 15.734375 13.277344 14.902344 12.488281 14.09375 C 11.695312 13.289062 10.878906 12.453125 10.101562 11.632812 C 10.046875 11.578125 10.035156 11.515625 10.074219 11.445312 C 10.578125 10.433594 11.570312 9.0625 11.613281 9.003906 C 11.648438 8.957031 11.695312 8.933594 11.753906 8.933594 L 18.886719 8.996094 C 18.949219 8.992188 18.996094 9.019531 19.027344 9.070312 C 19.082031 9.148438 19.980469 10.386719 20.40625 11.453125 Z M 15.722656 9.304688 C 15.917969 9.558594 16.113281 9.796875 16.300781 10.03125 C 16.609375 10.410156 16.902344 10.773438 17.164062 11.160156 C 17.398438 10.855469 17.640625 10.527344 17.878906 10.210938 C 18.09375 9.914062 18.316406 9.613281 18.539062 9.332031 Z M 15.125 9.769531 C 14.707031 10.28125 14.28125 10.804688 13.914062 11.3125 C 14.851562 11.304688 15.785156 11.304688 16.851562 11.308594 C 16.605469 10.945312 16.324219 10.601562 16.03125 10.242188 C 15.820312 9.984375 15.605469 9.71875 15.394531 9.4375 C 15.308594 9.542969 15.21875 9.652344 15.125 9.769531 Z M 12.070312 9.273438 C 12.585938 9.820312 13.089844 10.441406 13.605469 11.15625 C 13.984375 10.632812 14.425781 10.085938 14.855469 9.558594 C 14.925781 9.472656 14.996094 9.382812 15.066406 9.300781 Z M 10.511719 11.347656 L 10.902344 11.34375 C 11.773438 11.332031 12.546875 11.324219 13.300781 11.316406 C 12.777344 10.59375 12.261719 9.96875 11.738281 9.417969 C 11.46875 9.804688 10.898438 10.636719 10.511719 11.347656 Z M 14.667969 15.847656 C 14.507812 15.253906 14.320312 14.613281 14.132812 13.992188 C 13.898438 13.195312 13.65625 12.378906 13.476562 11.652344 C 12.667969 11.65625 11.84375 11.667969 10.90625 11.679688 L 10.617188 11.683594 C 11.3125 12.410156 12.035156 13.148438 12.738281 13.863281 C 13.375 14.515625 14.03125 15.183594 14.667969 15.847656 Z M 15.730469 14.339844 C 16.15625 13.390625 16.59375 12.410156 16.894531 11.644531 C 15.777344 11.640625 14.808594 11.640625 13.832031 11.648438 C 14.007812 12.347656 14.242188 13.136719 14.464844 13.898438 C 14.664062 14.574219 14.871094 15.265625 15.039062 15.902344 C 15.253906 15.402344 15.496094 14.863281 15.730469 14.339844 Z M 19.832031 11.679688 C 18.871094 11.664062 18.03125 11.652344 17.265625 11.648438 C 16.960938 12.4375 16.496094 13.472656 16.046875 14.472656 C 15.859375 14.894531 15.667969 15.324219 15.488281 15.734375 C 16.15625 15.101562 16.835938 14.46875 17.5 13.855469 C 18.273438 13.144531 19.066406 12.414062 19.832031 11.679688 Z M 19.984375 11.34375 C 19.648438 10.601562 19.121094 9.804688 18.875 9.449219 C 18.640625 9.753906 18.394531 10.085938 18.15625 10.40625 C 17.933594 10.710938 17.703125 11.023438 17.476562 11.3125 C 18.226562 11.320312 19.046875 11.332031 19.984375 11.34375 Z M 15.195312 7.40625 C 15.300781 7.40625 15.359375 7.355469 15.367188 7.25 L 15.464844 5.476562 C 15.472656 5.363281 15.417969 5.304688 15.304688 5.300781 C 15.1875 5.292969 15.128906 5.347656 15.121094 5.457031 L 15.019531 7.230469 C 15.015625 7.339844 15.070312 7.398438 15.183594 7.40625 C 15.1875 7.40625 15.191406 7.40625 15.195312 7.40625 Z M 18.007812 7.589844 C 18.0625 7.589844 18.105469 7.570312 18.140625 7.53125 L 19.464844 6.007812 C 19.539062 5.921875 19.535156 5.84375 19.445312 5.773438 C 19.359375 5.699219 19.277344 5.707031 19.203125 5.792969 L 17.878906 7.3125 C 17.832031 7.367188 17.820312 7.425781 17.851562 7.492188 C 17.882812 7.554688 17.9375 7.589844 18.007812 7.589844 Z M 12.539062 7.738281 C 12.605469 7.738281 12.652344 7.710938 12.6875 7.65625 C 12.71875 7.601562 12.71875 7.542969 12.6875 7.488281 L 11.578125 5.585938 C 11.523438 5.488281 11.441406 5.46875 11.34375 5.523438 C 11.242188 5.578125 11.222656 5.652344 11.277344 5.75 L 12.386719 7.652344 C 12.421875 7.710938 12.472656 7.738281 12.539062 7.738281 Z M 12.539062 7.738281 " fill-opacity="1" fill-rule="nonzero"/></g></svg>