<svg xmlns="http://www.w3.org/2000/svg" xmlns:xlink="http://www.w3.org/1999/xlink" width="518" zoomAndPan="magnify" viewBox="0 0 388.5 318.749995" height="425" preserveAspectRatio="xMidYMid meet" version="1.0"><defs><clipPath id="aa0fa564b3"><path d="M 105 139.1875 L 280.21875 139.1875 L 280.21875 296 L 105 296 Z M 105 139.1875 " clip-rule="nonzero"/></clipPath><clipPath id="5f19d7d9b2"><path d="M 194 18.738281 L 224 18.738281 L 224 48 L 194 48 Z M 194 18.738281 " clip-rule="nonzero"/></clipPath><clipPath id="48cc50ef88"><path d="M 58.726562 249.714844 L 187 249.714844 L 187 296 L 58.726562 296 Z M 58.726562 249.714844 " clip-rule="nonzero"/></clipPath><clipPath id="a56d45f1bf"><path d="M 198.4375 249.714844 L 326.785156 249.714844 L 326.785156 296 L 198.4375 296 Z M 198.4375 249.714844 " clip-rule="nonzero"/></clipPath><clipPath id="d79e624d4e"><path d="M 282 276.921875 L 322.242188 276.921875 L 322.242188 296 L 282 296 Z M 282 276.921875 " clip-rule="nonzero"/></clipPath><clipPath id="9685e34e04"><path d="M 82.011719 95.542969 L 223.992188 95.542969 L 223.992188 296.148438 L 82.011719 296.148438 Z M 82.011719 95.542969 " clip-rule="nonzero"/></clipPath><clipPath id="c087534031"><path d="M 103.023438 194.167969 L 282.488281 194.167969 L 282.488281 296 L 103.023438 296 Z M 103.023438 194.167969 " clip-rule="nonzero"/></clipPath><clipPath id="87152e9ed2"><path d="M 54.75 295.058594 L 334.113281 295.058594 L 334.113281 296.148438 L 54.75 296.148438 Z M 54.75 295.058594 " clip-rule="nonzero"/></clipPath></defs><g clip-path="url(#aa0fa564b3)"><path fill="#e15a1c" d="M 134.113281 144.058594 L 168.585938 139.742188 L 218.453125 139.742188 L 250.75 144.027344 L 280.1875 295.636719 L 105.085938 295.863281 L 134.113281 144.058594 " fill-opacity="1" fill-rule="nonzero"/></g><path fill="#f9b033" d="M 193.507812 166.304688 C 214.886719 166.304688 232.21875 155.503906 232.21875 142.183594 C 232.21875 141.976562 232.199219 141.773438 232.195312 141.566406 L 218.457031 139.742188 L 168.585938 139.742188 L 154.820312 141.464844 C 154.8125 141.707031 154.792969 141.941406 154.792969 142.183594 C 154.792969 155.503906 172.125 166.304688 193.507812 166.304688 " fill-opacity="1" fill-rule="nonzero"/><path fill="#211a15" d="M 177.210938 77.097656 C 177.210938 84.953125 170.832031 91.324219 162.960938 91.324219 C 155.089844 91.324219 148.710938 84.953125 148.710938 77.097656 C 148.710938 69.242188 155.089844 62.875 162.960938 62.875 C 170.832031 62.875 177.210938 69.242188 177.210938 77.097656 " fill-opacity="1" fill-rule="nonzero"/><path fill="#211a15" d="M 186.648438 96.871094 C 186.648438 104.726562 180.269531 111.09375 172.398438 111.09375 C 164.527344 111.09375 158.148438 104.726562 158.148438 96.871094 C 158.148438 89.015625 164.527344 82.648438 172.398438 82.648438 C 180.269531 82.648438 186.648438 89.015625 186.648438 96.871094 " fill-opacity="1" fill-rule="nonzero"/><path fill="#211a15" d="M 184.578125 96.871094 L 184.296875 96.871094 C 184.292969 100.722656 182.730469 104.207031 180.203125 106.730469 C 177.675781 109.253906 174.183594 110.8125 170.328125 110.8125 C 166.46875 110.8125 162.980469 109.253906 160.449219 106.730469 C 157.921875 104.207031 156.359375 100.722656 156.355469 96.871094 C 156.359375 93.023438 157.921875 89.539062 160.449219 87.015625 C 162.980469 84.492188 166.46875 82.933594 170.328125 82.933594 C 174.183594 82.933594 177.675781 84.492188 180.203125 87.015625 C 182.730469 89.539062 184.292969 93.023438 184.296875 96.871094 L 184.863281 96.871094 C 184.863281 88.859375 178.355469 82.367188 170.328125 82.367188 C 162.296875 82.367188 155.792969 88.859375 155.789062 96.871094 C 155.792969 104.886719 162.296875 111.378906 170.328125 111.378906 C 178.355469 111.378906 184.863281 104.886719 184.863281 96.871094 L 184.578125 96.871094 " fill-opacity="1" fill-rule="nonzero"/><path fill="#211a15" d="M 221.253906 33.246094 C 221.253906 41.101562 214.871094 47.472656 207 47.472656 C 199.128906 47.472656 192.75 41.101562 192.75 33.246094 C 192.75 25.390625 199.128906 19.023438 207 19.023438 C 214.871094 19.023438 221.253906 25.390625 221.253906 33.246094 " fill-opacity="1" fill-rule="nonzero"/><g clip-path="url(#5f19d7d9b2)"><path fill="#211a15" d="M 222.9375 33.246094 L 222.652344 33.246094 C 222.652344 37.097656 221.089844 40.578125 218.5625 43.101562 C 216.03125 45.628906 212.542969 47.1875 208.6875 47.1875 C 204.828125 47.1875 201.335938 45.628906 198.808594 43.101562 C 196.28125 40.578125 194.714844 37.097656 194.714844 33.246094 C 194.714844 29.394531 196.28125 25.914062 198.808594 23.390625 C 201.335938 20.863281 204.828125 19.304688 208.6875 19.304688 C 212.542969 19.304688 216.03125 20.863281 218.5625 23.390625 C 221.089844 25.914062 222.652344 29.394531 222.652344 33.246094 L 223.222656 33.246094 C 223.222656 25.234375 216.714844 18.738281 208.6875 18.738281 C 200.65625 18.738281 194.148438 25.234375 194.148438 33.246094 C 194.148438 41.257812 200.65625 47.753906 208.6875 47.753906 C 216.714844 47.753906 223.222656 41.257812 223.222656 33.246094 L 222.9375 33.246094 " fill-opacity="1" fill-rule="nonzero"/></g><path fill="#211a15" d="M 198.082031 35.199219 C 198.082031 43.054688 191.703125 49.421875 183.832031 49.421875 C 175.960938 49.421875 169.582031 43.054688 169.582031 35.199219 C 169.582031 27.34375 175.960938 20.972656 183.832031 20.972656 C 191.703125 20.972656 198.082031 27.34375 198.082031 35.199219 " fill-opacity="1" fill-rule="nonzero"/><path fill="#211a15" d="M 247.695312 33.246094 C 247.695312 41.101562 241.316406 47.472656 233.445312 47.472656 C 225.574219 47.472656 219.191406 41.101562 219.191406 33.246094 C 219.191406 25.390625 225.574219 19.023438 233.445312 19.023438 C 241.316406 19.023438 247.695312 25.390625 247.695312 33.246094 " fill-opacity="1" fill-rule="nonzero"/><path fill="#211a15" d="M 258.960938 47.472656 C 258.960938 55.328125 252.582031 61.695312 244.710938 61.695312 C 236.835938 61.695312 230.457031 55.328125 230.457031 47.472656 C 230.457031 39.613281 236.835938 33.246094 244.710938 33.246094 C 252.582031 33.246094 258.960938 39.613281 258.960938 47.472656 " fill-opacity="1" fill-rule="nonzero"/><path fill="#211a15" d="M 259.882812 48.648438 L 259.597656 48.648438 C 259.597656 52.5 258.039062 55.984375 255.507812 58.507812 C 252.980469 61.03125 249.488281 62.589844 245.632812 62.589844 C 241.773438 62.589844 238.28125 61.03125 235.753906 58.507812 C 233.226562 55.984375 231.660156 52.5 231.660156 48.648438 C 231.660156 44.800781 233.226562 41.316406 235.753906 38.792969 C 238.28125 36.269531 241.773438 34.710938 245.632812 34.710938 C 249.488281 34.710938 252.980469 36.269531 255.507812 38.792969 C 258.039062 41.316406 259.597656 44.800781 259.597656 48.648438 L 260.167969 48.648438 C 260.167969 40.636719 253.65625 34.140625 245.632812 34.140625 C 237.601562 34.140625 231.09375 40.636719 231.09375 48.648438 C 231.09375 56.660156 237.601562 63.15625 245.632812 63.160156 C 253.65625 63.15625 260.167969 56.660156 260.167969 48.648438 L 259.882812 48.648438 " fill-opacity="1" fill-rule="nonzero"/><path fill="#211a15" d="M 263.558594 63.648438 C 263.558594 71.503906 257.175781 77.871094 249.304688 77.871094 C 241.433594 77.871094 235.054688 71.503906 235.054688 63.648438 C 235.054688 55.789062 241.433594 49.421875 249.304688 49.421875 C 257.175781 49.421875 263.558594 55.789062 263.558594 63.648438 " fill-opacity="1" fill-rule="nonzero"/><path fill="#211a15" d="M 263.558594 65.851562 L 263.273438 65.851562 C 263.273438 69.703125 261.710938 73.1875 259.183594 75.710938 C 256.65625 78.234375 253.164062 79.792969 249.304688 79.792969 C 245.449219 79.792969 241.957031 78.234375 239.429688 75.710938 C 236.898438 73.1875 235.339844 69.703125 235.339844 65.851562 C 235.339844 62.003906 236.898438 58.519531 239.429688 55.996094 C 241.957031 53.472656 245.449219 51.914062 249.304688 51.910156 C 253.164062 51.914062 256.65625 53.472656 259.183594 55.996094 C 261.710938 58.519531 263.273438 62.003906 263.273438 65.851562 L 263.839844 65.851562 C 263.839844 57.839844 257.332031 51.347656 249.304688 51.34375 C 241.277344 51.347656 234.769531 57.839844 234.769531 65.851562 C 234.769531 73.867188 241.277344 80.359375 249.304688 80.359375 C 257.332031 80.359375 263.839844 73.867188 263.839844 65.851562 L 263.558594 65.851562 " fill-opacity="1" fill-rule="nonzero"/><path fill="#211a15" d="M 256.257812 81.957031 C 256.257812 89.8125 249.875 96.183594 242.003906 96.183594 C 234.132812 96.183594 227.753906 89.8125 227.753906 81.957031 C 227.753906 74.101562 234.132812 67.734375 242.003906 67.734375 C 249.875 67.734375 256.257812 74.101562 256.257812 81.957031 " fill-opacity="1" fill-rule="nonzero"/><path fill="#211a15" d="M 183.832031 53.511719 C 183.832031 61.363281 177.453125 67.734375 169.582031 67.734375 C 161.707031 67.734375 155.328125 61.363281 155.328125 53.511719 C 155.328125 45.652344 161.707031 39.285156 169.582031 39.285156 C 177.453125 39.285156 183.832031 45.652344 183.832031 53.511719 " fill-opacity="1" fill-rule="nonzero"/><path fill="#211a15" d="M 182.835938 55.027344 L 182.550781 55.027344 C 182.550781 58.878906 180.992188 62.359375 178.460938 64.886719 C 175.933594 67.40625 172.441406 68.96875 168.585938 68.96875 C 164.726562 68.96875 161.234375 67.40625 158.707031 64.886719 C 156.179688 62.359375 154.617188 58.878906 154.617188 55.027344 C 154.617188 51.175781 156.179688 47.691406 158.707031 45.167969 C 161.234375 42.648438 164.726562 41.085938 168.585938 41.085938 C 172.441406 41.085938 175.933594 42.648438 178.460938 45.167969 C 180.992188 47.691406 182.550781 51.175781 182.550781 55.027344 L 183.121094 55.027344 C 183.121094 47.015625 176.613281 40.519531 168.585938 40.519531 C 160.554688 40.519531 154.050781 47.015625 154.050781 55.027344 C 154.050781 63.039062 160.554688 69.535156 168.585938 69.535156 C 176.613281 69.535156 183.121094 63.039062 183.121094 55.027344 L 182.835938 55.027344 " fill-opacity="1" fill-rule="nonzero"/><path fill="#95451d" d="M 168.585938 97.933594 L 168.585938 144.324219 L 218.453125 144.324219 L 218.453125 124.019531 L 168.585938 97.933594 " fill-opacity="1" fill-rule="nonzero"/><path fill="#95451d" d="M 206.320312 35.582031 C 225.890625 32.769531 248.402344 45.273438 247.679688 77.484375 C 247.484375 86.1875 246.496094 103.585938 246.65625 112.292969 C 246.78125 119.390625 246.078125 133.410156 233.007812 137.214844 C 227.621094 138.78125 223.355469 139.484375 210.785156 140.339844 L 168.585938 97.933594 C 168.585938 97.933594 166.183594 41.355469 206.320312 35.582031 " fill-opacity="1" fill-rule="nonzero"/><path fill="#211a15" d="M 226.503906 94.800781 L 226.3125 110.964844 L 226.878906 110.972656 L 227.070312 94.804688 " fill-opacity="1" fill-rule="nonzero"/><path fill="#211a15" d="M 207.324219 102.195312 C 207.167969 103.96875 208.011719 105.570312 209.207031 105.769531 C 210.402344 105.972656 211.496094 104.695312 211.652344 102.917969 C 211.804688 101.144531 210.960938 99.539062 209.765625 99.339844 C 208.570312 99.140625 207.476562 100.417969 207.324219 102.195312 " fill-opacity="1" fill-rule="nonzero"/><path fill="#211a15" d="M 230.859375 102.851562 C 230.703125 104.628906 231.550781 106.230469 232.742188 106.429688 C 233.9375 106.628906 235.03125 105.355469 235.1875 103.578125 C 235.339844 101.804688 234.496094 100.199219 233.300781 100 C 232.105469 99.800781 231.011719 101.078125 230.859375 102.851562 " fill-opacity="1" fill-rule="nonzero"/><path fill="#211a15" d="M 209.324219 116.628906 C 209.328125 116.65625 209.414062 117.832031 210.164062 119.03125 C 210.539062 119.632812 211.082031 120.238281 211.867188 120.691406 C 212.648438 121.144531 213.664062 121.441406 214.964844 121.441406 C 215.574219 121.441406 216.25 121.375 216.992188 121.230469 L 216.886719 120.675781 C 216.171875 120.8125 215.535156 120.875 214.964844 120.875 C 213.753906 120.871094 212.84375 120.601562 212.152344 120.203125 C 211.117188 119.601562 210.554688 118.703125 210.242188 117.941406 C 210.089844 117.5625 210 117.21875 209.949219 116.972656 C 209.925781 116.851562 209.910156 116.753906 209.902344 116.683594 L 209.894531 116.609375 L 209.890625 116.589844 L 209.328125 116.628906 " fill-opacity="1" fill-rule="nonzero"/><path fill="#e15a1c" d="M 301.292969 182.984375 C 316.421875 209.15625 322.953125 243.558594 324.355469 253.351562 C 328.671875 283.472656 290.558594 299.996094 280.1875 291.179688 C 258.171875 272.472656 253.484375 211.585938 249.273438 184.089844 C 244.835938 155.117188 284.5 153.933594 301.292969 182.984375 " fill-opacity="1" fill-rule="nonzero"/><path fill="#e15a1c" d="M 83.980469 182.984375 C 68.851562 209.15625 62.320312 243.558594 60.917969 253.351562 C 56.601562 283.472656 94.710938 299.996094 105.085938 291.179688 C 127.101562 272.472656 131.789062 211.585938 136.003906 184.089844 C 140.4375 155.117188 100.773438 153.933594 83.980469 182.984375 " fill-opacity="1" fill-rule="nonzero"/><path fill="#e15a1c" d="M 301.292969 182.984375 C 284.5 153.933594 244.835938 155.117188 249.273438 184.089844 C 250.773438 193.890625 252.335938 207.929688 254.71875 222.792969 L 317.535156 222.792969 C 313.851562 210.050781 308.566406 195.566406 301.292969 182.984375 " fill-opacity="1" fill-rule="nonzero"/><path fill="#e15a1c" d="M 83.980469 182.984375 C 76.707031 195.566406 71.421875 210.050781 67.734375 222.792969 L 130.554688 222.792969 C 132.9375 207.929688 134.5 193.890625 136.003906 184.089844 C 140.4375 155.117188 100.773438 153.933594 83.980469 182.984375 " fill-opacity="1" fill-rule="nonzero"/><g clip-path="url(#48cc50ef88)"><path fill="#e15a1c" d="M 60.917969 253.351562 C 60.917969 253.351562 53.441406 293.195312 67.589844 295.988281 L 186.375 295.476562 C 187.890625 289.703125 185.015625 260.699219 173.921875 255.730469 C 148.140625 244.1875 60.917969 253.351562 60.917969 253.351562 " fill-opacity="1" fill-rule="nonzero"/></g><path fill="#211a15" d="M 114.308594 249.792969 L 90.667969 249.203125 L 90.652344 249.769531 L 114.296875 250.359375 " fill-opacity="1" fill-rule="nonzero"/><path fill="#e15a1c" d="M 248.214844 143.941406 C 263.898438 143.941406 292.226562 154.242188 309.367188 199.414062 L 251.1875 208.367188 L 248.214844 143.941406 " fill-opacity="1" fill-rule="nonzero"/><path fill="#e15a1c" d="M 137.0625 143.941406 C 121.375 143.941406 93.046875 154.242188 75.90625 199.414062 L 134.085938 208.367188 L 137.0625 143.941406 " fill-opacity="1" fill-rule="nonzero"/><g clip-path="url(#a56d45f1bf)"><path fill="#e15a1c" d="M 324.355469 253.351562 C 324.355469 253.351562 331.832031 293.195312 317.683594 295.988281 L 198.898438 295.769531 C 197.382812 289.996094 200.253906 260.699219 211.351562 255.730469 C 237.136719 244.1875 324.355469 253.351562 324.355469 253.351562 " fill-opacity="1" fill-rule="nonzero"/></g><path fill="#211a15" d="M 126.417969 194.238281 L 128.121094 184.488281 L 127.5625 184.390625 L 125.859375 194.140625 " fill-opacity="1" fill-rule="nonzero"/><path fill="#211a15" d="M 259.566406 194.144531 L 258.21875 185.773438 L 257.65625 185.863281 L 259.007812 194.234375 " fill-opacity="1" fill-rule="nonzero"/><g clip-path="url(#d79e624d4e)"><path fill="#211a15" d="M 282.011719 295.828125 C 282.011719 295.828125 284.140625 274.996094 304.664062 277.121094 C 310.652344 277.738281 320.839844 283.039062 322.046875 295.863281 L 282.011719 295.828125 " fill-opacity="1" fill-rule="nonzero"/></g><path fill="#211a15" d="M 272.367188 250.671875 L 297.519531 249.769531 L 297.5 249.203125 L 272.347656 250.105469 " fill-opacity="1" fill-rule="nonzero"/><path fill="#211a15" d="M 198.082031 76.238281 C 198.082031 84.09375 191.703125 90.460938 183.832031 90.460938 C 175.960938 90.460938 169.582031 84.09375 169.582031 76.238281 C 169.582031 68.382812 175.960938 62.011719 183.832031 62.011719 C 191.703125 62.011719 198.082031 68.382812 198.082031 76.238281 " fill-opacity="1" fill-rule="nonzero"/><path fill="#211a15" d="M 199.601562 76.238281 L 199.320312 76.238281 C 199.320312 80.085938 197.757812 83.570312 195.226562 86.097656 C 192.699219 88.617188 189.210938 90.179688 185.351562 90.179688 C 181.492188 90.179688 178.003906 88.617188 175.476562 86.097656 C 172.945312 83.570312 171.382812 80.085938 171.382812 76.238281 C 171.382812 72.386719 172.945312 68.902344 175.476562 66.378906 C 178.003906 63.859375 181.492188 62.296875 185.351562 62.296875 C 189.210938 62.296875 192.699219 63.859375 195.226562 66.378906 C 197.757812 68.902344 199.320312 72.386719 199.320312 76.238281 L 199.886719 76.238281 C 199.886719 68.226562 193.378906 61.730469 185.351562 61.730469 C 177.324219 61.730469 170.816406 68.226562 170.8125 76.238281 C 170.816406 84.25 177.324219 90.746094 185.351562 90.746094 C 193.378906 90.746094 199.886719 84.25 199.886719 76.238281 L 199.601562 76.238281 " fill-opacity="1" fill-rule="nonzero"/><path fill="#211a15" d="M 194.210938 62.011719 C 194.210938 69.867188 187.828125 76.238281 179.957031 76.238281 C 172.085938 76.238281 165.707031 69.867188 165.707031 62.011719 C 165.707031 54.15625 172.085938 47.789062 179.957031 47.789062 C 187.828125 47.789062 194.210938 54.15625 194.210938 62.011719 " fill-opacity="1" fill-rule="nonzero"/><path fill="#211a15" d="M 204.351562 45.867188 C 204.351562 53.726562 197.96875 60.09375 190.097656 60.09375 C 182.226562 60.09375 175.847656 53.726562 175.847656 45.867188 C 175.847656 38.011719 182.226562 31.644531 190.097656 31.644531 C 197.96875 31.644531 204.351562 38.011719 204.351562 45.867188 " fill-opacity="1" fill-rule="nonzero"/><path fill="#211a15" d="M 212.335938 55.988281 C 212.335938 63.84375 205.953125 70.210938 198.082031 70.210938 C 190.210938 70.210938 183.832031 63.84375 183.832031 55.988281 C 183.832031 48.132812 190.210938 41.765625 198.082031 41.765625 C 205.953125 41.765625 212.335938 48.132812 212.335938 55.988281 " fill-opacity="1" fill-rule="nonzero"/><path fill="#211a15" d="M 222.378906 42.632812 C 222.378906 50.492188 215.996094 56.859375 208.125 56.859375 C 200.253906 56.859375 193.875 50.492188 193.875 42.632812 C 193.875 34.78125 200.253906 28.410156 208.125 28.410156 C 215.996094 28.410156 222.378906 34.78125 222.378906 42.632812 " fill-opacity="1" fill-rule="nonzero"/><path fill="#211a15" d="M 236.632812 58.214844 C 236.632812 66.070312 230.25 72.441406 222.378906 72.441406 C 214.507812 72.441406 208.125 66.070312 208.125 58.214844 C 208.125 50.359375 214.507812 43.992188 222.378906 43.992188 C 230.25 43.992188 236.632812 50.359375 236.632812 58.214844 " fill-opacity="1" fill-rule="nonzero"/><path fill="#211a15" d="M 236.632812 59.457031 L 236.347656 59.457031 C 236.347656 63.304688 234.785156 66.789062 232.257812 69.3125 C 229.726562 71.835938 226.234375 73.394531 222.378906 73.398438 C 218.519531 73.394531 215.03125 71.835938 212.5 69.3125 C 209.972656 66.789062 208.410156 63.304688 208.410156 59.457031 C 208.410156 55.605469 209.972656 52.125 212.5 49.597656 C 215.03125 47.074219 218.519531 45.515625 222.378906 45.515625 C 226.234375 45.515625 229.726562 47.074219 232.257812 49.597656 C 234.785156 52.125 236.347656 55.605469 236.347656 59.457031 L 236.914062 59.457031 C 236.914062 51.445312 230.40625 44.949219 222.378906 44.949219 C 214.351562 44.949219 207.84375 51.445312 207.84375 59.457031 C 207.84375 67.46875 214.351562 73.964844 222.378906 73.964844 C 230.40625 73.964844 236.914062 67.46875 236.914062 59.457031 L 236.632812 59.457031 " fill-opacity="1" fill-rule="nonzero"/><path fill="#211a15" d="M 243.070312 43.992188 C 243.070312 51.847656 236.6875 58.214844 228.816406 58.214844 C 220.945312 58.214844 214.5625 51.847656 214.5625 43.992188 C 214.5625 36.136719 220.945312 29.765625 228.816406 29.765625 C 236.6875 29.765625 243.070312 36.136719 243.070312 43.992188 " fill-opacity="1" fill-rule="nonzero"/><path fill="#211a15" d="M 256.257812 62.011719 C 256.257812 69.867188 249.875 76.238281 242.003906 76.238281 C 234.132812 76.238281 227.753906 69.867188 227.753906 62.011719 C 227.753906 54.15625 234.132812 47.789062 242.003906 47.789062 C 249.875 47.789062 256.257812 54.15625 256.257812 62.011719 " fill-opacity="1" fill-rule="nonzero"/><path fill="#95451d" d="M 183.832031 90.511719 C 183.832031 90.511719 180.898438 73.589844 168.613281 78.875 C 164.226562 80.757812 158.476562 89.226562 168.585938 97.933594 L 183.832031 90.511719 " fill-opacity="1" fill-rule="nonzero"/><path fill="#95451d" d="M 218.453125 144.324219 C 218.453125 150.433594 207.285156 155.386719 193.507812 155.386719 C 179.726562 155.386719 168.558594 150.433594 168.558594 144.324219 C 168.558594 138.210938 179.726562 133.257812 193.507812 133.257812 C 207.285156 133.257812 218.453125 138.210938 218.453125 144.324219 " fill-opacity="1" fill-rule="nonzero"/><path fill="#211a15" d="M 218.425781 139.460938 L 204.320312 140.980469 L 204.382812 141.542969 L 218.484375 140.023438 " fill-opacity="1" fill-rule="nonzero"/><path fill="#211a15" d="M 216.242188 87.671875 C 215.464844 86.328125 214.011719 85.421875 212.339844 85.421875 C 210.671875 85.421875 209.21875 86.328125 208.4375 87.671875 L 208.933594 87.953125 C 209.613281 86.777344 210.882812 85.988281 212.339844 85.988281 C 213.800781 85.988281 215.066406 86.777344 215.75 87.953125 L 216.242188 87.671875 " fill-opacity="1" fill-rule="nonzero"/><path fill="#211a15" d="M 239.777344 87.671875 C 239 86.328125 237.542969 85.421875 235.875 85.421875 C 234.207031 85.421875 232.753906 86.328125 231.972656 87.671875 L 232.464844 87.953125 C 233.148438 86.777344 234.417969 85.988281 235.875 85.988281 C 237.335938 85.988281 238.605469 86.777344 239.285156 87.953125 L 239.777344 87.671875 " fill-opacity="1" fill-rule="nonzero"/><path fill="#ffffff" d="M 283.390625 290.230469 L 320.667969 290.230469 L 320.667969 289.660156 L 283.390625 289.660156 Z M 283.390625 290.230469 " fill-opacity="1" fill-rule="nonzero"/><path fill="#ffffff" d="M 299.191406 289.945312 L 299.757812 289.945312 L 299.757812 277.042969 L 299.191406 277.042969 Z M 299.191406 289.945312 " fill-opacity="1" fill-rule="nonzero"/><path fill="#ffffff" d="M 178.8125 88.769531 C 179.207031 91.757812 177.097656 94.496094 174.105469 94.886719 C 171.113281 95.277344 168.371094 93.171875 167.980469 90.1875 C 167.585938 87.199219 169.695312 84.460938 172.6875 84.074219 C 175.679688 83.679688 178.421875 85.785156 178.8125 88.769531 " fill-opacity="1" fill-rule="nonzero"/><path fill="#ffffff" d="M 171.398438 90.675781 L 173.242188 100.570312 L 176.550781 100.136719 L 175.941406 89.539062 L 171.398438 90.675781 " fill-opacity="1" fill-rule="nonzero"/><path fill="#211a15" d="M 175.820312 89.1875 L 175.539062 89.226562 C 175.550781 89.3125 175.554688 89.394531 175.554688 89.480469 C 175.554688 90.445312 174.835938 91.289062 173.847656 91.417969 C 173.765625 91.429688 173.679688 91.433594 173.59375 91.433594 C 172.625 91.433594 171.78125 90.71875 171.652344 89.730469 C 171.640625 89.644531 171.636719 89.5625 171.636719 89.476562 C 171.636719 88.507812 172.355469 87.664062 173.339844 87.539062 L 173.433594 87.53125 C 173.726562 87.527344 174.253906 87.691406 174.691406 87.992188 C 175.132812 88.296875 175.476562 88.722656 175.539062 89.226562 L 175.820312 89.1875 L 176.101562 89.152344 C 176.003906 88.433594 175.535156 87.886719 175.011719 87.527344 C 174.480469 87.167969 173.894531 86.972656 173.433594 86.964844 C 173.375 86.964844 173.320312 86.972656 173.269531 86.976562 C 171.996094 87.144531 171.066406 88.226562 171.066406 89.476562 C 171.066406 89.585938 171.074219 89.695312 171.089844 89.808594 C 171.257812 91.074219 172.34375 92 173.59375 92 C 173.703125 92 173.8125 91.996094 173.925781 91.980469 C 175.195312 91.8125 176.125 90.730469 176.125 89.480469 C 176.125 89.375 176.117188 89.261719 176.101562 89.152344 L 175.820312 89.1875 " fill-opacity="1" fill-rule="nonzero"/><g clip-path="url(#9685e34e04)"><path fill="#ffffff" d="M 174.210938 95.742188 C 174.214844 95.773438 174.328125 143.257812 206.789062 180.488281 C 211.203125 185.546875 215.296875 190.722656 218.285156 196.003906 C 221.273438 201.285156 223.148438 206.667969 223.148438 212.15625 C 223.148438 220.832031 218.464844 229.832031 205.84375 239.207031 C 193.222656 248.570312 172.679688 258.269531 141.070312 268.269531 C 130.914062 271.484375 116.328125 276.214844 104.273438 280.84375 C 98.246094 283.160156 92.851562 285.449219 88.953125 287.515625 C 87 288.546875 85.425781 289.527344 84.320312 290.433594 C 83.765625 290.890625 83.332031 291.328125 83.027344 291.757812 C 82.722656 292.1875 82.542969 292.617188 82.542969 293.046875 C 82.539062 293.59375 82.847656 294.082031 83.386719 294.457031 C 84.195312 295.023438 85.542969 295.429688 87.558594 295.714844 C 89.570312 296 92.242188 296.148438 95.675781 296.148438 C 95.964844 296.148438 96.253906 296.148438 96.546875 296.148438 C 106.003906 296.078125 114.394531 292.523438 114.414062 292.515625 L 114.191406 291.992188 C 114.191406 291.992188 114.0625 292.046875 113.820312 292.144531 C 112.109375 292.816406 104.695312 295.523438 96.546875 295.582031 C 96.25 295.582031 95.960938 295.582031 95.675781 295.582031 C 91.125 295.582031 87.921875 295.3125 85.890625 294.835938 C 84.875 294.597656 84.15625 294.308594 83.714844 293.992188 C 83.269531 293.675781 83.113281 293.378906 83.109375 293.046875 C 83.109375 292.78125 83.226562 292.457031 83.488281 292.085938 C 83.980469 291.390625 84.964844 290.566406 86.339844 289.679688 C 91.160156 286.570312 100.734375 282.660156 111.171875 278.882812 C 121.605469 275.101562 132.914062 271.445312 141.242188 268.808594 C 172.882812 258.796875 193.476562 249.085938 206.179688 239.660156 C 218.886719 230.238281 223.71875 221.054688 223.71875 212.15625 C 223.71875 206.539062 221.796875 201.0625 218.78125 195.726562 C 215.761719 190.390625 211.640625 185.191406 207.21875 180.117188 C 191.0625 161.59375 182.953125 140.496094 178.878906 124.027344 C 176.84375 115.792969 175.820312 108.71875 175.300781 103.703125 C 175.042969 101.195312 174.910156 99.203125 174.84375 97.835938 C 174.8125 97.15625 174.796875 96.632812 174.789062 96.277344 C 174.777344 95.921875 174.777344 95.742188 174.777344 95.742188 L 174.210938 95.742188 " fill-opacity="1" fill-rule="nonzero"/></g><path fill="#ffffff" d="M 225.121094 138.855469 C 222.78125 148.425781 218.863281 156.011719 215.519531 162.472656 C 212.183594 168.933594 209.398438 174.269531 209.394531 179.402344 C 209.394531 181.339844 209.796875 183.242188 210.714844 185.140625 L 211.226562 184.894531 C 210.34375 183.070312 209.964844 181.261719 209.960938 179.402344 C 209.957031 174.484375 212.679688 169.191406 216.027344 162.730469 C 219.367188 156.269531 223.3125 148.636719 225.675781 138.988281 L 225.121094 138.855469 " fill-opacity="1" fill-rule="nonzero"/><g clip-path="url(#c087534031)"><path fill="#211a15" d="M 269.246094 295.863281 L 116.03125 295.863281 C 112.425781 295.863281 109.4375 293.078125 109.195312 289.488281 L 103.277344 201.480469 C 103.011719 197.535156 106.148438 194.191406 110.109375 194.191406 L 275.164062 194.191406 C 279.125 194.191406 282.261719 197.535156 281.996094 201.480469 L 276.078125 289.488281 C 275.835938 293.078125 272.847656 295.863281 269.246094 295.863281 " fill-opacity="1" fill-rule="nonzero"/></g><path fill="#ffffff" d="M 204.035156 247.039062 L 203.75 247.035156 C 203.699219 252.871094 198.730469 257.582031 192.636719 257.582031 C 186.542969 257.582031 181.574219 252.871094 181.523438 247.035156 L 181.523438 246.945312 C 181.523438 244.015625 182.757812 241.359375 184.765625 239.429688 C 186.777344 237.503906 189.554688 236.308594 192.636719 236.308594 C 195.71875 236.308594 198.5 237.503906 200.507812 239.429688 C 202.515625 241.359375 203.75 244.015625 203.75 246.941406 L 203.75 247.039062 L 204.035156 247.039062 L 203.75 247.035156 L 204.035156 247.039062 L 204.316406 247.035156 L 204.316406 246.941406 C 204.316406 243.851562 203.011719 241.050781 200.898438 239.023438 C 198.785156 236.996094 195.867188 235.738281 192.636719 235.738281 C 189.40625 235.738281 186.484375 236.996094 184.375 239.023438 C 182.261719 241.050781 180.953125 243.851562 180.957031 246.945312 L 180.957031 247.039062 C 181.011719 253.207031 186.25 258.148438 192.636719 258.148438 C 199.023438 258.148438 204.257812 253.207031 204.316406 247.039062 L 204.316406 247.035156 L 204.035156 247.039062 " fill-opacity="1" fill-rule="nonzero"/><g clip-path="url(#87152e9ed2)"><path fill="#211a15" d="M 54.75 296.148438 L 334.113281 296.148438 L 334.113281 295.582031 L 54.75 295.582031 Z M 54.75 296.148438 " fill-opacity="1" fill-rule="nonzero"/></g></svg>