<svg xmlns="http://www.w3.org/2000/svg" xmlns:xlink="http://www.w3.org/1999/xlink" width="50" zoomAndPan="magnify" viewBox="0 0 37.5 37.499999" height="50" preserveAspectRatio="xMidYMid meet" version="1.0"><defs><g/><clipPath id="fb864d4ee5"><path d="M 0 0 L 37.007812 0 L 37.007812 37.007812 L 0 37.007812 Z M 0 0 " clip-rule="nonzero"/></clipPath><clipPath id="d6e8e11515"><path d="M 8 8 L 30 8 L 30 29 L 8 29 Z M 8 8 " clip-rule="nonzero"/></clipPath><clipPath id="3445648f0d"><path d="M 33.492188 22.101562 L 15.054688 33.644531 L 3.914062 15.84375 L 22.347656 4.300781 Z M 33.492188 22.101562 " clip-rule="nonzero"/></clipPath><clipPath id="47ea42e969"><path d="M 33.492188 22.101562 L 15.054688 33.644531 L 3.914062 15.84375 L 22.347656 4.300781 Z M 33.492188 22.101562 " clip-rule="nonzero"/></clipPath><clipPath id="bf42f15936"><path d="M 10 26 L 21 26 L 21 30 L 10 30 Z M 10 26 " clip-rule="nonzero"/></clipPath><clipPath id="e0e3a31986"><path d="M 33.492188 22.101562 L 15.054688 33.644531 L 3.914062 15.84375 L 22.347656 4.300781 Z M 33.492188 22.101562 " clip-rule="nonzero"/></clipPath><clipPath id="cd7858089e"><path d="M 33.492188 22.101562 L 15.054688 33.644531 L 3.914062 15.84375 L 22.347656 4.300781 Z M 33.492188 22.101562 " clip-rule="nonzero"/></clipPath><clipPath id="1ab07a368d"><path d="M 7 20 L 9 20 L 9 23 L 7 23 Z M 7 20 " clip-rule="nonzero"/></clipPath><clipPath id="6b3fc150fd"><path d="M 33.492188 22.101562 L 15.054688 33.644531 L 3.914062 15.84375 L 22.347656 4.300781 Z M 33.492188 22.101562 " clip-rule="nonzero"/></clipPath><clipPath id="ae7bd4c8d5"><path d="M 33.492188 22.101562 L 15.054688 33.644531 L 3.914062 15.84375 L 22.347656 4.300781 Z M 33.492188 22.101562 " clip-rule="nonzero"/></clipPath><clipPath id="03313f6bc2"><path d="M 7 17 L 9 17 L 9 20 L 7 20 Z M 7 17 " clip-rule="nonzero"/></clipPath><clipPath id="adeb69392c"><path d="M 33.492188 22.101562 L 15.054688 33.644531 L 3.914062 15.84375 L 22.347656 4.300781 Z M 33.492188 22.101562 " clip-rule="nonzero"/></clipPath><clipPath id="43aecce091"><path d="M 33.492188 22.101562 L 15.054688 33.644531 L 3.914062 15.84375 L 22.347656 4.300781 Z M 33.492188 22.101562 " clip-rule="nonzero"/></clipPath><clipPath id="1c72709e94"><path d="M 8 15 L 9 15 L 9 17 L 8 17 Z M 8 15 " clip-rule="nonzero"/></clipPath><clipPath id="41f3401d94"><path d="M 33.492188 22.101562 L 15.054688 33.644531 L 3.914062 15.84375 L 22.347656 4.300781 Z M 33.492188 22.101562 " clip-rule="nonzero"/></clipPath><clipPath id="eb2d23b6c7"><path d="M 33.492188 22.101562 L 15.054688 33.644531 L 3.914062 15.84375 L 22.347656 4.300781 Z M 33.492188 22.101562 " clip-rule="nonzero"/></clipPath><clipPath id="a1d3a93cd2"><path d="M 8 21 L 9 21 L 9 23 L 8 23 Z M 8 21 " clip-rule="nonzero"/></clipPath><clipPath id="4e04fb54d1"><path d="M 33.492188 22.101562 L 15.054688 33.644531 L 3.914062 15.84375 L 22.347656 4.300781 Z M 33.492188 22.101562 " clip-rule="nonzero"/></clipPath><clipPath id="be7c38e497"><path d="M 33.492188 22.101562 L 15.054688 33.644531 L 3.914062 15.84375 L 22.347656 4.300781 Z M 33.492188 22.101562 " clip-rule="nonzero"/></clipPath><clipPath id="addd7c06b9"><path d="M 8 22 L 10 22 L 10 25 L 8 25 Z M 8 22 " clip-rule="nonzero"/></clipPath><clipPath id="c5e215d5e7"><path d="M 33.492188 22.101562 L 15.054688 33.644531 L 3.914062 15.84375 L 22.347656 4.300781 Z M 33.492188 22.101562 " clip-rule="nonzero"/></clipPath><clipPath id="df8e1d2085"><path d="M 33.492188 22.101562 L 15.054688 33.644531 L 3.914062 15.84375 L 22.347656 4.300781 Z M 33.492188 22.101562 " clip-rule="nonzero"/></clipPath><clipPath id="d3f41afd8e"><path d="M 8 17 L 9 17 L 9 19 L 8 19 Z M 8 17 " clip-rule="nonzero"/></clipPath><clipPath id="aca5ed7f09"><path d="M 33.492188 22.101562 L 15.054688 33.644531 L 3.914062 15.84375 L 22.347656 4.300781 Z M 33.492188 22.101562 " clip-rule="nonzero"/></clipPath><clipPath id="5f8ee8c1c7"><path d="M 33.492188 22.101562 L 15.054688 33.644531 L 3.914062 15.84375 L 22.347656 4.300781 Z M 33.492188 22.101562 " clip-rule="nonzero"/></clipPath><clipPath id="b4ba18f502"><path d="M 29 21 L 31 21 L 31 23 L 29 23 Z M 29 21 " clip-rule="nonzero"/></clipPath><clipPath id="6fe337d0d9"><path d="M 33.492188 22.101562 L 15.054688 33.644531 L 3.914062 15.84375 L 22.347656 4.300781 Z M 33.492188 22.101562 " clip-rule="nonzero"/></clipPath><clipPath id="93168c1958"><path d="M 33.492188 22.101562 L 15.054688 33.644531 L 3.914062 15.84375 L 22.347656 4.300781 Z M 33.492188 22.101562 " clip-rule="nonzero"/></clipPath><clipPath id="fd2c89d3ec"><path d="M 12 27 L 13 27 L 13 28 L 12 28 Z M 12 27 " clip-rule="nonzero"/></clipPath><clipPath id="396189115d"><path d="M 33.492188 22.101562 L 15.054688 33.644531 L 3.914062 15.84375 L 22.347656 4.300781 Z M 33.492188 22.101562 " clip-rule="nonzero"/></clipPath><clipPath id="7552e1ef0f"><path d="M 33.492188 22.101562 L 15.054688 33.644531 L 3.914062 15.84375 L 22.347656 4.300781 Z M 33.492188 22.101562 " clip-rule="nonzero"/></clipPath><clipPath id="108b0a5ee3"><path d="M 7 18 L 8 18 L 8 19 L 7 19 Z M 7 18 " clip-rule="nonzero"/></clipPath><clipPath id="a4d38ad2cf"><path d="M 33.492188 22.101562 L 15.054688 33.644531 L 3.914062 15.84375 L 22.347656 4.300781 Z M 33.492188 22.101562 " clip-rule="nonzero"/></clipPath><clipPath id="a1f4c31b18"><path d="M 33.492188 22.101562 L 15.054688 33.644531 L 3.914062 15.84375 L 22.347656 4.300781 Z M 33.492188 22.101562 " clip-rule="nonzero"/></clipPath><clipPath id="7084aa4b2c"><path d="M 10 25 L 12 25 L 12 27 L 10 27 Z M 10 25 " clip-rule="nonzero"/></clipPath><clipPath id="4fee9aa337"><path d="M 33.492188 22.101562 L 15.054688 33.644531 L 3.914062 15.84375 L 22.347656 4.300781 Z M 33.492188 22.101562 " clip-rule="nonzero"/></clipPath><clipPath id="ea7e1113aa"><path d="M 33.492188 22.101562 L 15.054688 33.644531 L 3.914062 15.84375 L 22.347656 4.300781 Z M 33.492188 22.101562 " clip-rule="nonzero"/></clipPath><clipPath id="5a6b58ad04"><path d="M 9 22 L 10 22 L 10 24 L 9 24 Z M 9 22 " clip-rule="nonzero"/></clipPath><clipPath id="ce7bf4259a"><path d="M 33.492188 22.101562 L 15.054688 33.644531 L 3.914062 15.84375 L 22.347656 4.300781 Z M 33.492188 22.101562 " clip-rule="nonzero"/></clipPath><clipPath id="67b1ec9a77"><path d="M 33.492188 22.101562 L 15.054688 33.644531 L 3.914062 15.84375 L 22.347656 4.300781 Z M 33.492188 22.101562 " clip-rule="nonzero"/></clipPath><clipPath id="e800534615"><path d="M 23 28 L 24 28 L 24 29 L 23 29 Z M 23 28 " clip-rule="nonzero"/></clipPath><clipPath id="f39a8fef32"><path d="M 33.492188 22.101562 L 15.054688 33.644531 L 3.914062 15.84375 L 22.347656 4.300781 Z M 33.492188 22.101562 " clip-rule="nonzero"/></clipPath><clipPath id="caf590af70"><path d="M 33.492188 22.101562 L 15.054688 33.644531 L 3.914062 15.84375 L 22.347656 4.300781 Z M 33.492188 22.101562 " clip-rule="nonzero"/></clipPath><clipPath id="47b3025496"><path d="M 30 18 L 31 18 L 31 19 L 30 19 Z M 30 18 " clip-rule="nonzero"/></clipPath><clipPath id="315d2841f1"><path d="M 33.492188 22.101562 L 15.054688 33.644531 L 3.914062 15.84375 L 22.347656 4.300781 Z M 33.492188 22.101562 " clip-rule="nonzero"/></clipPath><clipPath id="2f4bb3abc1"><path d="M 33.492188 22.101562 L 15.054688 33.644531 L 3.914062 15.84375 L 22.347656 4.300781 Z M 33.492188 22.101562 " clip-rule="nonzero"/></clipPath><clipPath id="1fd60a4a9a"><path d="M 7 18 L 8 18 L 8 19 L 7 19 Z M 7 18 " clip-rule="nonzero"/></clipPath><clipPath id="6635bfcfaf"><path d="M 33.492188 22.101562 L 15.054688 33.644531 L 3.914062 15.84375 L 22.347656 4.300781 Z M 33.492188 22.101562 " clip-rule="nonzero"/></clipPath><clipPath id="d8492aac3c"><path d="M 33.492188 22.101562 L 15.054688 33.644531 L 3.914062 15.84375 L 22.347656 4.300781 Z M 33.492188 22.101562 " clip-rule="nonzero"/></clipPath><clipPath id="098823f26a"><path d="M 10 23 L 11 23 L 11 24 L 10 24 Z M 10 23 " clip-rule="nonzero"/></clipPath><clipPath id="7ff3fa09d0"><path d="M 33.492188 22.101562 L 15.054688 33.644531 L 3.914062 15.84375 L 22.347656 4.300781 Z M 33.492188 22.101562 " clip-rule="nonzero"/></clipPath><clipPath id="51cdd7903d"><path d="M 33.492188 22.101562 L 15.054688 33.644531 L 3.914062 15.84375 L 22.347656 4.300781 Z M 33.492188 22.101562 " clip-rule="nonzero"/></clipPath><clipPath id="84a6df9758"><path d="M 12 27 L 13 27 L 13 28 L 12 28 Z M 12 27 " clip-rule="nonzero"/></clipPath><clipPath id="7951a1c142"><path d="M 33.492188 22.101562 L 15.054688 33.644531 L 3.914062 15.84375 L 22.347656 4.300781 Z M 33.492188 22.101562 " clip-rule="nonzero"/></clipPath><clipPath id="49cfbd69dc"><path d="M 33.492188 22.101562 L 15.054688 33.644531 L 3.914062 15.84375 L 22.347656 4.300781 Z M 33.492188 22.101562 " clip-rule="nonzero"/></clipPath><clipPath id="d60565666a"><path d="M 11 24 L 12 24 L 12 26 L 11 26 Z M 11 24 " clip-rule="nonzero"/></clipPath><clipPath id="33e85a411a"><path d="M 33.492188 22.101562 L 15.054688 33.644531 L 3.914062 15.84375 L 22.347656 4.300781 Z M 33.492188 22.101562 " clip-rule="nonzero"/></clipPath><clipPath id="5fc477ea2c"><path d="M 33.492188 22.101562 L 15.054688 33.644531 L 3.914062 15.84375 L 22.347656 4.300781 Z M 33.492188 22.101562 " clip-rule="nonzero"/></clipPath><clipPath id="54b9174aa7"><path d="M 8 18 L 9 18 L 9 19 L 8 19 Z M 8 18 " clip-rule="nonzero"/></clipPath><clipPath id="93cb7418bf"><path d="M 33.492188 22.101562 L 15.054688 33.644531 L 3.914062 15.84375 L 22.347656 4.300781 Z M 33.492188 22.101562 " clip-rule="nonzero"/></clipPath><clipPath id="33a9327747"><path d="M 33.492188 22.101562 L 15.054688 33.644531 L 3.914062 15.84375 L 22.347656 4.300781 Z M 33.492188 22.101562 " clip-rule="nonzero"/></clipPath><clipPath id="bca2ccdc2e"><path d="M 14 28 L 15 28 L 15 29 L 14 29 Z M 14 28 " clip-rule="nonzero"/></clipPath><clipPath id="ff347b0e26"><path d="M 33.492188 22.101562 L 15.054688 33.644531 L 3.914062 15.84375 L 22.347656 4.300781 Z M 33.492188 22.101562 " clip-rule="nonzero"/></clipPath><clipPath id="d660c002cb"><path d="M 33.492188 22.101562 L 15.054688 33.644531 L 3.914062 15.84375 L 22.347656 4.300781 Z M 33.492188 22.101562 " clip-rule="nonzero"/></clipPath><clipPath id="b47f64060b"><path d="M 18 8 L 19 8 L 19 9 L 18 9 Z M 18 8 " clip-rule="nonzero"/></clipPath><clipPath id="13fe1aa8b7"><path d="M 33.492188 22.101562 L 15.054688 33.644531 L 3.914062 15.84375 L 22.347656 4.300781 Z M 33.492188 22.101562 " clip-rule="nonzero"/></clipPath><clipPath id="f54fbcb0d3"><path d="M 33.492188 22.101562 L 15.054688 33.644531 L 3.914062 15.84375 L 22.347656 4.300781 Z M 33.492188 22.101562 " clip-rule="nonzero"/></clipPath><clipPath id="28d3301dc7"><path d="M 8 25 L 10.070312 25 L 10.070312 27 L 8 27 Z M 8 25 " clip-rule="nonzero"/></clipPath><clipPath id="75a27f598a"><path d="M 7.820312 25 L 10 25 L 10 27.554688 L 7.820312 27.554688 Z M 7.820312 25 " clip-rule="nonzero"/></clipPath><clipPath id="d4262ee7af"><path d="M 7.820312 24.554688 L 9 24.554688 L 9 26 L 7.820312 26 Z M 7.820312 24.554688 " clip-rule="nonzero"/></clipPath></defs><g clip-path="url(#fb864d4ee5)"><path fill="#ffffff" d="M 0 0 L 37.5 0 L 37.5 45 L 0 45 Z M 0 0 " fill-opacity="1" fill-rule="nonzero"/><path fill="#ffffff" d="M 0 0 L 37.5 0 L 37.5 37.5 L 0 37.5 Z M 0 0 " fill-opacity="1" fill-rule="nonzero"/><path fill="#f7afb1" d="M 0 0 L 37.5 0 L 37.5 37.5 L 0 37.5 Z M 0 0 " fill-opacity="1" fill-rule="nonzero"/></g><g clip-path="url(#d6e8e11515)"><g clip-path="url(#3445648f0d)"><g clip-path="url(#47ea42e969)"><path fill="#ffffff" d="M 25.875 11.066406 L 25.878906 11.058594 L 25.808594 11 Z M 10.609375 25.207031 C 10.5625 25.128906 10.582031 25.113281 10.667969 25.195312 C 10.785156 25.308594 10.90625 25.425781 11.035156 25.566406 C 11.296875 25.820312 11.585938 26.066406 11.863281 26.320312 C 12.679688 26.984375 13.597656 27.523438 14.578125 27.929688 L 15.292969 28.195312 L 16.035156 28.390625 C 16.238281 28.449219 16.449219 28.472656 16.652344 28.5 C 16.867188 28.53125 17.0625 28.550781 17.214844 28.5625 C 17.367188 28.566406 17.476562 28.550781 17.519531 28.527344 C 17.582031 28.496094 17.78125 28.492188 18.097656 28.503906 C 18.996094 28.492188 19.894531 28.421875 20.808594 28.1875 L 21.171875 28.101562 L 21.523438 27.980469 C 21.625 27.945312 21.722656 27.890625 21.667969 27.898438 C 21.621094 27.90625 21.5625 27.917969 21.492188 27.9375 C 21.382812 27.972656 21.261719 28.007812 21.144531 28.042969 C 20.242188 28.257812 19.335938 28.390625 18.429688 28.363281 C 18.019531 28.359375 17.609375 28.308594 17.199219 28.269531 C 16.875 28.207031 16.550781 28.164062 16.269531 28.082031 C 16.058594 28.011719 15.816406 27.949219 15.578125 27.882812 C 15.226562 27.78125 14.890625 27.628906 14.550781 27.507812 C 14.226562 27.339844 13.890625 27.191406 13.582031 27.007812 C 13.558594 26.996094 13.53125 26.972656 13.53125 26.964844 C 13.53125 26.960938 13.554688 26.96875 13.570312 26.976562 C 13.84375 27.140625 14.152344 27.25 14.433594 27.398438 C 14.996094 27.644531 15.570312 27.835938 16.164062 27.964844 C 16.28125 27.996094 16.402344 28.027344 16.523438 28.042969 C 17.558594 28.273438 18.640625 28.292969 19.699219 28.175781 C 19.945312 28.144531 20.195312 28.128906 20.425781 28.074219 C 21.308594 27.945312 22.171875 27.617188 23.007812 27.238281 C 23.851562 26.785156 24.675781 26.273438 25.375 25.617188 C 26.566406 24.566406 27.453125 23.210938 28.027344 21.757812 C 28.414062 20.761719 28.652344 19.710938 28.722656 18.648438 C 28.78125 17.550781 28.648438 16.445312 28.34375 15.394531 C 28.28125 15.203125 28.230469 15.003906 28.164062 14.8125 L 27.933594 14.253906 C 27.472656 13.214844 26.835938 12.253906 26.046875 11.429688 C 25.898438 11.292969 25.75 11.152344 25.601562 11.015625 C 24.894531 10.40625 24.125 9.863281 23.265625 9.464844 C 23.019531 9.328125 22.75 9.226562 22.476562 9.128906 L 22.070312 8.976562 L 21.648438 8.863281 C 21.371094 8.792969 21.09375 8.707031 20.804688 8.671875 L 20.613281 8.628906 C 20.675781 8.636719 20.730469 8.640625 20.796875 8.644531 C 20.90625 8.65625 21.019531 8.671875 21.132812 8.683594 L 21.105469 8.679688 C 21.394531 8.742188 21.6875 8.8125 21.988281 8.886719 C 22.28125 8.972656 22.566406 9.085938 22.859375 9.1875 C 22.964844 9.21875 23.054688 9.253906 23.140625 9.289062 C 23.15625 9.292969 23.152344 9.285156 23.140625 9.273438 C 23.125 9.261719 23.085938 9.238281 23.054688 9.222656 C 22.75 9.09375 22.433594 8.984375 22.125 8.863281 C 21.765625 8.761719 21.40625 8.660156 21.039062 8.585938 C 20.140625 8.425781 19.222656 8.386719 18.308594 8.449219 C 17.773438 8.511719 17.234375 8.566406 16.742188 8.722656 C 16.53125 8.78125 16.261719 8.828125 16.027344 8.917969 L 15.429688 9.113281 C 15.230469 9.179688 15.042969 9.28125 14.851562 9.363281 C 14.457031 9.515625 14.097656 9.730469 13.730469 9.9375 C 12.871094 10.460938 12.046875 11.066406 11.371094 11.808594 C 11.140625 12.023438 10.957031 12.277344 10.757812 12.519531 C 10.550781 12.753906 10.382812 13.019531 10.214844 13.289062 C 10.132812 13.429688 10.023438 13.570312 9.949219 13.714844 C 9.492188 14.503906 9.140625 15.363281 8.898438 16.242188 C 8.628906 17.292969 8.515625 18.355469 8.558594 19.414062 C 8.589844 19.839844 8.609375 20.257812 8.691406 20.660156 C 8.742188 21.070312 8.851562 21.460938 8.957031 21.855469 C 9.03125 22.207031 9.164062 22.480469 9.199219 22.6875 C 9.25 22.902344 9.242188 22.976562 9.105469 22.761719 C 9.054688 22.679688 9 22.589844 8.960938 22.542969 C 8.886719 22.449219 8.8125 22.335938 8.742188 22.175781 C 8.6875 22.011719 8.625 21.808594 8.554688 21.542969 C 8.484375 21.308594 8.441406 21.070312 8.40625 20.824219 C 8.371094 20.582031 8.304688 20.335938 8.285156 20.082031 C 8.273438 19.914062 8.261719 19.746094 8.25 19.582031 C 8.226562 19.277344 8.246094 19.175781 8.289062 19.351562 C 8.3125 19.449219 8.339844 19.566406 8.363281 19.660156 C 8.382812 19.734375 8.40625 19.667969 8.398438 19.542969 C 8.382812 19.324219 8.390625 19.105469 8.402344 18.871094 C 8.378906 17.953125 8.542969 17.027344 8.769531 16.136719 C 8.804688 16.015625 8.84375 15.886719 8.878906 15.769531 C 9.195312 14.664062 9.722656 13.640625 10.390625 12.714844 C 11.246094 11.550781 12.347656 10.5625 13.597656 9.8125 L 14.269531 9.4375 C 15.382812 8.886719 16.585938 8.53125 17.808594 8.394531 C 18.25 8.320312 18.699219 8.339844 19.144531 8.320312 C 19.367188 8.320312 19.589844 8.34375 19.808594 8.355469 C 20.03125 8.367188 20.25 8.378906 20.46875 8.421875 C 21.675781 8.578125 22.855469 8.96875 23.921875 9.523438 C 24.835938 10.015625 25.660156 10.652344 26.382812 11.328125 C 26.636719 11.617188 26.953125 11.902344 27.183594 12.238281 C 27.28125 12.367188 27.386719 12.511719 27.472656 12.632812 C 27.871094 13.164062 28.21875 13.796875 28.492188 14.453125 C 28.625 14.714844 28.691406 15.003906 28.792969 15.277344 C 28.894531 15.554688 28.964844 15.839844 29.019531 16.132812 C 29.222656 16.957031 29.25 17.824219 29.21875 18.675781 C 29.132812 19.605469 28.960938 20.523438 28.644531 21.402344 C 28.503906 21.804688 28.328125 22.191406 28.152344 22.582031 C 27.703125 23.527344 27.097656 24.328125 26.425781 25.078125 C 26.246094 25.253906 26.070312 25.425781 25.894531 25.59375 C 25.070312 26.324219 24.125 26.984375 23.085938 27.496094 C 22.929688 27.5625 22.769531 27.632812 22.617188 27.699219 L 22.210938 27.886719 C 22.070312 27.9375 21.929688 27.980469 21.789062 28.03125 C 21.503906 28.121094 21.226562 28.234375 20.929688 28.285156 C 20.71875 28.332031 20.53125 28.394531 20.53125 28.417969 C 20.53125 28.4375 20.6875 28.425781 20.878906 28.390625 C 21.210938 28.347656 21.535156 28.222656 21.867188 28.117188 C 22.023438 28.0625 22.191406 28.03125 22.34375 27.960938 C 22.480469 27.902344 22.566406 27.902344 22.460938 27.957031 C 22.34375 28.023438 22.214844 28.089844 22.070312 28.136719 C 22.003906 28.164062 21.910156 28.195312 21.832031 28.222656 C 21.632812 28.285156 21.433594 28.34375 21.238281 28.40625 L 20.636719 28.542969 C 20.238281 28.65625 19.832031 28.6875 19.429688 28.75 C 19.050781 28.800781 18.648438 28.78125 18.261719 28.800781 L 17.226562 28.722656 C 16.839844 28.652344 16.464844 28.605469 16.113281 28.503906 C 15.882812 28.4375 15.644531 28.367188 15.402344 28.292969 C 15.164062 28.222656 14.929688 28.113281 14.691406 28.027344 C 14.40625 27.933594 14.140625 27.792969 13.878906 27.675781 C 13.480469 27.523438 13.148438 27.296875 12.808594 27.066406 C 12.527344 26.890625 12.300781 26.683594 12.023438 26.511719 C 11.816406 26.386719 11.632812 26.21875 11.441406 26.054688 C 11.253906 25.886719 11.042969 25.738281 10.878906 25.546875 C 10.789062 25.453125 10.660156 25.289062 10.609375 25.207031 " fill-opacity="1" fill-rule="nonzero"/></g></g></g><g clip-path="url(#bf42f15936)"><g clip-path="url(#e0e3a31986)"><g clip-path="url(#cd7858089e)"><path fill="#ffffff" d="M 19.5 29.863281 C 19.019531 29.90625 18.582031 29.875 18.210938 29.863281 C 17.871094 29.8125 17.457031 29.78125 17.015625 29.75 C 16.71875 29.703125 16.46875 29.660156 16.246094 29.601562 C 16.046875 29.558594 15.835938 29.484375 15.601562 29.40625 C 15.203125 29.28125 15.023438 29.199219 14.960938 29.136719 C 14.945312 29.117188 14.867188 29.074219 14.785156 29.035156 C 14.746094 29.015625 14.628906 28.976562 14.550781 28.949219 C 14.515625 28.933594 14.46875 28.921875 14.457031 28.921875 C 14.351562 28.914062 14.117188 28.882812 13.699219 28.671875 C 13.320312 28.484375 12.945312 28.320312 12.625 28.085938 C 12.375 27.910156 12.109375 27.765625 11.878906 27.5625 C 11.675781 27.398438 11.472656 27.230469 11.265625 27.0625 C 11.164062 26.980469 11.0625 26.875 10.964844 26.789062 C 10.910156 26.738281 10.832031 26.675781 10.808594 26.664062 C 10.785156 26.652344 10.792969 26.675781 10.828125 26.714844 C 10.960938 26.847656 11.089844 27.003906 11.25 27.140625 C 11.585938 27.402344 11.910156 27.714844 12.273438 27.941406 C 12.648438 28.195312 13.023438 28.449219 13.429688 28.648438 C 13.820312 28.878906 14.242188 29.046875 14.667969 29.21875 C 14.90625 29.332031 15.179688 29.394531 15.441406 29.476562 C 15.636719 29.53125 15.832031 29.597656 16.03125 29.644531 L 16.636719 29.761719 C 16.90625 29.820312 17.179688 29.859375 17.457031 29.878906 C 17.734375 29.898438 18.011719 29.9375 18.289062 29.941406 L 18.300781 29.9375 C 18.773438 29.925781 19.246094 29.953125 19.722656 29.882812 C 19.859375 29.867188 20.003906 29.851562 20.144531 29.835938 C 20.179688 29.828125 20.246094 29.816406 20.246094 29.816406 C 20.234375 29.808594 20.226562 29.796875 20.175781 29.800781 C 19.957031 29.820312 19.730469 29.839844 19.5 29.863281 " fill-opacity="1" fill-rule="nonzero"/></g></g></g><g clip-path="url(#1ab07a368d)"><g clip-path="url(#6b3fc150fd)"><g clip-path="url(#ae7bd4c8d5)"><path fill="#ffffff" d="M 8.25 22.570312 C 8.125 22.21875 8.050781 21.851562 7.945312 21.484375 C 7.90625 21.371094 7.882812 21.226562 7.855469 21.09375 C 7.808594 20.882812 7.75 20.699219 7.726562 20.691406 C 7.703125 20.6875 7.707031 20.847656 7.742188 21.046875 C 7.761719 21.128906 7.777344 21.222656 7.792969 21.308594 C 7.804688 21.351562 7.8125 21.398438 7.824219 21.441406 C 7.925781 21.769531 7.9375 21.886719 7.863281 21.746094 C 7.804688 21.625 7.71875 21.472656 7.664062 21.25 C 7.574219 20.917969 7.488281 20.648438 7.414062 20.457031 C 7.355469 20.3125 7.328125 20.226562 7.304688 20.355469 C 7.296875 20.402344 7.316406 20.53125 7.332031 20.640625 C 7.351562 20.753906 7.386719 20.914062 7.414062 21.015625 C 7.46875 21.214844 7.507812 21.296875 7.539062 21.324219 C 7.574219 21.363281 7.601562 21.414062 7.691406 21.628906 C 7.933594 22.21875 8.046875 22.421875 8.265625 22.730469 C 8.308594 22.796875 8.300781 22.699219 8.25 22.570312 " fill-opacity="1" fill-rule="nonzero"/></g></g></g><g clip-path="url(#03313f6bc2)"><g clip-path="url(#adeb69392c)"><g clip-path="url(#43aecce091)"><path fill="#ffffff" d="M 8.019531 19.226562 C 8.003906 18.945312 7.972656 18.816406 7.949219 18.621094 C 7.9375 18.460938 7.914062 18.257812 7.953125 18.050781 C 7.964844 17.949219 7.976562 17.871094 7.988281 17.789062 C 7.992188 17.75 7.996094 17.695312 8 17.664062 C 8.003906 17.59375 8.007812 17.488281 8.003906 17.472656 C 7.960938 17.339844 7.855469 17.667969 7.792969 18.136719 C 7.773438 18.230469 7.789062 18.402344 7.796875 18.480469 C 7.804688 18.5625 7.820312 18.582031 7.832031 18.621094 C 7.855469 18.691406 7.871094 18.828125 7.878906 19.054688 C 7.875 19.257812 7.917969 19.464844 7.941406 19.660156 C 7.953125 19.730469 7.96875 19.796875 7.976562 19.820312 C 8.019531 19.917969 8.046875 19.886719 8.054688 19.699219 C 8.0625 19.613281 8.035156 19.363281 8.019531 19.226562 " fill-opacity="1" fill-rule="nonzero"/></g></g></g><g clip-path="url(#1c72709e94)"><g clip-path="url(#41f3401d94)"><g clip-path="url(#eb2d23b6c7)"><path fill="#ffffff" d="M 8.25 16.144531 C 8.386719 15.613281 8.433594 15.304688 8.429688 15.136719 C 8.429688 15.121094 8.382812 15.214844 8.375 15.25 C 8.292969 15.546875 8.210938 15.839844 8.128906 16.132812 C 8.0625 16.460938 8.070312 16.566406 8.082031 16.636719 C 8.089844 16.648438 8.09375 16.664062 8.105469 16.667969 C 8.132812 16.683594 8.195312 16.425781 8.25 16.144531 " fill-opacity="1" fill-rule="nonzero"/></g></g></g><g clip-path="url(#a1d3a93cd2)"><g clip-path="url(#4e04fb54d1)"><g clip-path="url(#be7c38e497)"><path fill="#ffffff" d="M 8.425781 22.496094 C 8.449219 22.515625 8.476562 22.542969 8.476562 22.511719 C 8.46875 22.40625 8.429688 22.167969 8.359375 21.832031 C 8.347656 21.773438 8.316406 21.664062 8.296875 21.601562 C 8.253906 21.5 8.222656 21.417969 8.195312 21.347656 C 8.179688 21.339844 8.160156 21.3125 8.160156 21.332031 C 8.144531 21.453125 8.179688 21.707031 8.269531 22.097656 C 8.296875 22.226562 8.390625 22.476562 8.425781 22.496094 " fill-opacity="1" fill-rule="nonzero"/></g></g></g><g clip-path="url(#addd7c06b9)"><g clip-path="url(#c5e215d5e7)"><g clip-path="url(#df8e1d2085)"><path fill="#ffffff" d="M 8.941406 23.574219 C 9.023438 23.710938 9.152344 23.9375 9.28125 24.167969 C 9.335938 24.261719 9.394531 24.320312 9.375 24.269531 C 9.296875 24.042969 9.125 23.691406 8.929688 23.3125 C 8.839844 23.09375 8.703125 22.84375 8.695312 22.898438 C 8.699219 22.960938 8.742188 23.222656 8.941406 23.574219 " fill-opacity="1" fill-rule="nonzero"/></g></g></g><g clip-path="url(#d3f41afd8e)"><g clip-path="url(#aca5ed7f09)"><g clip-path="url(#5f8ee8c1c7)"><path fill="#ffffff" d="M 8.058594 18.464844 C 8.0625 18.5 8.078125 18.484375 8.082031 18.441406 C 8.089844 18.355469 8.085938 18.234375 8.113281 18.105469 C 8.128906 17.914062 8.148438 17.707031 8.167969 17.507812 C 8.171875 17.445312 8.171875 17.367188 8.164062 17.34375 C 8.160156 17.324219 8.148438 17.339844 8.136719 17.382812 C 8.085938 17.65625 8 18.207031 8.058594 18.464844 " fill-opacity="1" fill-rule="nonzero"/></g></g></g><g clip-path="url(#b4ba18f502)"><g clip-path="url(#6fe337d0d9)"><g clip-path="url(#93168c1958)"><path fill="#ffffff" d="M 30.003906 21.386719 C 29.914062 21.652344 29.847656 21.921875 29.746094 22.171875 C 29.738281 22.203125 29.734375 22.230469 29.738281 22.226562 C 29.742188 22.226562 29.757812 22.199219 29.773438 22.167969 C 29.929688 21.828125 30 21.460938 30.109375 21.109375 C 30.117188 21.074219 30.121094 21.050781 30.125 21.023438 C 30.113281 21.058594 30.101562 21.089844 30.085938 21.128906 C 30.058594 21.210938 30.03125 21.300781 30.003906 21.386719 " fill-opacity="1" fill-rule="nonzero"/></g></g></g><g clip-path="url(#fd2c89d3ec)"><g clip-path="url(#396189115d)"><g clip-path="url(#7552e1ef0f)"><path fill="#ffffff" d="M 12.515625 27.347656 C 12.507812 27.339844 12.472656 27.3125 12.433594 27.285156 C 12.34375 27.230469 12.25 27.148438 12.148438 27.078125 C 12.125 27.058594 12.089844 27.039062 12.082031 27.035156 C 12.054688 27.03125 12.09375 27.066406 12.175781 27.128906 C 12.273438 27.203125 12.371094 27.28125 12.476562 27.335938 C 12.496094 27.347656 12.519531 27.351562 12.515625 27.347656 " fill-opacity="1" fill-rule="nonzero"/></g></g></g><g clip-path="url(#108b0a5ee3)"><g clip-path="url(#a4d38ad2cf)"><g clip-path="url(#a1f4c31b18)"><path fill="#ffffff" d="M 7.316406 18.292969 C 7.308594 18.253906 7.300781 18.277344 7.296875 18.367188 C 7.296875 18.417969 7.304688 18.480469 7.308594 18.523438 C 7.3125 18.535156 7.316406 18.507812 7.320312 18.484375 C 7.328125 18.410156 7.324219 18.34375 7.316406 18.292969 " fill-opacity="1" fill-rule="nonzero"/></g></g></g><g clip-path="url(#7084aa4b2c)"><g clip-path="url(#4fee9aa337)"><g clip-path="url(#ea7e1113aa)"><path fill="#ffffff" d="M 10.917969 25.882812 C 10.933594 25.902344 10.945312 25.917969 10.96875 25.941406 C 11.019531 25.992188 11.082031 26.058594 11.132812 26.101562 C 11.199219 26.164062 11.21875 26.167969 11.179688 26.121094 C 11.125 26.050781 11.019531 25.949219 10.949219 25.894531 C 10.929688 25.878906 10.929688 25.886719 10.917969 25.882812 " fill-opacity="1" fill-rule="nonzero"/></g></g></g><g clip-path="url(#5a6b58ad04)"><g clip-path="url(#ce7bf4259a)"><g clip-path="url(#67b1ec9a77)"><path fill="#ffffff" d="M 9.160156 23.144531 C 9.183594 23.175781 9.175781 23.132812 9.132812 23.035156 C 9.121094 23.007812 9.105469 22.980469 9.089844 22.953125 C 9.066406 22.929688 9.078125 22.96875 9.117188 23.066406 C 9.132812 23.09375 9.152344 23.136719 9.160156 23.144531 " fill-opacity="1" fill-rule="nonzero"/></g></g></g><g clip-path="url(#e800534615)"><g clip-path="url(#f39a8fef32)"><g clip-path="url(#caf590af70)"><path fill="#ffffff" d="M 23.324219 28.410156 C 23.296875 28.433594 23.339844 28.421875 23.441406 28.378906 C 23.472656 28.363281 23.535156 28.335938 23.542969 28.328125 C 23.566406 28.308594 23.523438 28.320312 23.425781 28.359375 C 23.390625 28.378906 23.332031 28.402344 23.324219 28.410156 " fill-opacity="1" fill-rule="nonzero"/></g></g></g><g clip-path="url(#47b3025496)"><g clip-path="url(#315d2841f1)"><g clip-path="url(#2f4bb3abc1)"><path fill="#ffffff" d="M 30.519531 18.671875 L 30.53125 18.644531 C 30.527344 18.570312 30.527344 18.496094 30.523438 18.429688 C 30.523438 18.421875 30.519531 18.445312 30.515625 18.457031 L 30.519531 18.671875 " fill-opacity="1" fill-rule="nonzero"/></g></g></g><g clip-path="url(#1fd60a4a9a)"><g clip-path="url(#6635bfcfaf)"><g clip-path="url(#d8492aac3c)"><path fill="#ffffff" d="M 7.574219 18.941406 C 7.578125 18.941406 7.582031 18.917969 7.585938 18.886719 C 7.589844 18.789062 7.585938 18.730469 7.574219 18.722656 C 7.570312 18.742188 7.5625 18.75 7.5625 18.777344 C 7.558594 18.878906 7.5625 18.941406 7.574219 18.941406 " fill-opacity="1" fill-rule="nonzero"/></g></g></g><g clip-path="url(#098823f26a)"><g clip-path="url(#7ff3fa09d0)"><g clip-path="url(#51cdd7903d)"><path fill="#ffffff" d="M 10.085938 23.929688 C 10.097656 23.945312 10.117188 23.96875 10.117188 23.964844 C 10.117188 23.960938 10.097656 23.925781 10.085938 23.90625 L 10.046875 23.867188 C 10.058594 23.886719 10.074219 23.910156 10.085938 23.929688 " fill-opacity="1" fill-rule="nonzero"/></g></g></g><g clip-path="url(#84a6df9758)"><g clip-path="url(#7951a1c142)"><g clip-path="url(#49cfbd69dc)"><path fill="#ffffff" d="M 12.351562 27.675781 C 12.332031 27.664062 12.3125 27.65625 12.296875 27.648438 C 12.316406 27.664062 12.34375 27.683594 12.363281 27.695312 C 12.382812 27.710938 12.402344 27.714844 12.417969 27.722656 C 12.394531 27.707031 12.371094 27.6875 12.351562 27.675781 " fill-opacity="1" fill-rule="nonzero"/></g></g></g><g clip-path="url(#d60565666a)"><g clip-path="url(#33e85a411a)"><g clip-path="url(#5fc477ea2c)"><path fill="#ffffff" d="M 11.175781 25.03125 C 11.15625 25.007812 11.132812 24.980469 11.121094 24.964844 C 11.101562 24.941406 11.074219 24.917969 11.070312 24.917969 C 11.054688 24.921875 11.085938 24.960938 11.144531 25.015625 C 11.164062 25.03125 11.164062 25.027344 11.175781 25.03125 " fill-opacity="1" fill-rule="nonzero"/></g></g></g><g clip-path="url(#54b9174aa7)"><g clip-path="url(#93cb7418bf)"><g clip-path="url(#33a9327747)"><path fill="#ffffff" d="M 8.277344 18.105469 L 8.265625 18.171875 L 8.269531 18.207031 Z M 8.277344 18.105469 " fill-opacity="1" fill-rule="nonzero"/></g></g></g><g clip-path="url(#bca2ccdc2e)"><g clip-path="url(#ff347b0e26)"><g clip-path="url(#d660c002cb)"><path fill="#ffffff" d="M 14.042969 28.652344 L 14.136719 28.6875 L 14.105469 28.667969 Z M 14.042969 28.652344 " fill-opacity="1" fill-rule="nonzero"/></g></g></g><g clip-path="url(#b47f64060b)"><g clip-path="url(#13fe1aa8b7)"><g clip-path="url(#f54fbcb0d3)"><path fill="#ffffff" d="M 18.703125 8.5 L 18.757812 8.492188 L 18.667969 8.492188 Z M 18.703125 8.5 " fill-opacity="1" fill-rule="nonzero"/></g></g></g><g clip-path="url(#28d3301dc7)"><path fill="#ffffff" d="M 9.429688 25.480469 L 9.492188 25.09375 C 9.5 25.066406 9.535156 25.066406 9.539062 25.09375 L 9.601562 25.480469 C 9.617188 25.582031 9.699219 25.664062 9.800781 25.683594 L 10.042969 25.734375 C 10.066406 25.742188 10.066406 25.773438 10.042969 25.78125 L 9.800781 25.832031 C 9.699219 25.851562 9.617188 25.933594 9.601562 26.035156 L 9.539062 26.421875 C 9.535156 26.449219 9.5 26.449219 9.492188 26.421875 L 9.429688 26.035156 C 9.414062 25.933594 9.335938 25.851562 9.230469 25.832031 L 8.992188 25.78125 C 8.96875 25.773438 8.96875 25.742188 8.992188 25.734375 L 9.230469 25.683594 C 9.335938 25.664062 9.414062 25.582031 9.429688 25.480469 Z M 9.429688 25.480469 " fill-opacity="1" fill-rule="nonzero"/><path fill="#ffffff" d="M 9.515625 26.453125 C 9.503906 26.453125 9.488281 26.445312 9.484375 26.425781 L 9.421875 26.035156 C 9.40625 25.9375 9.332031 25.863281 9.230469 25.839844 L 8.992188 25.789062 C 8.976562 25.785156 8.964844 25.773438 8.964844 25.757812 C 8.964844 25.746094 8.976562 25.730469 8.992188 25.730469 L 9.230469 25.679688 C 9.332031 25.65625 9.410156 25.578125 9.421875 25.480469 L 9.484375 25.09375 C 9.488281 25.074219 9.503906 25.066406 9.515625 25.066406 C 9.53125 25.066406 9.546875 25.074219 9.546875 25.089844 L 9.609375 25.480469 C 9.628906 25.578125 9.703125 25.65625 9.804688 25.675781 L 10.042969 25.726562 C 10.058594 25.730469 10.070312 25.742188 10.070312 25.757812 C 10.070312 25.773438 10.058594 25.785156 10.042969 25.789062 L 9.804688 25.839844 C 9.703125 25.859375 9.625 25.9375 9.609375 26.035156 L 9.546875 26.425781 C 9.546875 26.441406 9.53125 26.453125 9.515625 26.453125 Z M 9.515625 25.082031 C 9.511719 25.082031 9.503906 25.085938 9.503906 25.09375 L 9.441406 25.484375 C 9.421875 25.585938 9.339844 25.671875 9.234375 25.691406 L 8.992188 25.742188 C 8.984375 25.746094 8.980469 25.753906 8.980469 25.757812 C 8.980469 25.761719 8.984375 25.769531 8.992188 25.773438 L 9.234375 25.824219 C 9.34375 25.847656 9.421875 25.929688 9.441406 26.03125 L 9.503906 26.421875 C 9.503906 26.429688 9.511719 26.433594 9.515625 26.433594 C 9.523438 26.433594 9.53125 26.429688 9.53125 26.421875 L 9.59375 26.03125 C 9.609375 25.929688 9.691406 25.847656 9.800781 25.824219 L 10.039062 25.773438 C 10.050781 25.769531 10.050781 25.761719 10.050781 25.757812 C 10.050781 25.753906 10.050781 25.746094 10.039062 25.742188 L 9.800781 25.691406 C 9.691406 25.667969 9.613281 25.585938 9.59375 25.484375 L 9.53125 25.09375 C 9.53125 25.085938 9.523438 25.082031 9.515625 25.082031 Z M 9.515625 25.082031 " fill-opacity="1" fill-rule="nonzero"/></g><g clip-path="url(#75a27f598a)"><path fill="#ffffff" d="M 8.394531 26.375 L 8.46875 25.898438 C 8.472656 25.867188 8.519531 25.867188 8.527344 25.898438 L 8.601562 26.375 C 8.621094 26.5 8.71875 26.597656 8.847656 26.625 L 9.140625 26.683594 C 9.167969 26.691406 9.167969 26.730469 9.140625 26.738281 L 8.847656 26.800781 C 8.71875 26.824219 8.621094 26.925781 8.601562 27.046875 L 8.527344 27.523438 C 8.523438 27.554688 8.476562 27.554688 8.46875 27.523438 L 8.394531 27.046875 C 8.375 26.925781 8.277344 26.828125 8.148438 26.800781 L 7.855469 26.738281 C 7.828125 26.730469 7.828125 26.691406 7.855469 26.683594 L 8.148438 26.625 C 8.277344 26.597656 8.375 26.5 8.394531 26.375 Z M 8.394531 26.375 " fill-opacity="1" fill-rule="nonzero"/><path fill="#ffffff" d="M 8.5 27.554688 C 8.480469 27.554688 8.464844 27.542969 8.460938 27.523438 L 8.386719 27.050781 C 8.367188 26.929688 8.273438 26.835938 8.148438 26.808594 L 7.855469 26.746094 C 7.835938 26.742188 7.824219 26.726562 7.828125 26.710938 C 7.828125 26.695312 7.839844 26.679688 7.855469 26.675781 L 8.148438 26.617188 C 8.273438 26.589844 8.367188 26.492188 8.386719 26.375 L 8.460938 25.898438 C 8.464844 25.875 8.484375 25.867188 8.5 25.867188 C 8.515625 25.867188 8.535156 25.878906 8.535156 25.898438 L 8.613281 26.375 C 8.632812 26.492188 8.726562 26.589844 8.851562 26.617188 L 9.144531 26.675781 C 9.164062 26.679688 9.171875 26.699219 9.171875 26.710938 C 9.171875 26.730469 9.160156 26.742188 9.140625 26.746094 L 8.847656 26.808594 C 8.726562 26.832031 8.628906 26.929688 8.613281 27.046875 L 8.535156 27.523438 C 8.53125 27.546875 8.515625 27.554688 8.5 27.554688 Z M 8.402344 26.375 C 8.382812 26.5 8.28125 26.605469 8.152344 26.632812 L 7.859375 26.691406 C 7.847656 26.695312 7.84375 26.703125 7.839844 26.710938 C 7.839844 26.71875 7.84375 26.726562 7.859375 26.730469 L 8.152344 26.792969 C 8.28125 26.820312 8.378906 26.917969 8.402344 27.046875 L 8.476562 27.523438 C 8.480469 27.535156 8.492188 27.539062 8.5 27.539062 C 8.507812 27.539062 8.515625 27.535156 8.515625 27.523438 L 8.59375 27.046875 C 8.613281 26.921875 8.714844 26.816406 8.84375 26.789062 L 9.136719 26.730469 C 9.148438 26.726562 9.152344 26.71875 9.152344 26.710938 C 9.152344 26.703125 9.148438 26.695312 9.136719 26.691406 L 8.84375 26.632812 C 8.710938 26.601562 8.613281 26.503906 8.59375 26.375 L 8.515625 25.898438 C 8.515625 25.886719 8.503906 25.882812 8.496094 25.882812 C 8.488281 25.882812 8.480469 25.886719 8.476562 25.898438 Z M 8.402344 26.375 " fill-opacity="1" fill-rule="nonzero"/></g><g clip-path="url(#d4262ee7af)"><path fill="#ffffff" d="M 8.210938 24.839844 L 8.253906 24.578125 C 8.253906 24.5625 8.28125 24.5625 8.285156 24.578125 L 8.328125 24.839844 C 8.335938 24.910156 8.390625 24.964844 8.460938 24.976562 L 8.625 25.011719 C 8.640625 25.015625 8.640625 25.039062 8.625 25.042969 L 8.460938 25.078125 C 8.390625 25.089844 8.335938 25.144531 8.324219 25.214844 L 8.28125 25.476562 C 8.28125 25.492188 8.253906 25.492188 8.25 25.476562 L 8.210938 25.214844 C 8.199219 25.144531 8.144531 25.089844 8.074219 25.078125 L 7.914062 25.042969 C 7.898438 25.039062 7.898438 25.015625 7.914062 25.011719 L 8.074219 24.976562 C 8.144531 24.964844 8.199219 24.910156 8.210938 24.839844 Z M 8.210938 24.839844 " fill-opacity="1" fill-rule="nonzero"/><path fill="#ffffff" d="M 8.265625 25.5 C 8.253906 25.5 8.242188 25.492188 8.242188 25.476562 L 8.199219 25.214844 C 8.191406 25.152344 8.140625 25.097656 8.074219 25.085938 L 7.910156 25.050781 C 7.898438 25.046875 7.894531 25.039062 7.894531 25.027344 C 7.894531 25.015625 7.902344 25.003906 7.910156 25.003906 L 8.074219 24.96875 C 8.140625 24.957031 8.191406 24.902344 8.199219 24.839844 L 8.242188 24.574219 C 8.246094 24.5625 8.253906 24.554688 8.269531 24.554688 C 8.28125 24.554688 8.292969 24.5625 8.292969 24.574219 L 8.335938 24.839844 C 8.34375 24.902344 8.398438 24.957031 8.460938 24.96875 L 8.625 25.003906 C 8.636719 25.007812 8.644531 25.015625 8.644531 25.027344 C 8.644531 25.039062 8.636719 25.050781 8.625 25.050781 L 8.460938 25.085938 C 8.398438 25.097656 8.34375 25.152344 8.335938 25.214844 L 8.292969 25.480469 C 8.289062 25.488281 8.28125 25.5 8.265625 25.5 Z M 8.21875 24.84375 C 8.207031 24.914062 8.152344 24.972656 8.078125 24.984375 L 7.914062 25.019531 C 7.910156 25.019531 7.910156 25.023438 7.910156 25.027344 C 7.910156 25.027344 7.910156 25.03125 7.914062 25.03125 L 8.078125 25.066406 C 8.148438 25.082031 8.207031 25.140625 8.21875 25.210938 L 8.261719 25.476562 C 8.261719 25.480469 8.265625 25.480469 8.265625 25.480469 C 8.269531 25.480469 8.273438 25.480469 8.273438 25.476562 L 8.316406 25.210938 C 8.328125 25.140625 8.386719 25.082031 8.460938 25.070312 L 8.621094 25.035156 C 8.625 25.03125 8.628906 25.027344 8.628906 25.027344 C 8.628906 25.027344 8.628906 25.023438 8.621094 25.019531 L 8.460938 24.984375 C 8.386719 24.96875 8.328125 24.914062 8.316406 24.84375 L 8.277344 24.578125 C 8.273438 24.574219 8.269531 24.574219 8.269531 24.574219 C 8.269531 24.574219 8.261719 24.574219 8.261719 24.578125 Z M 8.21875 24.84375 " fill-opacity="1" fill-rule="nonzero"/></g><g fill="#ffffff" fill-opacity="1"><g transform="translate(10.858967, 19.221934)"><g><path d="M 7.046875 1.796875 C 7.054688 1.816406 7.0625 1.84375 7.0625 1.875 C 7.070312 1.914062 7.054688 1.9375 7.015625 1.9375 C 6.910156 1.957031 6.835938 1.925781 6.796875 1.84375 C 6.765625 1.769531 6.734375 1.695312 6.703125 1.625 C 6.648438 1.457031 6.601562 1.285156 6.5625 1.109375 C 6.53125 0.929688 6.492188 0.75 6.453125 0.5625 C 6.421875 0.40625 6.394531 0.25 6.375 0.09375 C 6.363281 -0.0195312 6.347656 -0.132812 6.328125 -0.25 C 6.316406 -0.300781 6.300781 -0.332031 6.28125 -0.34375 C 6.269531 -0.351562 6.234375 -0.363281 6.171875 -0.375 C 5.992188 -0.375 5.820312 -0.378906 5.65625 -0.390625 C 5.476562 -0.390625 5.296875 -0.394531 5.109375 -0.40625 C 5.066406 -0.40625 5.03125 -0.394531 5 -0.375 C 4.976562 -0.363281 4.957031 -0.335938 4.9375 -0.296875 C 4.78125 0.128906 4.613281 0.546875 4.4375 0.953125 C 4.3125 1.210938 4.171875 1.46875 4.015625 1.71875 C 3.867188 1.976562 3.703125 2.21875 3.515625 2.4375 C 3.347656 2.644531 3.15625 2.828125 2.9375 2.984375 C 2.726562 3.148438 2.492188 3.25 2.234375 3.28125 C 1.890625 3.332031 1.570312 3.257812 1.28125 3.0625 C 1.101562 2.9375 0.945312 2.789062 0.8125 2.625 C 0.382812 2.070312 0.109375 1.445312 -0.015625 0.75 C -0.0351562 0.625 -0.0390625 0.5 -0.03125 0.375 L -0.03125 0.359375 C -0.03125 0.335938 -0.03125 0.3125 -0.03125 0.28125 C 0.0195312 -0.0195312 0.179688 -0.234375 0.453125 -0.359375 C 0.566406 -0.410156 0.675781 -0.445312 0.78125 -0.46875 C 0.894531 -0.488281 1.007812 -0.5 1.125 -0.5 C 1.46875 -0.519531 1.800781 -0.535156 2.125 -0.546875 C 2.675781 -0.554688 3.222656 -0.566406 3.765625 -0.578125 C 3.953125 -0.566406 4.140625 -0.5625 4.328125 -0.5625 C 4.410156 -0.5625 4.503906 -0.5625 4.609375 -0.5625 C 4.671875 -0.550781 4.710938 -0.550781 4.734375 -0.5625 C 4.753906 -0.582031 4.769531 -0.617188 4.78125 -0.671875 C 4.820312 -0.796875 4.863281 -0.914062 4.90625 -1.03125 C 5.21875 -1.96875 5.476562 -2.910156 5.6875 -3.859375 C 5.832031 -4.460938 5.957031 -5.054688 6.0625 -5.640625 C 6.09375 -5.835938 6.117188 -6.03125 6.140625 -6.21875 C 6.148438 -6.3125 6.160156 -6.398438 6.171875 -6.484375 C 6.171875 -6.492188 6.175781 -6.503906 6.1875 -6.515625 C 6.1875 -6.546875 6.1875 -6.570312 6.1875 -6.59375 C 6.1875 -6.644531 6.203125 -6.675781 6.234375 -6.6875 C 6.265625 -6.707031 6.300781 -6.710938 6.34375 -6.703125 C 6.382812 -6.710938 6.410156 -6.703125 6.421875 -6.671875 C 6.441406 -6.648438 6.453125 -6.613281 6.453125 -6.5625 C 6.429688 -6.382812 6.414062 -6.207031 6.40625 -6.03125 C 6.394531 -5.945312 6.390625 -5.863281 6.390625 -5.78125 C 6.347656 -5.300781 6.332031 -4.800781 6.34375 -4.28125 C 6.332031 -3.6875 6.34375 -3.097656 6.375 -2.515625 C 6.394531 -1.898438 6.445312 -1.296875 6.53125 -0.703125 C 6.53125 -0.671875 6.535156 -0.640625 6.546875 -0.609375 C 6.554688 -0.597656 6.5625 -0.582031 6.5625 -0.5625 C 6.570312 -0.507812 6.601562 -0.484375 6.65625 -0.484375 C 6.757812 -0.472656 6.867188 -0.460938 6.984375 -0.453125 C 7.046875 -0.460938 7.097656 -0.445312 7.140625 -0.40625 C 7.160156 -0.394531 7.171875 -0.378906 7.171875 -0.359375 C 7.171875 -0.335938 7.160156 -0.320312 7.140625 -0.3125 C 7.128906 -0.3125 7.117188 -0.3125 7.109375 -0.3125 C 7.054688 -0.320312 7 -0.328125 6.9375 -0.328125 C 6.914062 -0.335938 6.890625 -0.34375 6.859375 -0.34375 C 6.847656 -0.34375 6.832031 -0.34375 6.8125 -0.34375 C 6.769531 -0.34375 6.726562 -0.34375 6.6875 -0.34375 C 6.613281 -0.34375 6.585938 -0.304688 6.609375 -0.234375 C 6.609375 -0.191406 6.613281 -0.148438 6.625 -0.109375 C 6.65625 0.0664062 6.679688 0.242188 6.703125 0.421875 C 6.742188 0.648438 6.789062 0.878906 6.84375 1.109375 C 6.894531 1.347656 6.960938 1.578125 7.046875 1.796875 Z M 4.640625 -0.296875 C 4.660156 -0.335938 4.664062 -0.367188 4.65625 -0.390625 C 4.644531 -0.410156 4.613281 -0.414062 4.5625 -0.40625 C 4.34375 -0.414062 4.125 -0.421875 3.90625 -0.421875 C 3.863281 -0.410156 3.820312 -0.410156 3.78125 -0.421875 C 3.289062 -0.421875 2.800781 -0.410156 2.3125 -0.390625 C 1.96875 -0.378906 1.613281 -0.363281 1.25 -0.34375 C 1.082031 -0.332031 0.921875 -0.304688 0.765625 -0.265625 C 0.441406 -0.160156 0.269531 0.0546875 0.25 0.390625 C 0.238281 0.503906 0.238281 0.613281 0.25 0.71875 C 0.269531 0.863281 0.300781 1.003906 0.34375 1.140625 C 0.394531 1.273438 0.441406 1.410156 0.484375 1.546875 C 0.617188 1.910156 0.8125 2.242188 1.0625 2.546875 C 1.1875 2.722656 1.335938 2.863281 1.515625 2.96875 C 1.785156 3.164062 2.082031 3.191406 2.40625 3.046875 C 2.59375 2.972656 2.757812 2.863281 2.90625 2.71875 C 3.132812 2.507812 3.332031 2.28125 3.5 2.03125 C 3.851562 1.488281 4.160156 0.910156 4.421875 0.296875 C 4.492188 0.109375 4.566406 -0.0859375 4.640625 -0.296875 Z M 6.25 -0.515625 C 6.257812 -0.523438 6.265625 -0.53125 6.265625 -0.53125 C 6.140625 -1.632812 6.070312 -2.753906 6.0625 -3.890625 C 6.070312 -3.921875 6.070312 -3.957031 6.0625 -4 C 6.0625 -4 6.054688 -4.003906 6.046875 -4.015625 C 6.046875 -4.023438 6.039062 -4.039062 6.03125 -4.0625 C 6.019531 -3.96875 6 -3.875 5.96875 -3.78125 C 5.925781 -3.570312 5.875 -3.363281 5.8125 -3.15625 C 5.75 -2.875 5.675781 -2.582031 5.59375 -2.28125 C 5.550781 -2.113281 5.503906 -1.953125 5.453125 -1.796875 C 5.410156 -1.671875 5.375 -1.550781 5.34375 -1.4375 C 5.300781 -1.300781 5.257812 -1.175781 5.21875 -1.0625 C 5.15625 -0.90625 5.101562 -0.742188 5.0625 -0.578125 C 5.132812 -0.566406 5.25 -0.554688 5.40625 -0.546875 C 5.5625 -0.535156 5.71875 -0.523438 5.875 -0.515625 C 6.039062 -0.515625 6.164062 -0.515625 6.25 -0.515625 Z M 6.25 -0.515625 "/></g></g></g><g fill="#ffffff" fill-opacity="1"><g transform="translate(18.088546, 19.8747)"><g><path d="M 5.96875 -0.40625 C 5.988281 -0.382812 5.992188 -0.359375 5.984375 -0.328125 C 5.984375 -0.304688 5.96875 -0.28125 5.9375 -0.25 C 5.914062 -0.21875 5.894531 -0.191406 5.875 -0.171875 C 5.863281 -0.160156 5.859375 -0.15625 5.859375 -0.15625 C 5.691406 0.0390625 5.539062 0.25 5.40625 0.46875 C 5.269531 0.695312 5.144531 0.925781 5.03125 1.15625 C 4.976562 1.25 4.925781 1.34375 4.875 1.4375 C 4.78125 1.632812 4.675781 1.832031 4.5625 2.03125 C 4.382812 2.363281 4.203125 2.695312 4.015625 3.03125 C 3.941406 3.144531 3.863281 3.253906 3.78125 3.359375 C 3.71875 3.453125 3.625 3.492188 3.5 3.484375 C 3.40625 3.472656 3.351562 3.421875 3.34375 3.328125 C 3.320312 3.253906 3.316406 3.175781 3.328125 3.09375 C 3.335938 2.769531 3.367188 2.457031 3.421875 2.15625 C 3.460938 1.9375 3.5 1.722656 3.53125 1.515625 C 3.570312 1.273438 3.613281 1.039062 3.65625 0.8125 C 3.75 0.289062 3.847656 -0.234375 3.953125 -0.765625 C 4.078125 -1.359375 4.195312 -1.957031 4.3125 -2.5625 C 4.53125 -3.582031 4.734375 -4.597656 4.921875 -5.609375 C 4.929688 -5.679688 4.9375 -5.738281 4.9375 -5.78125 C 4.9375 -5.820312 4.925781 -5.835938 4.90625 -5.828125 C 4.894531 -5.816406 4.867188 -5.765625 4.828125 -5.671875 C 4.429688 -4.828125 4.070312 -3.96875 3.75 -3.09375 C 3.726562 -3.0625 3.710938 -3.03125 3.703125 -3 C 3.503906 -2.488281 3.300781 -1.976562 3.09375 -1.46875 C 3.007812 -1.28125 2.921875 -1.082031 2.828125 -0.875 C 2.734375 -0.664062 2.625 -0.472656 2.5 -0.296875 C 2.46875 -0.242188 2.425781 -0.207031 2.375 -0.1875 C 2.320312 -0.175781 2.265625 -0.175781 2.203125 -0.1875 C 2.140625 -0.207031 2.097656 -0.242188 2.078125 -0.296875 C 2.046875 -0.347656 2.035156 -0.40625 2.046875 -0.46875 C 2.035156 -0.550781 2.03125 -0.632812 2.03125 -0.71875 C 2.019531 -0.875 2.023438 -1.035156 2.046875 -1.203125 C 2.046875 -1.648438 2.035156 -2.109375 2.015625 -2.578125 C 2.003906 -3.046875 1.972656 -3.507812 1.921875 -3.96875 C 1.898438 -4.082031 1.859375 -4.082031 1.796875 -3.96875 C 1.742188 -3.851562 1.671875 -3.65625 1.578125 -3.375 C 1.492188 -3.101562 1.394531 -2.785156 1.28125 -2.421875 C 1.175781 -2.066406 1.070312 -1.703125 0.96875 -1.328125 C 0.875 -0.960938 0.785156 -0.617188 0.703125 -0.296875 C 0.578125 0.179688 0.492188 0.488281 0.453125 0.625 C 0.421875 0.71875 0.378906 0.800781 0.328125 0.875 C 0.304688 0.914062 0.28125 0.941406 0.25 0.953125 C 0.21875 0.972656 0.179688 0.972656 0.140625 0.953125 C 0.0546875 0.941406 0.00390625 0.890625 -0.015625 0.796875 C -0.015625 0.753906 -0.015625 0.707031 -0.015625 0.65625 C -0.015625 0.625 -0.0078125 0.585938 0 0.546875 C 0 0.410156 0.00390625 0.269531 0.015625 0.125 C 0.0976562 -0.988281 0.207031 -2.101562 0.34375 -3.21875 C 0.425781 -3.914062 0.507812 -4.613281 0.59375 -5.3125 C 0.59375 -5.394531 0.597656 -5.472656 0.609375 -5.546875 C 0.617188 -5.617188 0.625 -5.6875 0.625 -5.75 C 0.632812 -5.8125 0.660156 -5.851562 0.703125 -5.875 C 0.742188 -5.894531 0.789062 -5.890625 0.84375 -5.859375 C 0.863281 -5.847656 0.878906 -5.832031 0.890625 -5.8125 C 0.898438 -5.800781 0.90625 -5.785156 0.90625 -5.765625 C 0.90625 -5.578125 0.894531 -5.390625 0.875 -5.203125 C 0.851562 -5.078125 0.835938 -4.957031 0.828125 -4.84375 C 0.785156 -4.53125 0.75 -4.210938 0.71875 -3.890625 C 0.65625 -3.472656 0.609375 -3.0625 0.578125 -2.65625 C 0.535156 -2.351562 0.5 -2.054688 0.46875 -1.765625 C 0.4375 -1.441406 0.40625 -1.117188 0.375 -0.796875 C 0.351562 -0.578125 0.332031 -0.351562 0.3125 -0.125 C 0.3125 -0.113281 0.304688 -0.09375 0.296875 -0.0625 C 0.296875 -0.03125 0.300781 -0.00390625 0.3125 0.015625 C 0.320312 0.046875 0.328125 0.0703125 0.328125 0.09375 C 0.328125 0.113281 0.332031 0.117188 0.34375 0.109375 C 0.363281 0.0976562 0.375 0.0664062 0.375 0.015625 C 0.414062 -0.117188 0.457031 -0.273438 0.5 -0.453125 C 0.601562 -0.867188 0.722656 -1.320312 0.859375 -1.8125 C 0.992188 -2.3125 1.132812 -2.78125 1.28125 -3.21875 C 1.4375 -3.664062 1.59375 -4.007812 1.75 -4.25 C 1.8125 -4.34375 1.878906 -4.378906 1.953125 -4.359375 C 2.035156 -4.347656 2.097656 -4.296875 2.140625 -4.203125 C 2.191406 -4.035156 2.226562 -3.835938 2.25 -3.609375 C 2.269531 -3.390625 2.285156 -3.15625 2.296875 -2.90625 C 2.304688 -2.664062 2.3125 -2.441406 2.3125 -2.234375 C 2.3125 -2.117188 2.3125 -2.015625 2.3125 -1.921875 C 2.3125 -1.785156 2.3125 -1.65625 2.3125 -1.53125 C 2.3125 -1.226562 2.316406 -0.992188 2.328125 -0.828125 C 2.347656 -0.671875 2.378906 -0.585938 2.421875 -0.578125 C 2.472656 -0.578125 2.539062 -0.675781 2.625 -0.875 C 2.71875 -1.070312 2.851562 -1.378906 3.03125 -1.796875 C 3.1875 -2.191406 3.335938 -2.578125 3.484375 -2.953125 C 3.660156 -3.441406 3.847656 -3.925781 4.046875 -4.40625 C 4.242188 -4.894531 4.46875 -5.394531 4.71875 -5.90625 C 4.789062 -6.0625 4.863281 -6.179688 4.9375 -6.265625 C 5.007812 -6.359375 5.078125 -6.410156 5.140625 -6.421875 C 5.160156 -6.421875 5.179688 -6.410156 5.203125 -6.390625 C 5.234375 -6.378906 5.253906 -6.351562 5.265625 -6.3125 C 5.285156 -6.269531 5.289062 -6.195312 5.28125 -6.09375 C 5.269531 -5.914062 5.25 -5.742188 5.21875 -5.578125 C 5.195312 -5.410156 5.171875 -5.238281 5.140625 -5.0625 C 5.128906 -5.039062 5.125 -5.019531 5.125 -5 C 4.96875 -4.125 4.789062 -3.25 4.59375 -2.375 C 4.476562 -1.800781 4.363281 -1.226562 4.25 -0.65625 C 4.25 -0.644531 4.25 -0.632812 4.25 -0.625 C 4.132812 -0.09375 4.023438 0.441406 3.921875 0.984375 C 3.847656 1.460938 3.769531 1.925781 3.6875 2.375 C 3.6875 2.414062 3.6875 2.457031 3.6875 2.5 C 3.65625 2.625 3.632812 2.75 3.625 2.875 C 3.625 2.914062 3.625 2.957031 3.625 3 C 3.625 3.007812 3.617188 3.019531 3.609375 3.03125 C 3.609375 3.039062 3.617188 3.046875 3.640625 3.046875 C 3.640625 3.046875 3.644531 3.046875 3.65625 3.046875 C 3.664062 3.046875 3.671875 3.046875 3.671875 3.046875 C 3.859375 2.734375 4.039062 2.425781 4.21875 2.125 C 4.394531 1.832031 4.566406 1.535156 4.734375 1.234375 C 4.910156 0.941406 5.09375 0.648438 5.28125 0.359375 C 5.4375 0.117188 5.570312 -0.0664062 5.6875 -0.203125 C 5.8125 -0.347656 5.90625 -0.414062 5.96875 -0.40625 Z M 5.96875 -0.40625 "/></g></g></g><g fill="#ffffff" fill-opacity="1"><g transform="translate(12.938254, 12.810251)"><g><path d="M 0.015625 -0.015625 L -0.28125 -0.734375 L -0.21875 -0.796875 L 0.46875 -0.4375 L 0.40625 -0.390625 L 0.203125 -0.484375 L -0.015625 -0.28125 L 0.078125 -0.078125 Z M -0.046875 -0.34375 L 0.15625 -0.53125 L -0.21875 -0.703125 Z M -0.046875 -0.34375 "/></g></g></g><g fill="#ffffff" fill-opacity="1"><g transform="translate(13.979865, 11.910932)"><g><path d="M 0.453125 -0.296875 L -0.21875 -0.640625 L 0.140625 -0.09375 L 0.09375 -0.0625 L -0.3125 -0.671875 L -0.21875 -0.734375 L 0.40625 -0.40625 L 0.0625 -0.921875 L 0.109375 -0.953125 L 0.515625 -0.34375 Z M 0.453125 -0.296875 "/></g></g></g><g fill="#ffffff" fill-opacity="1"><g transform="translate(15.215288, 11.182299)"><g><path d="M 0.03125 -0.015625 L -0.015625 -0.78125 L 0.078125 -0.828125 L 0.59375 -0.25 L 0.515625 -0.21875 L 0.375 -0.390625 L 0.09375 -0.28125 L 0.09375 -0.046875 Z M 0.078125 -0.34375 L 0.328125 -0.453125 L 0.03125 -0.75 Z M 0.078125 -0.34375 "/></g></g></g><g fill="#ffffff" fill-opacity="1"><g transform="translate(16.516528, 10.705449)"><g/></g></g><g fill="#ffffff" fill-opacity="1"><g transform="translate(17.492577, 10.492998)"><g><path d="M 0.65625 -0.0625 L 0.59375 -0.71875 L 0.421875 -0.25 L 0.375 -0.234375 L 0.109375 -0.671875 L 0.171875 -0.015625 L 0.109375 -0.015625 L 0.046875 -0.75 L 0.140625 -0.75 L 0.390625 -0.34375 L 0.5625 -0.796875 L 0.65625 -0.796875 L 0.71875 -0.0625 Z M 0.65625 -0.0625 "/></g></g></g><g fill="#ffffff" fill-opacity="1"><g transform="translate(19.018422, 10.426373)"><g><path d="M 0.6875 -0.3125 C 0.6875 -0.25 0.675781 -0.191406 0.65625 -0.140625 C 0.644531 -0.0976562 0.625 -0.0625 0.59375 -0.03125 C 0.570312 0 0.539062 0.0195312 0.5 0.03125 C 0.457031 0.0507812 0.410156 0.0546875 0.359375 0.046875 C 0.304688 0.046875 0.257812 0.0351562 0.21875 0.015625 C 0.1875 -0.00390625 0.160156 -0.03125 0.140625 -0.0625 C 0.128906 -0.101562 0.117188 -0.148438 0.109375 -0.203125 C 0.109375 -0.253906 0.109375 -0.3125 0.109375 -0.375 C 0.117188 -0.425781 0.128906 -0.472656 0.140625 -0.515625 C 0.160156 -0.554688 0.179688 -0.59375 0.203125 -0.625 C 0.222656 -0.664062 0.253906 -0.691406 0.296875 -0.703125 C 0.335938 -0.710938 0.382812 -0.71875 0.4375 -0.71875 C 0.488281 -0.707031 0.53125 -0.691406 0.5625 -0.671875 C 0.601562 -0.660156 0.632812 -0.632812 0.65625 -0.59375 C 0.675781 -0.5625 0.6875 -0.519531 0.6875 -0.46875 C 0.695312 -0.414062 0.695312 -0.363281 0.6875 -0.3125 Z M 0.609375 -0.3125 C 0.617188 -0.363281 0.617188 -0.410156 0.609375 -0.453125 C 0.609375 -0.492188 0.597656 -0.523438 0.578125 -0.546875 C 0.566406 -0.578125 0.546875 -0.597656 0.515625 -0.609375 C 0.492188 -0.628906 0.460938 -0.644531 0.421875 -0.65625 C 0.378906 -0.65625 0.34375 -0.648438 0.3125 -0.640625 C 0.289062 -0.628906 0.269531 -0.609375 0.25 -0.578125 C 0.226562 -0.554688 0.210938 -0.523438 0.203125 -0.484375 C 0.203125 -0.453125 0.195312 -0.410156 0.1875 -0.359375 C 0.1875 -0.304688 0.1875 -0.257812 0.1875 -0.21875 C 0.1875 -0.175781 0.191406 -0.140625 0.203125 -0.109375 C 0.222656 -0.0859375 0.242188 -0.0664062 0.265625 -0.046875 C 0.285156 -0.0234375 0.316406 -0.015625 0.359375 -0.015625 C 0.398438 -0.00390625 0.4375 -0.00390625 0.46875 -0.015625 C 0.5 -0.0351562 0.523438 -0.0546875 0.546875 -0.078125 C 0.566406 -0.109375 0.582031 -0.140625 0.59375 -0.171875 C 0.601562 -0.210938 0.609375 -0.257812 0.609375 -0.3125 Z M 0.609375 -0.3125 "/></g></g></g><g fill="#ffffff" fill-opacity="1"><g transform="translate(20.433554, 10.629865)"><g><path d="M 0.5 0.140625 L 0.390625 -0.203125 L 0.25 -0.25 L 0.171875 0.046875 L 0.109375 0.03125 L 0.3125 -0.671875 L 0.5 -0.625 C 0.539062 -0.613281 0.570312 -0.597656 0.59375 -0.578125 C 0.625 -0.566406 0.648438 -0.550781 0.671875 -0.53125 C 0.691406 -0.507812 0.703125 -0.484375 0.703125 -0.453125 C 0.703125 -0.429688 0.695312 -0.398438 0.6875 -0.359375 C 0.675781 -0.328125 0.664062 -0.300781 0.65625 -0.28125 C 0.644531 -0.257812 0.628906 -0.238281 0.609375 -0.21875 C 0.585938 -0.207031 0.566406 -0.195312 0.546875 -0.1875 C 0.535156 -0.1875 0.515625 -0.191406 0.484375 -0.203125 L 0.59375 0.171875 Z M 0.609375 -0.390625 C 0.617188 -0.410156 0.625 -0.429688 0.625 -0.453125 C 0.625 -0.472656 0.613281 -0.488281 0.59375 -0.5 C 0.582031 -0.507812 0.566406 -0.519531 0.546875 -0.53125 C 0.535156 -0.539062 0.515625 -0.550781 0.484375 -0.5625 L 0.359375 -0.59375 L 0.265625 -0.3125 L 0.390625 -0.28125 C 0.421875 -0.269531 0.445312 -0.265625 0.46875 -0.265625 C 0.5 -0.265625 0.523438 -0.269531 0.546875 -0.28125 C 0.566406 -0.289062 0.578125 -0.300781 0.578125 -0.3125 C 0.585938 -0.332031 0.597656 -0.359375 0.609375 -0.390625 Z M 0.609375 -0.390625 "/></g></g></g><g fill="#ffffff" fill-opacity="1"><g transform="translate(21.716772, 11.050784)"><g><path d="M 0.03125 0.015625 L 0.578125 -0.53125 L 0.671875 -0.484375 L 0.578125 0.28125 L 0.5 0.234375 L 0.53125 0 L 0.265625 -0.125 L 0.09375 0.046875 Z M 0.3125 -0.15625 L 0.546875 -0.046875 L 0.59375 -0.46875 Z M 0.3125 -0.15625 "/></g></g></g><g fill="#ffffff" fill-opacity="1"><g transform="translate(22.935318, 11.70637)"><g><path d="M 0.265625 0.1875 L 0.03125 0.03125 L 0.0625 -0.015625 L 0.15625 0.046875 L 0.5 -0.453125 L 0.40625 -0.515625 L 0.453125 -0.578125 L 0.6875 -0.421875 L 0.640625 -0.359375 L 0.5625 -0.421875 L 0.21875 0.078125 L 0.296875 0.140625 Z M 0.265625 0.1875 "/></g></g></g><g fill="#ffffff" fill-opacity="1"><g transform="translate(23.812514, 12.362966)"><g><path d="M 0.546875 0.25 C 0.523438 0.269531 0.5 0.285156 0.46875 0.296875 C 0.445312 0.316406 0.421875 0.328125 0.390625 0.328125 C 0.359375 0.328125 0.328125 0.316406 0.296875 0.296875 C 0.265625 0.273438 0.238281 0.253906 0.21875 0.234375 C 0.1875 0.210938 0.164062 0.1875 0.15625 0.15625 C 0.144531 0.132812 0.132812 0.109375 0.125 0.078125 C 0.125 0.0546875 0.125 0.0351562 0.125 0.015625 C 0.125 -0.00390625 0.125 -0.0234375 0.125 -0.046875 L 0.21875 -0.046875 C 0.195312 -0.0351562 0.1875 -0.0195312 0.1875 0 C 0.195312 0.03125 0.203125 0.0507812 0.203125 0.0625 C 0.203125 0.0820312 0.207031 0.101562 0.21875 0.125 C 0.226562 0.144531 0.242188 0.164062 0.265625 0.1875 C 0.285156 0.207031 0.304688 0.222656 0.328125 0.234375 C 0.347656 0.242188 0.367188 0.25 0.390625 0.25 C 0.410156 0.257812 0.429688 0.257812 0.453125 0.25 C 0.472656 0.25 0.488281 0.238281 0.5 0.21875 C 0.519531 0.207031 0.53125 0.191406 0.53125 0.171875 C 0.539062 0.148438 0.539062 0.125 0.53125 0.09375 C 0.53125 0.0703125 0.519531 0.0507812 0.5 0.03125 C 0.488281 0.0195312 0.476562 0 0.46875 -0.03125 C 0.445312 -0.0625 0.425781 -0.0859375 0.40625 -0.109375 C 0.394531 -0.140625 0.382812 -0.164062 0.375 -0.1875 C 0.375 -0.21875 0.378906 -0.242188 0.390625 -0.265625 C 0.398438 -0.296875 0.414062 -0.320312 0.4375 -0.34375 C 0.457031 -0.375 0.476562 -0.390625 0.5 -0.390625 C 0.53125 -0.398438 0.554688 -0.398438 0.578125 -0.390625 C 0.609375 -0.390625 0.632812 -0.382812 0.65625 -0.375 C 0.6875 -0.375 0.71875 -0.359375 0.75 -0.328125 C 0.769531 -0.304688 0.785156 -0.285156 0.796875 -0.265625 C 0.804688 -0.242188 0.816406 -0.222656 0.828125 -0.203125 C 0.835938 -0.179688 0.84375 -0.160156 0.84375 -0.140625 C 0.84375 -0.117188 0.835938 -0.09375 0.828125 -0.0625 L 0.75 -0.078125 C 0.769531 -0.0976562 0.773438 -0.113281 0.765625 -0.125 C 0.765625 -0.144531 0.765625 -0.160156 0.765625 -0.171875 C 0.765625 -0.191406 0.757812 -0.207031 0.75 -0.21875 C 0.738281 -0.238281 0.722656 -0.257812 0.703125 -0.28125 C 0.679688 -0.300781 0.660156 -0.3125 0.640625 -0.3125 C 0.628906 -0.320312 0.613281 -0.328125 0.59375 -0.328125 C 0.570312 -0.335938 0.550781 -0.335938 0.53125 -0.328125 C 0.507812 -0.316406 0.492188 -0.300781 0.484375 -0.28125 C 0.472656 -0.269531 0.460938 -0.257812 0.453125 -0.25 C 0.453125 -0.238281 0.453125 -0.222656 0.453125 -0.203125 C 0.460938 -0.179688 0.472656 -0.160156 0.484375 -0.140625 C 0.492188 -0.128906 0.515625 -0.109375 0.546875 -0.078125 C 0.554688 -0.046875 0.566406 -0.015625 0.578125 0.015625 C 0.597656 0.046875 0.609375 0.0703125 0.609375 0.09375 C 0.609375 0.125 0.601562 0.148438 0.59375 0.171875 C 0.59375 0.191406 0.578125 0.21875 0.546875 0.25 Z M 0.546875 0.25 "/></g></g></g><g fill="#ffffff" fill-opacity="1"><g transform="translate(11.858983, 24.133897)"><g><path d="M 0.65625 0.21875 C 0.613281 0.257812 0.578125 0.289062 0.546875 0.3125 C 0.515625 0.34375 0.484375 0.359375 0.453125 0.359375 C 0.421875 0.367188 0.382812 0.363281 0.34375 0.34375 C 0.3125 0.332031 0.28125 0.3125 0.25 0.28125 C 0.207031 0.238281 0.179688 0.195312 0.171875 0.15625 C 0.160156 0.125 0.15625 0.09375 0.15625 0.0625 C 0.15625 0.0390625 0.164062 0.015625 0.1875 -0.015625 C 0.21875 -0.0546875 0.253906 -0.0976562 0.296875 -0.140625 L 0.59375 -0.4375 L 0.640625 -0.390625 L 0.34375 -0.09375 C 0.3125 -0.0625 0.285156 -0.03125 0.265625 0 C 0.242188 0.0195312 0.234375 0.0390625 0.234375 0.0625 C 0.234375 0.09375 0.234375 0.117188 0.234375 0.140625 C 0.242188 0.171875 0.265625 0.203125 0.296875 0.234375 C 0.316406 0.253906 0.34375 0.269531 0.375 0.28125 C 0.40625 0.289062 0.429688 0.296875 0.453125 0.296875 C 0.472656 0.296875 0.5 0.28125 0.53125 0.25 C 0.5625 0.226562 0.59375 0.203125 0.625 0.171875 L 0.921875 -0.125 L 0.953125 -0.078125 Z M 0.65625 0.21875 "/></g></g></g><g fill="#ffffff" fill-opacity="1"><g transform="translate(12.722846, 24.950629)"><g><path d="M 0.4375 0.328125 L 0.546875 -0.40625 L 0.140625 0.109375 L 0.09375 0.0625 L 0.546875 -0.515625 L 0.625 -0.4375 L 0.515625 0.25 L 0.90625 -0.234375 L 0.953125 -0.203125 L 0.5 0.375 Z M 0.4375 0.328125 "/></g></g></g><g fill="#ffffff" fill-opacity="1"><g transform="translate(13.682175, 25.648317)"><g><path d="M 0.453125 0.265625 L 0.625 -0.03125 L 0.328125 -0.203125 L 0.15625 0.09375 L 0.09375 0.0625 L 0.46875 -0.578125 L 0.53125 -0.546875 L 0.375 -0.265625 L 0.671875 -0.09375 L 0.828125 -0.375 L 0.90625 -0.328125 L 0.53125 0.3125 Z M 0.453125 0.265625 "/></g></g></g><g fill="#ffffff" fill-opacity="1"><g transform="translate(14.705846, 26.209318)"><g><path d="M 0.03125 0.015625 L 0.546875 -0.5625 L 0.640625 -0.515625 L 0.59375 0.25 L 0.515625 0.21875 L 0.53125 -0.015625 L 0.25 -0.125 L 0.09375 0.046875 Z M 0.296875 -0.1875 L 0.546875 -0.078125 L 0.5625 -0.5 Z M 0.296875 -0.1875 "/></g></g></g><g fill="#ffffff" fill-opacity="1"><g transform="translate(15.745095, 26.617274)"><g/></g></g><g fill="#ffffff" fill-opacity="1"><g transform="translate(16.446491, 26.822243)"><g><path d="M 0.109375 0.015625 L 0.265625 -0.703125 L 0.6875 -0.609375 L 0.671875 -0.546875 L 0.3125 -0.625 L 0.265625 -0.375 L 0.578125 -0.296875 L 0.5625 -0.25 L 0.25 -0.328125 L 0.1875 -0.03125 L 0.546875 0.046875 L 0.53125 0.109375 Z M 0.109375 0.015625 "/></g></g></g><g fill="#ffffff" fill-opacity="1"><g transform="translate(17.487037, 27.00998)"><g/></g></g><g fill="#ffffff" fill-opacity="1"><g transform="translate(18.214737, 27.076482)"><g><path d="M 0.109375 0 L 0.125 -0.734375 L 0.5625 -0.734375 L 0.5625 -0.671875 L 0.1875 -0.671875 L 0.171875 -0.421875 L 0.5 -0.421875 L 0.5 -0.359375 L 0.171875 -0.359375 L 0.171875 -0.0625 L 0.546875 -0.0625 L 0.546875 0 Z M 0.109375 0 "/></g></g></g><g fill="#ffffff" fill-opacity="1"><g transform="translate(19.280572, 27.065036)"><g><path d="M 0.5625 -0.25 C 0.5625 -0.21875 0.554688 -0.1875 0.546875 -0.15625 C 0.546875 -0.132812 0.53125 -0.109375 0.5 -0.078125 C 0.476562 -0.0546875 0.453125 -0.0390625 0.421875 -0.03125 C 0.390625 -0.0195312 0.359375 -0.015625 0.328125 -0.015625 C 0.285156 -0.015625 0.25 -0.015625 0.21875 -0.015625 C 0.195312 -0.015625 0.175781 -0.0195312 0.15625 -0.03125 C 0.132812 -0.0507812 0.113281 -0.0664062 0.09375 -0.078125 C 0.0703125 -0.0976562 0.0546875 -0.113281 0.046875 -0.125 L 0.109375 -0.1875 C 0.109375 -0.164062 0.113281 -0.148438 0.125 -0.140625 C 0.144531 -0.128906 0.160156 -0.117188 0.171875 -0.109375 C 0.191406 -0.0976562 0.210938 -0.0859375 0.234375 -0.078125 C 0.265625 -0.078125 0.296875 -0.078125 0.328125 -0.078125 C 0.347656 -0.078125 0.367188 -0.0820312 0.390625 -0.09375 C 0.421875 -0.101562 0.441406 -0.113281 0.453125 -0.125 C 0.460938 -0.132812 0.472656 -0.148438 0.484375 -0.171875 C 0.492188 -0.191406 0.5 -0.210938 0.5 -0.234375 C 0.5 -0.253906 0.488281 -0.269531 0.46875 -0.28125 C 0.457031 -0.300781 0.441406 -0.316406 0.421875 -0.328125 C 0.410156 -0.347656 0.394531 -0.359375 0.375 -0.359375 C 0.351562 -0.359375 0.328125 -0.363281 0.296875 -0.375 C 0.253906 -0.382812 0.210938 -0.390625 0.171875 -0.390625 C 0.140625 -0.398438 0.113281 -0.410156 0.09375 -0.421875 C 0.0703125 -0.441406 0.0546875 -0.460938 0.046875 -0.484375 C 0.0351562 -0.503906 0.0234375 -0.53125 0.015625 -0.5625 C 0.015625 -0.59375 0.0195312 -0.617188 0.03125 -0.640625 C 0.0390625 -0.671875 0.0507812 -0.691406 0.0625 -0.703125 C 0.0820312 -0.722656 0.101562 -0.738281 0.125 -0.75 C 0.15625 -0.769531 0.191406 -0.78125 0.234375 -0.78125 C 0.265625 -0.78125 0.289062 -0.78125 0.3125 -0.78125 C 0.34375 -0.78125 0.367188 -0.773438 0.390625 -0.765625 C 0.410156 -0.753906 0.429688 -0.742188 0.453125 -0.734375 C 0.472656 -0.722656 0.488281 -0.707031 0.5 -0.6875 L 0.4375 -0.625 C 0.425781 -0.644531 0.414062 -0.660156 0.40625 -0.671875 C 0.394531 -0.679688 0.378906 -0.691406 0.359375 -0.703125 C 0.347656 -0.710938 0.332031 -0.71875 0.3125 -0.71875 C 0.289062 -0.71875 0.265625 -0.71875 0.234375 -0.71875 C 0.210938 -0.71875 0.191406 -0.710938 0.171875 -0.703125 C 0.160156 -0.691406 0.144531 -0.679688 0.125 -0.671875 C 0.113281 -0.660156 0.101562 -0.644531 0.09375 -0.625 C 0.09375 -0.601562 0.09375 -0.582031 0.09375 -0.5625 C 0.101562 -0.539062 0.109375 -0.523438 0.109375 -0.515625 C 0.117188 -0.503906 0.128906 -0.492188 0.140625 -0.484375 C 0.160156 -0.472656 0.179688 -0.46875 0.203125 -0.46875 C 0.222656 -0.46875 0.253906 -0.460938 0.296875 -0.453125 C 0.328125 -0.453125 0.359375 -0.445312 0.390625 -0.4375 C 0.429688 -0.425781 0.460938 -0.410156 0.484375 -0.390625 C 0.503906 -0.378906 0.519531 -0.363281 0.53125 -0.34375 C 0.539062 -0.320312 0.550781 -0.289062 0.5625 -0.25 Z M 0.5625 -0.25 "/></g></g></g><g fill="#ffffff" fill-opacity="1"><g transform="translate(20.37463, 26.923105)"><g><path d="M 0.1875 -0.734375 L 0.328125 -0.078125 L 0.28125 -0.0625 L 0.140625 -0.71875 L -0.125 -0.65625 L -0.140625 -0.71875 L 0.4375 -0.859375 L 0.453125 -0.796875 Z M 0.1875 -0.734375 "/></g></g></g><g fill="#ffffff" fill-opacity="1"><g transform="translate(21.417495, 26.660984)"><g><path d="M 0.109375 -0.03125 L -0.140625 -0.71875 L 0.265625 -0.875 L 0.296875 -0.828125 L -0.0625 -0.703125 L 0.015625 -0.453125 L 0.328125 -0.5625 L 0.34375 -0.515625 L 0.03125 -0.40625 L 0.140625 -0.125 L 0.5 -0.25 L 0.515625 -0.1875 Z M 0.0625 -0.703125 L 0.015625 -0.6875 L 0.046875 -0.90625 L 0.125 -0.9375 Z M 0.0625 -0.703125 "/></g></g></g><g fill="#ffffff" fill-opacity="1"><g transform="translate(22.413812, 26.283958)"><g><path d="M 0.015625 -0.765625 L 0.3125 -0.15625 L 0.25 -0.125 L -0.046875 -0.734375 L -0.28125 -0.609375 L -0.3125 -0.65625 L 0.21875 -0.921875 L 0.25 -0.875 Z M 0.015625 -0.765625 "/></g></g></g><g fill="#ffffff" fill-opacity="1"><g transform="translate(23.362692, 25.789785)"><g><path d="M 0.28125 -0.171875 L 0.046875 -0.03125 L 0.015625 -0.078125 L 0.09375 -0.125 L -0.234375 -0.65625 L -0.3125 -0.609375 L -0.34375 -0.65625 L -0.109375 -0.796875 L -0.078125 -0.75 L -0.15625 -0.703125 L 0.171875 -0.171875 L 0.25 -0.21875 Z M 0.28125 -0.171875 "/></g></g></g><g fill="#ffffff" fill-opacity="1"><g transform="translate(24.05995, 25.338682)"><g><path d="M 0.4375 -0.5 C 0.4375 -0.476562 0.4375 -0.453125 0.4375 -0.421875 C 0.4375 -0.398438 0.429688 -0.378906 0.421875 -0.359375 C 0.421875 -0.335938 0.410156 -0.316406 0.390625 -0.296875 C 0.378906 -0.273438 0.359375 -0.25 0.328125 -0.21875 C 0.242188 -0.15625 0.160156 -0.132812 0.078125 -0.15625 C -0.00390625 -0.175781 -0.0859375 -0.238281 -0.171875 -0.34375 C -0.203125 -0.394531 -0.226562 -0.441406 -0.25 -0.484375 C -0.269531 -0.523438 -0.28125 -0.5625 -0.28125 -0.59375 C -0.289062 -0.632812 -0.28125 -0.675781 -0.25 -0.71875 C -0.226562 -0.757812 -0.195312 -0.796875 -0.15625 -0.828125 C -0.132812 -0.847656 -0.109375 -0.863281 -0.078125 -0.875 C -0.0546875 -0.882812 -0.0351562 -0.890625 -0.015625 -0.890625 C 0.00390625 -0.898438 0.03125 -0.898438 0.0625 -0.890625 C 0.09375 -0.890625 0.113281 -0.882812 0.125 -0.875 L 0.09375 -0.8125 C 0.0820312 -0.8125 0.0664062 -0.8125 0.046875 -0.8125 C 0.0351562 -0.820312 0.0195312 -0.828125 0 -0.828125 C -0.0195312 -0.828125 -0.0390625 -0.820312 -0.0625 -0.8125 C -0.0820312 -0.8125 -0.0976562 -0.800781 -0.109375 -0.78125 C -0.140625 -0.757812 -0.160156 -0.726562 -0.171875 -0.6875 C -0.191406 -0.65625 -0.203125 -0.625 -0.203125 -0.59375 C -0.203125 -0.5625 -0.191406 -0.53125 -0.171875 -0.5 C -0.160156 -0.46875 -0.140625 -0.429688 -0.109375 -0.390625 C -0.078125 -0.347656 -0.046875 -0.3125 -0.015625 -0.28125 C 0.015625 -0.257812 0.046875 -0.242188 0.078125 -0.234375 C 0.109375 -0.222656 0.140625 -0.21875 0.171875 -0.21875 C 0.210938 -0.226562 0.25 -0.242188 0.28125 -0.265625 C 0.300781 -0.285156 0.316406 -0.304688 0.328125 -0.328125 C 0.335938 -0.359375 0.347656 -0.382812 0.359375 -0.40625 C 0.367188 -0.425781 0.367188 -0.441406 0.359375 -0.453125 C 0.359375 -0.460938 0.359375 -0.476562 0.359375 -0.5 Z M 0.4375 -0.5 "/></g></g></g><g fill="#ffffff" fill-opacity="1"><g transform="translate(24.951327, 24.607052)"><g><path d="M 0.015625 -0.015625 L -0.3125 -0.71875 L -0.234375 -0.796875 L 0.453125 -0.453125 L 0.390625 -0.390625 L 0.1875 -0.5 L -0.03125 -0.28125 L 0.078125 -0.078125 Z M -0.0625 -0.34375 L 0.125 -0.53125 L -0.234375 -0.703125 Z M -0.0625 -0.34375 "/></g></g></g></svg>