<?xml version="1.0" standalone="no"?>
<!DOCTYPE svg PUBLIC "-//W3C//DTD SVG 20010904//EN"
 "http://www.w3.org/TR/2001/REC-SVG-20010904/DTD/svg10.dtd">
<svg version="1.0" xmlns="http://www.w3.org/2000/svg"
 width="500.000000pt" height="500.000000pt" viewBox="0 0 500.000000 500.000000"
 preserveAspectRatio="xMidYMid meet">

<g transform="translate(0.000000,500.000000) scale(0.100000,-0.100000)"
fill="#000000" stroke="none">
<path d="M2383 3740 c-499 -56 -907 -382 -1063 -848 -41 -122 -60 -247 -60
-388 0 -350 128 -655 378 -895 145 -140 288 -228 470 -289 248 -83 563 -81
802 5 389 141 686 464 791 860 41 155 51 374 25 525 -90 514 -499 926 -1009
1014 -112 20 -247 26 -334 16z m342 -126 c327 -62 637 -298 790 -604 140 -279
158 -627 46 -915 -46 -120 -156 -305 -181 -305 -4 0 -18 30 -31 67 -58 178
-167 332 -321 456 -64 52 -192 117 -231 117 -18 0 -66 -12 -107 -27 -63 -22
-92 -26 -185 -27 -96 0 -119 3 -185 28 -111 42 -116 42 -205 -2 -207 -101
-390 -310 -460 -528 -16 -46 -31 -84 -36 -84 -15 0 -90 116 -134 205 -86 176
-119 318 -118 510 1 298 106 560 308 774 194 205 426 317 735 355 58 7 229 -4
315 -20z"/>
<path d="M2391 3374 c-80 -21 -144 -60 -205 -124 -61 -64 -90 -114 -111 -197
-65 -249 95 -489 356 -533 189 -32 390 73 472 247 29 63 31 76 32 179 0 108
-1 112 -38 187 -97 197 -304 295 -506 241z"/>
</g>
</svg>
