<?xml version="1.0" standalone="no"?>
<!DOCTYPE svg PUBLIC "-//W3C//DTD SVG 20010904//EN"
 "http://www.w3.org/TR/2001/REC-SVG-20010904/DTD/svg10.dtd">
<svg version="1.0" xmlns="http://www.w3.org/2000/svg"
 width="180.000000pt" height="36.000000pt" viewBox="0 0 180.000000 36.000000"
 preserveAspectRatio="xMidYMid meet">
<metadata>
Created by potrace 1.16, written by Peter Selinger 2001-2019
</metadata>
<g transform="translate(0.000000,36.000000) scale(0.100000,-0.100000)"
fill="#000000" stroke="none">
<path d="M376 261 c-3 -4 -16 -6 -28 -4 -13 2 -32 -3 -43 -11 -15 -12 -16 -16
-5 -16 40 -2 -41 -29 -87 -30 -81 0 -63 -20 20 -22 55 -1 61 -2 25 -5 -27 -2
-48 -8 -48 -14 0 -5 7 -9 15 -9 8 0 15 -4 15 -10 0 -5 11 -10 25 -10 14 0 25
5 25 10 0 6 7 10 15 10 8 0 15 5 15 10 0 6 9 10 20 10 11 0 20 -7 20 -15 0
-10 -10 -15 -30 -15 -16 0 -30 -4 -30 -10 0 -5 207 -9 545 -8 l545 0 6 24 c6
24 26 23 52 -3 14 -13 88 -18 116 -7 33 13 17 34 -26 34 l-43 1 55 23 c30 13
56 28 58 34 4 13 -52 21 -173 23 -145 3 -185 0 -185 -11 0 -5 17 -10 38 -11
l37 -1 -35 -13 c-19 -7 -66 -13 -105 -13 l-70 0 63 16 c40 10 62 21 62 30 0 9
-6 12 -17 7 -10 -3 -58 -18 -108 -31 -78 -21 -112 -25 -248 -25 -87 0 -183 5
-212 12 -40 9 -61 9 -85 0 -18 -6 -58 -11 -89 -10 -38 1 -48 3 -32 8 34 9 39
31 8 31 -14 0 -27 7 -31 15 -6 16 -41 21 -50 6z"/>
</g>
</svg>
