<?xml version="1.0" standalone="no"?>
<!DOCTYPE svg PUBLIC "-//W3C//DTD SVG 20010904//EN"
 "http://www.w3.org/TR/2001/REC-SVG-20010904/DTD/svg10.dtd">
<svg version="1.0" xmlns="http://www.w3.org/2000/svg"
 width="180.000000pt" height="36.000000pt" viewBox="0 0 180.000000 36.000000"
 preserveAspectRatio="xMidYMid meet">
<metadata>
Created by potrace 1.16, written by Peter Selinger 2001-2019
</metadata>
<g transform="translate(0.000000,36.000000) scale(0.100000,-0.100000)"
fill="#000000" stroke="none">
<path d="M625 343 c-180 -12 -407 -53 -494 -89 -45 -19 -81 -52 -81 -75 0 -69
229 -134 556 -158 152 -12 521 -15 511 -5 -3 4 -80 6 -170 5 -533 -6 -952 90
-839 192 81 73 323 114 742 126 l255 8 -215 -1 c-118 0 -237 -1 -265 -3z"/>
<path d="M1350 314 c249 -35 389 -95 354 -152 -36 -58 -225 -106 -529 -136
-22 -2 1 -2 52 0 255 10 523 88 523 153 0 29 -43 61 -116 86 -80 28 -279 65
-338 64 -26 -1 -6 -6 54 -15z"/>
</g>
</svg>
